<svg width="64" height="64" viewBox="0 0 64 64" fill="none" xmlns="http://www.w3.org/2000/svg">
<path fill-rule="evenodd" clip-rule="evenodd" d="M32 5.33337C46.7275 5.33337 58.6668 17.2724 58.6668 32C58.6668 46.7275 46.7276 58.6668 32 58.6668C17.2725 58.6668 5.33337 46.7276 5.33337 32C5.33337 17.2724 17.2725 5.33337 32 5.33337ZM32 40.6668C30.1589 40.6668 28.6665 42.159 28.6665 44C28.6665 45.841 30.159 47.3334 31.9999 47.3334C33.8407 47.3334 35.3332 45.841 35.3332 44C35.3332 42.159 33.8407 40.6668 31.9999 40.6668M31.5549 17.0002C28.9592 17.0002 26.7776 17.7074 25.0126 19.1177C22.9211 20.8072 21.8762 23.3022 21.8762 26.605H27.5465V26.567C27.5465 25.3069 27.8119 24.2732 28.3415 23.467C29.0721 22.3832 30.2574 21.8407 31.8959 21.8407C32.9042 21.8407 33.7625 22.1055 34.4671 22.634C35.3489 23.3662 35.7912 24.4746 35.7912 25.962C35.7912 26.8949 35.5633 27.7262 35.11 28.4577C34.7319 29.113 34.127 29.7553 33.294 30.3859C31.5297 31.5958 30.3825 32.7934 29.854 33.9787C29.4001 34.9617 29.1721 36.5246 29.1721 38.6668H34.5052C34.5052 37.2548 34.6929 36.1968 35.0728 35.4905C35.3748 34.9108 36.0056 34.2936 36.9636 33.6377C38.628 32.4021 39.8117 31.2547 40.5181 30.196C41.3747 28.936 41.8041 27.4609 41.8041 25.7714C41.8041 22.2701 40.3801 19.7866 37.5298 18.3239C35.8166 17.4417 33.825 17 31.555 17" fill="#536FD4"/>
</svg>
