<svg width="64" height="64" viewBox="0 0 64 64" fill="none" xmlns="http://www.w3.org/2000/svg">
<path d="M34.9656 27.0872L34.9634 12.072C34.9619 10.5311 34.7475 8.74441 36.8647 8.57559C39.1441 8.47047 38.9594 10.7965 38.96 12.2857L38.9597 27.3326C38.3856 27.2376 37.8522 27.159 37.2753 27.0872C36.4872 27.0701 35.7428 27.0981 34.9656 27.0872Z" fill="#536FD4"/>
<path d="M22.9319 34.9747L22.9307 20.4887C22.9298 19.3683 22.572 17.7892 23.8322 17.4124C25.5894 17.2846 25.2202 19.1287 25.2205 20.3528L25.2202 34.9747H24.3428H22.9319Z" fill="#536FD4"/>
<path d="M27.2738 31.8522C29.8332 30.15 32.5872 29.1646 35.6766 29.1292C36.4775 28.9773 38.2188 29.2378 39.0359 29.3998C46.0103 30.7826 51.4506 37.1787 51.4603 44.3306C51.4619 45.4206 51.0831 50.8053 49.505 50.8647C48.8391 50.8897 48.1797 50.8725 47.5159 50.8722L43.1241 50.8713H36.8647C36.6134 50.3041 36.3825 49.5713 36.1791 48.9731L35.0275 45.5309C34.7122 44.5981 34.2763 43.4666 34.0128 42.5147C33.8009 41.7481 34.1238 40.0847 33.9306 39.1912C33.7866 38.2231 33.2819 37.1387 32.5706 36.4591C30.8422 34.8081 29.4244 34.9722 27.2738 34.9747V31.8522Z" fill="#536FD4"/>
<path d="M15.4939 41.9744C15.5323 39.4191 15.2264 37.1175 18.5751 36.9437L28.4051 36.9403C31.8844 36.9369 31.9678 38.9562 31.9619 41.8234H28.7029L17.6125 41.8213C17.002 41.8194 16.046 41.7403 15.4939 41.9744Z" fill="#536FD4"/>
<path d="M17.171 52.9878L14.8119 52.9912C12.0427 52.9972 12.2009 52.5272 13.015 50.3831L14.8567 45.4425C15.0283 44.9722 15.2727 44.2372 15.4939 43.81C15.608 43.8188 15.811 43.8016 15.939 43.8019L32.2784 43.81C32.5247 44.6391 32.905 45.6503 33.2009 46.4794L34.4897 50.1816C34.6938 50.7841 35.0531 51.6953 35.1734 52.2866C35.0516 52.6728 34.6991 53.0384 34.28 52.9822C33.6931 52.9028 30.2928 53.1109 29.9749 52.9625C29.9495 52.7784 30.0459 52.7537 29.9482 52.5384C29.4641 51.4709 28.6992 49.7903 28.0753 48.83C27.5715 48.0547 25.697 48.5513 26.5014 50.1763C26.9741 51.0484 27.4383 52.0806 27.8752 52.9878H19.1014C19.4348 52.2178 20.9449 49.8634 20.7398 49.1719C20.5173 48.4259 19.4308 48.1519 18.9875 48.8666C18.3602 49.8781 17.5237 51.5638 17.0259 52.7009C17.0615 52.7881 17.1254 52.9016 17.171 52.9878Z" fill="#536FD4"/>
</svg>
