<svg width="64" height="64" viewBox="0 0 64 64" fill="none" xmlns="http://www.w3.org/2000/svg">
<path d="M12 0C10.9391 0 9.92172 0.421427 9.17157 1.17157C8.42143 1.92172 8 2.93913 8 4V60C8 61.0609 8.42143 62.0783 9.17157 62.8284C9.92172 63.5786 10.9391 64 12 64H24V50C24 49.4696 24.2107 48.9609 24.5858 48.5858C24.9609 48.2107 25.4696 48 26 48H38C38.5304 48 39.0391 48.2107 39.4142 48.5858C39.7893 48.9609 40 49.4696 40 50V64H52C53.0609 64 54.0783 63.5786 54.8284 62.8284C55.5786 62.0783 56 61.0609 56 60V4C56 2.93913 55.5786 1.92172 54.8284 1.17157C54.0783 0.421427 53.0609 0 52 0L12 0ZM16 10C16 9.46957 16.2107 8.96086 16.5858 8.58579C16.9609 8.21071 17.4696 8 18 8H22C22.5304 8 23.0391 8.21071 23.4142 8.58579C23.7893 8.96086 24 9.46957 24 10V14C24 14.5304 23.7893 15.0391 23.4142 15.4142C23.0391 15.7893 22.5304 16 22 16H18C17.4696 16 16.9609 15.7893 16.5858 15.4142C16.2107 15.0391 16 14.5304 16 14V10ZM28 10C28 9.46957 28.2107 8.96086 28.5858 8.58579C28.9609 8.21071 29.4696 8 30 8H34C34.5304 8 35.0391 8.21071 35.4142 8.58579C35.7893 8.96086 36 9.46957 36 10V14C36 14.5304 35.7893 15.0391 35.4142 15.4142C35.0391 15.7893 34.5304 16 34 16H30C29.4696 16 28.9609 15.7893 28.5858 15.4142C28.2107 15.0391 28 14.5304 28 14V10ZM42 8H46C46.5304 8 47.0391 8.21071 47.4142 8.58579C47.7893 8.96086 48 9.46957 48 10V14C48 14.5304 47.7893 15.0391 47.4142 15.4142C47.0391 15.7893 46.5304 16 46 16H42C41.4696 16 40.9609 15.7893 40.5858 15.4142C40.2107 15.0391 40 14.5304 40 14V10C40 9.46957 40.2107 8.96086 40.5858 8.58579C40.9609 8.21071 41.4696 8 42 8ZM16 22C16 21.4696 16.2107 20.9609 16.5858 20.5858C16.9609 20.2107 17.4696 20 18 20H22C22.5304 20 23.0391 20.2107 23.4142 20.5858C23.7893 20.9609 24 21.4696 24 22V26C24 26.5304 23.7893 27.0391 23.4142 27.4142C23.0391 27.7893 22.5304 28 22 28H18C17.4696 28 16.9609 27.7893 16.5858 27.4142C16.2107 27.0391 16 26.5304 16 26V22ZM30 20H34C34.5304 20 35.0391 20.2107 35.4142 20.5858C35.7893 20.9609 36 21.4696 36 22V26C36 26.5304 35.7893 27.0391 35.4142 27.4142C35.0391 27.7893 34.5304 28 34 28H30C29.4696 28 28.9609 27.7893 28.5858 27.4142C28.2107 27.0391 28 26.5304 28 26V22C28 21.4696 28.2107 20.9609 28.5858 20.5858C28.9609 20.2107 29.4696 20 30 20ZM40 22C40 21.4696 40.2107 20.9609 40.5858 20.5858C40.9609 20.2107 41.4696 20 42 20H46C46.5304 20 47.0391 20.2107 47.4142 20.5858C47.7893 20.9609 48 21.4696 48 22V26C48 26.5304 47.7893 27.0391 47.4142 27.4142C47.0391 27.7893 46.5304 28 46 28H42C41.4696 28 40.9609 27.7893 40.5858 27.4142C40.2107 27.0391 40 26.5304 40 26V22ZM18 32H22C22.5304 32 23.0391 32.2107 23.4142 32.5858C23.7893 32.9609 24 33.4696 24 34V38C24 38.5304 23.7893 39.0391 23.4142 39.4142C23.0391 39.7893 22.5304 40 22 40H18C17.4696 40 16.9609 39.7893 16.5858 39.4142C16.2107 39.0391 16 38.5304 16 38V34C16 33.4696 16.2107 32.9609 16.5858 32.5858C16.9609 32.2107 17.4696 32 18 32ZM28 34C28 33.4696 28.2107 32.9609 28.5858 32.5858C28.9609 32.2107 29.4696 32 30 32H34C34.5304 32 35.0391 32.2107 35.4142 32.5858C35.7893 32.9609 36 33.4696 36 34V38C36 38.5304 35.7893 39.0391 35.4142 39.4142C35.0391 39.7893 34.5304 40 34 40H30C29.4696 40 28.9609 39.7893 28.5858 39.4142C28.2107 39.0391 28 38.5304 28 38V34ZM42 32H46C46.5304 32 47.0391 32.2107 47.4142 32.5858C47.7893 32.9609 48 33.4696 48 34V38C48 38.5304 47.7893 39.0391 47.4142 39.4142C47.0391 39.7893 46.5304 40 46 40H42C41.4696 40 40.9609 39.7893 40.5858 39.4142C40.2107 39.0391 40 38.5304 40 38V34C40 33.4696 40.2107 32.9609 40.5858 32.5858C40.9609 32.2107 41.4696 32 42 32Z" fill="#536FD4"/>
</svg>
