<svg width="64" height="64" viewBox="0 0 64 64" fill="none" xmlns="http://www.w3.org/2000/svg">
<g clip-path="url(#clip0_268_1097)">
<path d="M58.6667 33.7778C58.4327 33.7791 58.2008 33.7343 57.9842 33.6458C57.7676 33.5573 57.5706 33.427 57.4044 33.2622L32 7.84L6.59555 33.2622C6.25546 33.5535 5.81799 33.7057 5.37057 33.6884C4.92315 33.6711 4.49872 33.4856 4.18211 33.169C3.8655 32.8524 3.68002 32.428 3.66273 31.9805C3.64545 31.5331 3.79764 31.0956 4.08889 30.7556L30.7556 4.08889C31.0886 3.75777 31.5392 3.57192 32.0089 3.57192C32.4785 3.57192 32.9291 3.75777 33.2622 4.08889L59.9289 30.7556C60.1735 31.0051 60.3392 31.3213 60.4051 31.6645C60.4711 32.0076 60.4344 32.3627 60.2998 32.6851C60.1651 33.0076 59.9383 33.2833 59.6479 33.4776C59.3574 33.6719 59.0161 33.7763 58.6667 33.7778Z" fill="#536FD4"/>
<path d="M32 13.8489L10.6667 35.2533V56.8889C10.6667 57.8319 11.0413 58.7363 11.7081 59.4031C12.3749 60.0698 13.2792 60.4444 14.2222 60.4444H26.6667V42.6667H37.3333V60.4444H49.7778C50.7208 60.4444 51.6251 60.0698 52.2919 59.4031C52.9587 58.7363 53.3333 57.8319 53.3333 56.8889V35.1289L32 13.8489Z" fill="#536FD4"/>
</g>
<defs>
<clipPath id="clip0_268_1097">
<rect width="64" height="64" fill="white"/>
</clipPath>
</defs>
</svg>
