<svg width="64" height="64" viewBox="0 0 64 64" fill="none" xmlns="http://www.w3.org/2000/svg">
<g clip-path="url(#clip0_268_1091)">
<path d="M55.1111 14.2222H39.1111V58.6667H58.6667V17.7778C58.6667 16.8348 58.2921 15.9304 57.6253 15.2636C56.9585 14.5968 56.0541 14.2222 55.1111 14.2222ZM46.2222 44.4444H42.6667V40.8889H46.2222V44.4444ZM46.2222 35.5556H42.6667V32H46.2222V35.5556ZM46.2222 26.6667H42.6667V23.1111H46.2222V26.6667ZM53.3333 44.4444H49.7778V40.8889H53.3333V44.4444ZM53.3333 35.5556H49.7778V32H53.3333V35.5556ZM53.3333 26.6667H49.7778V23.1111H53.3333V26.6667Z" fill="#536FD4"/>
<path d="M31.7867 5.33333H10.88C9.88043 5.33333 8.9218 5.73041 8.215 6.43721C7.50819 7.14402 7.11111 8.10265 7.11111 9.10222V58.6667H16V53.3333H26.6667V58.6667H35.5556V9.10222C35.5556 8.10265 35.1585 7.14402 34.4517 6.43721C33.7449 5.73041 32.7862 5.33333 31.7867 5.33333ZM16 44.4444H12.4444V40.8889H16V44.4444ZM16 35.5556H12.4444V32H16V35.5556ZM16 26.6667H12.4444V23.1111H16V26.6667ZM16 17.7778H12.4444V14.2222H16V17.7778ZM23.1111 44.4444H19.5556V40.8889H23.1111V44.4444ZM23.1111 35.5556H19.5556V32H23.1111V35.5556ZM23.1111 26.6667H19.5556V23.1111H23.1111V26.6667ZM23.1111 17.7778H19.5556V14.2222H23.1111V17.7778ZM30.2222 44.4444H26.6667V40.8889H30.2222V44.4444ZM30.2222 35.5556H26.6667V32H30.2222V35.5556ZM30.2222 26.6667H26.6667V23.1111H30.2222V26.6667ZM30.2222 17.7778H26.6667V14.2222H30.2222V17.7778Z" fill="#536FD4"/>
</g>
<defs>
<clipPath id="clip0_268_1091">
<rect width="64" height="64" fill="white"/>
</clipPath>
</defs>
</svg>
