<svg width="64" height="64" viewBox="0 0 64 64" fill="none" xmlns="http://www.w3.org/2000/svg">
<path d="M11.7321 14.5186C11.3906 14.504 10.9315 14.4535 10.776 14.1083C10.6408 13.8082 10.6219 9.10704 10.7707 8.80256C10.8706 8.59786 11.0275 8.51819 11.2412 8.4433C11.9667 8.3824 13.0024 8.44239 13.7539 8.44317L51.816 8.44258C52.8536 8.44122 55.0706 8.02729 55.0318 9.36333C54.9887 10.8414 55.0641 12.3272 55.0036 13.803C54.9751 14.4984 54.3004 14.5446 53.7288 14.5186V26.2724C53.7288 28.2246 53.6985 30.2549 53.7288 32.2009C53.1595 31.7554 52.5117 31.0689 51.9564 30.5615C51.9992 28.8329 51.9574 26.9285 51.9571 25.1899L51.9564 14.5186H33.581V26.8591C33.581 28.9058 33.5572 30.9985 33.581 33.0424H39.9714C37.1968 30.5932 38.9304 29.552 38.2826 26.8164C38.0155 25.6877 37.1033 24.8186 37.0187 23.649C36.8318 21.06 39.4708 18.9973 42.0966 19.9004C43.0289 20.2211 43.7422 20.6997 44.7826 20.8516C47.1888 21.2128 48.78 19.9557 50.8345 21.684C52.8322 23.3646 51.4306 24.435 50.0569 25.7946C49.2015 26.6412 48.1761 27.5304 47.3563 28.3947C49.0264 29.7732 51.0918 31.9335 52.7194 33.5127C53.6272 33.0983 54.6267 33.1025 55.4356 33.6959C55.7819 33.9502 59.3437 37.3639 59.414 37.4948C59.6343 37.903 57.2855 39.9874 56.7845 40.4084C55.9974 41.0706 55.4335 40.0154 54.8099 39.4545L53.1718 37.9508C51.9724 36.853 51.0714 36.2103 51.7912 34.4909C50.1694 32.7754 48.1132 30.9023 46.3667 29.309C45.48 30.2986 43.2409 32.0625 42.6482 33.0424H48.0028C48.517 33.5929 49.1705 34.1486 49.7232 34.7348H48.3814H33.581V52.467H39.3206V48.6668L36.3998 45.9211C35.0482 44.5697 36.4032 43.8396 37.07 44.2498C37.6264 44.6029 38.8951 45.8831 39.3206 46.3554L39.3196 42.3561C39.3192 41.5769 38.9916 38.8722 40.6671 39.5938C41.3737 39.8985 41.2031 40.8725 41.2031 41.5428L41.2014 43.9121H41.806C41.8067 43.1274 41.7095 38.9102 41.9114 38.538C42.0613 38.2622 42.3559 38.1583 42.6482 38.0745C43.6219 38.296 43.5567 38.8105 43.5516 39.6162L43.5488 43.9121C43.7884 43.9163 44.0396 43.9121 44.2802 43.9121L44.2785 41.4538C44.2778 40.9923 44.2486 40.4577 44.3227 40.004C44.4712 39.0989 45.918 39.2015 46.0244 40.0573C46.074 40.4561 46.0462 40.9679 46.0458 41.3736L46.0424 43.9121H46.7837C46.781 43.3171 46.6389 41.573 47.0358 41.1349C47.3346 40.8049 47.9858 40.8458 48.2998 41.1268C48.7032 41.4879 48.5513 42.3882 48.5506 42.8617L48.5482 52.467H51.9564V38.8546C52.3394 39.1891 53.3787 40.2492 53.7288 40.421L53.7285 48.2686C53.7285 49.8886 53.6938 51.5235 53.7771 53.1403C53.8413 54.3861 52.1695 54.1822 51.3701 54.1812L48.5482 54.1786C48.5438 56.366 48.0673 57.1584 45.6975 57.1402C44.3163 57.1299 42.9344 57.1402 41.5518 57.1428C39.6231 57.1467 39.2798 55.6924 39.3206 54.1786L15.3767 54.1792C14.4184 54.1792 13.4523 54.1939 12.4963 54.1598C11.4572 54.1227 11.7287 52.4216 11.7296 51.7671L11.7321 14.5186ZM12.4841 10.066C12.4689 10.9919 12.4861 11.9319 12.4841 12.8598H53.2523V10.066H12.4841ZM13.5484 14.5186V30.41C14.2429 30.3505 15.0125 30.2236 15.7092 30.1236L22.039 29.213C24.4361 28.8765 25.1755 28.5208 25.9173 26.3514C26.7918 24.0183 27.7071 21.4537 28.5246 19.0968L29.4108 16.6042C29.6343 15.9737 29.916 15.0894 30.2462 14.5186H13.5484ZM31.447 14.5186C30.9587 15.6669 30.4556 17.2233 30.0292 18.4192L27.095 26.5253C25.7803 30.1479 24.5408 29.9978 20.7138 30.5414L16.1155 31.2029C15.2808 31.322 14.3745 31.4316 13.5484 31.5691C13.5456 32.0405 13.3113 33.0898 13.8114 33.0424H31.7636L31.7631 16.2867C31.7635 15.6835 32.056 14.517 31.447 14.5186ZM50.0107 22.3978C48.6023 23.6393 47.2724 25.017 45.9051 26.3014L42.4606 29.5776C41.7309 30.2737 40.9037 31.0264 40.2229 31.7547C40.4649 31.9757 40.6491 32.1207 40.9098 32.3191C41.2792 32.1223 43.2209 30.1296 43.644 29.7197L48.6047 24.9736C49.176 24.429 50.1633 23.6435 50.6211 23.0768C50.4793 22.8668 50.2214 22.546 50.0107 22.3978ZM18.0287 34.7348H13.5484V52.467H28.0938C27.0335 50.2186 25.5485 47.939 24.6075 45.7191C24.0253 45.9426 23.306 46.2878 22.7333 46.5554C22.3436 45.7438 21.9311 44.9283 21.5106 44.1303C20.2199 44.7883 18.5269 45.6256 17.1935 46.1741C16.6945 44.9634 16.2822 43.8965 17.5346 42.8685C18.1926 42.3284 20.8757 41.2164 21.778 40.7715L25.7911 38.8793C26.4841 38.5448 27.5187 37.9446 28.2171 37.7527C29.3478 37.4422 30.4844 38.9521 30.7035 39.8309C29.3158 40.4733 27.8263 41.2434 26.4385 41.8143C26.7795 42.573 27.3416 43.5607 27.6261 44.281C27.2014 44.4736 26.7305 44.6769 26.3182 44.8848C27.5712 47.3534 29.1616 49.9766 30.2462 52.467C30.737 52.4677 31.2771 52.4794 31.7636 52.467V34.7348C30.2681 34.7072 28.6714 34.7351 27.1667 34.7351L18.0287 34.7348ZM25.3063 42.3768C24.6073 42.6945 23.1566 43.3281 22.585 43.7406C22.6917 43.9267 23.2445 44.963 23.3328 45.0118C24.2785 44.5928 25.1293 44.2083 26.0522 43.7406C25.9588 43.535 25.4467 42.4804 25.3063 42.3768Z" fill="#536FD4"/>
<path d="M24.7926 21.8415C23.8934 21.9219 23.9859 21.301 24.2011 20.6853L25.5532 16.7216C25.6917 16.319 25.7575 15.9402 26.0865 15.659C26.6423 15.6252 26.9768 15.8938 26.7985 16.4768C26.5867 17.1696 25.3087 21.5284 24.7926 21.8415Z" fill="#536FD4"/>
<path d="M23.7041 24.0867C23.3885 24.1855 23.0515 24.0152 22.9439 23.7025C22.8362 23.3898 22.997 23.0482 23.3066 22.9318C23.5147 22.8536 23.7489 22.8947 23.9181 23.0389C24.0872 23.1832 24.1646 23.4081 24.1201 23.6259C24.0756 23.8438 23.9163 24.0202 23.7041 24.0867Z" fill="#536FD4"/>
<path d="M15.2734 28.3504C14.3509 28.3566 14.5153 27.3368 15.0623 27.2819C16.2908 27.1586 17.4054 26.9387 18.5131 26.3694C18.8664 26.1878 19.3051 25.9117 19.6769 25.7969C20.0044 25.7188 20.3159 25.8967 20.3423 26.2484C20.4203 27.2904 16.1357 28.3287 15.2734 28.3504Z" fill="#536FD4"/>
</svg>
