<svg width="128" height="128" viewBox="0 0 128 128" fill="none" xmlns="http://www.w3.org/2000/svg">
<path d="M11.4263 82.3104L14.9495 82.9348C15.41 84.6789 13.3497 90.3493 12.7477 92.2621L9.82426 102.005L6.56869 113.773C6.04314 115.613 5.47951 118.084 4.66515 119.805C3.7512 119.27 3.16923 119.357 1.84701 119.098C1.70145 119.07 1.41474 119.24 1.03115 119.127C1.3346 117.114 2.30427 114.631 2.85933 112.605L7.37523 96.7432C8.08437 94.2083 8.77953 91.6472 9.48053 89.1124C9.97837 87.3105 10.4635 83.9617 11.4263 82.3104Z" fill="#CED7F7"/>
<path d="M28.5 24.5C28.2904 25.024 27.801 26.4387 27 27C27.8937 27.5003 32.1669 29.478 33.046 30.0056C33.3486 30.1957 33.5688 30.2962 33.8884 30.4457C34.0627 29.4724 34.1697 28.4972 34.3599 27.5335L35.3877 28C35.2711 29.1519 35.1499 30.6165 35.0528 31.4725C35.57 32.1685 36.41 33.0111 36.8233 33.6322C37.4959 34.6427 38.2103 35.8306 38.8586 36.8701L43.7201 44.7795C44.2815 45.6841 45.2344 47.2773 45.8235 48.1144C46.7534 47.7292 47.6189 47.5882 48.5657 47.3362C50.7943 46.7433 53.045 46.4379 55.2844 45.9743C55.7075 45.5815 55.9167 45.381 56.4112 45.0728C57.0894 43.5015 57.6327 42.9832 58.6923 41.7713C57.6824 41.0808 56.7768 40.2956 55.5789 40.1402C55.3201 39.8992 55.012 39.485 54.7933 39.2018C54.373 38.6575 52.4464 36.9494 52.8977 36.2151C53.627 35.8365 56.3891 36.829 57.2044 37.1903C57.7152 37.4167 58.5957 37.9977 59.0893 38.305C60.1459 38.9719 61.2091 39.6282 62.2789 40.2737L63.0312 40.0745C64.3181 40.658 64.4694 41.2361 65.4794 41.9338L65.5412 41.9034C67.16 41.0876 68.7975 40.0249 70.3475 39.0695C71.0044 38.6645 71.6756 38.1829 72.3731 37.8562C72.5731 37.7627 72.8412 37.701 73.0619 37.7474C73.4031 37.819 80.2425 46.0133 81.0281 46.9915C84.0512 47.5214 88.8837 48.9654 91.8725 49.9424L92.7637 49.6089C92.9344 48.545 92.9994 47.2782 93.1506 46.2912C93.6119 43.2836 95.1219 37.6871 97.0887 35.3923C96.7912 34.7836 96.0237 32.88 95.3969 32.672C94.3056 32.31 91.4981 35.6016 89.385 31.9324C88.9331 31.1332 88.5962 30.2748 88.3825 29.3822C87.8444 29.2465 87.6362 29.2358 87.0581 29.2567C86.4731 28.9032 86.2894 28.7761 85.9756 28.133C86.2444 27.7429 86.6856 27.3005 86.9044 26.9679C87.3881 26.2332 87.2425 24.2889 86.9506 23.5228C85.4556 22.4257 84.3537 22.1154 84.0012 19.9055C83.8025 18.662 83.89 17.4684 84.6612 16.4552C85.6231 15.1914 86.6775 14.8475 88.0131 14.1725C88.16 14.0984 89.4262 13.1463 89.6256 12.9782C90.9956 11.8222 92.8462 11.117 94.625 10.8597C97.485 10.4459 99.9644 10.9009 102.301 12.6585C105.054 14.7303 105.665 17.248 106.157 20.4876C106.293 21.3798 106.481 22.4093 106.982 23.1948C107.384 23.8239 108.321 24.2655 108.936 24.6945C110.274 25.6286 111.214 27.0972 111.447 28.7085C111.701 30.4483 110.957 32.53 110.022 33.9769L110.062 34.0562C110.432 34.7664 111.088 35.5905 111.528 36.2974C112.349 37.6399 113.062 39.0456 113.659 40.5012C115.212 44.2099 116.29 48.085 117.364 51.9464C119.073 58.2165 120.569 64.5425 121.85 70.9138C122.099 72.2157 122.746 74.7338 122.806 75.9982C122.324 76.3444 121.958 76.4807 121.404 76.6907C121.219 77.7957 121.216 78.5138 120.965 79.695C121.33 79.9238 121.907 80.2532 121.962 80.7325C122.129 82.1944 122.036 83.7113 122.068 85.1832C122.079 85.7069 122.109 87.08 121.821 87.4582C121.009 88.5232 119.204 89.34 117.995 89.795L117.99 89.8832C117.931 90.92 118.324 93.78 118.449 95.035L120.487 114.824C120.554 115.523 121.275 120.395 120.952 120.813C120.657 121.196 117.768 121.136 117.024 121.093C116.466 120.762 116.391 118.35 116.305 117.621C115.997 114.979 115.716 112.335 115.461 109.688C115.105 106.328 114.734 102.973 114.416 99.6082C114.156 96.8444 113.64 93.7375 113.476 90.9807C109.121 91.535 104.719 91.605 100.349 91.1894C100.009 91.1582 98.4162 90.9325 98.3469 90.9919C97.4662 91.7457 98.6094 96.7169 98.6969 97.2275C99.0644 99.4519 99.4125 101.68 99.7419 103.911C99.8512 104.623 100.171 106.181 100.009 106.816C99.9156 107.183 98.9256 107.711 98.5606 107.929C99.1644 110.494 100.539 113.188 100.927 115.734C100.728 116.087 100.546 116.396 100.179 116.593C98.7306 117.368 96.9725 118.075 95.4375 118.609C95.3775 119.129 95.355 120.354 95.135 120.713C94.4612 121.075 92.0806 120.796 91.2512 120.716C90.9369 120.686 90.9412 120.031 90.9269 119.786L90.84 119.797C89.5137 119.962 84.8819 121.354 83.9669 120.599C83.7919 120.454 83.7406 120.235 83.7475 120.018C83.785 118.866 85.5406 117.394 86.3512 116.682C87.4781 115.693 88.6331 114.736 89.8144 113.811C90.4481 113.312 91.2675 112.722 91.8537 112.205C91.8731 111.806 91.9037 111.489 91.9512 111.093C89.72 112.163 81.3087 116.799 79.18 116.001C79.0056 115.935 78.8519 115.828 78.7631 115.659C78.5875 115.323 78.7444 114.878 78.8787 114.558C79.335 113.469 82.2612 110.423 83.17 109.306C83.7362 108.611 84.1819 107.782 84.8025 107.141C84.3606 105.263 83.5381 103.201 82.9031 101.349C81.8781 98.4075 80.8219 95.4769 79.735 92.5582C79.3331 91.4538 78.9781 90.3332 78.5719 89.2288C77.5594 86.475 76.2425 83.5663 75.9444 80.6244C75.8031 79.2238 76.0206 77.8088 76.7725 76.6025C78.8519 73.2694 86.7656 69.8232 90.4812 68.4107C91.2744 68.1088 93.35 67.6213 93.85 67.12C94.2125 67.0263 94.8137 66.9507 95.2156 66.875C94.1319 66.5113 93.0056 66.5663 92.1731 66.2807C89.675 67.5944 87.0831 68.7232 84.4194 69.6575C79.4637 71.3457 73.8456 72.1863 68.6494 72.6432C67.8562 72.7125 67.045 72.6719 66.2587 72.7332C66.2306 75.7657 66.2719 78.8363 66.2794 81.8719L66.2919 97.0088L66.305 105.826C66.3031 107.215 66.2237 109.265 66.3056 110.584C67.4406 110.788 68.6494 110.795 69.7787 111.024C72.5256 111.582 76.0756 112.284 77.8519 114.643C79.0056 116.174 77.5006 117.98 76.1887 118.777C75.3019 119.316 74.4119 119.707 73.4169 120.02C67.825 121.801 61.4451 121.848 55.7281 120.654C53.5367 120.197 50.1902 119.077 48.848 117.188C47.6236 115.465 49.3265 113.593 50.823 112.786C53.0534 111.583 55.4819 111.096 57.9767 110.794C58.7974 110.693 59.7172 110.665 60.5013 110.541C60.6249 108.85 60.5533 106.498 60.5399 104.768C60.5227 102.083 60.5192 99.3975 60.5294 96.7125L60.5569 78.595C60.5518 76.6432 60.5795 74.6369 60.5476 72.6913C59.6325 72.5838 58.7174 72.5663 57.7997 72.4982C51.5888 72.0375 45.3918 70.7369 39.748 68.0407C38.8971 67.6338 37.9209 67.1444 37.1649 66.5894C37.239 67.69 37.4484 69.5932 37.4479 70.5769C40.9235 71.6457 50.8305 74.6013 52.5168 77.6963C52.6273 77.8988 52.6889 78.1444 52.7558 78.365C53.4328 78.6575 54.3368 79.3007 54.9533 79.7157C58.0967 81.8332 56.159 86.0657 54.9447 88.8863C53.2415 92.8425 51.0405 96.8694 49.0227 100.753C47.3173 104.09 45.5315 107.386 43.667 110.638C43.2409 111.38 42.7294 112.379 42.292 113.083C41.2514 113.673 40.065 113.448 38.8894 113.287C38.7658 113.491 38.646 113.682 38.5374 113.894C40.0952 114.975 41.599 115.633 43.2652 116.488C44.7828 117.267 46.7693 117.987 47.2059 119.801C47.0164 120.332 46.8714 120.689 46.3298 120.938C43.8262 122.086 36.6033 120.759 33.7502 120.169C32.6044 119.933 31.4292 119.539 30.277 119.384C30.3998 120.148 30.3617 120.848 29.3954 120.988C28.8055 121.074 28.1412 120.815 27.5713 120.689C23.6095 119.594 20.1856 116.941 17.0005 114.447C16.1807 113.805 14.5834 112.414 14.542 111.337C14.5135 110.593 15.7907 108.814 16.3597 108.273C16.7905 107.864 17.2618 107.376 17.7557 107.01C17.8999 106.903 18.4765 106.794 18.5106 106.76C18.7817 106.491 19.2025 105.963 19.3955 105.653C18.905 104.95 18.6823 104.674 18.3554 103.871C19.6255 101.87 21.1074 99.8969 22.5427 98.0144C23.2305 97.1119 23.8946 96.1307 24.5804 95.2519L26.9555 92.1594C27.392 91.5944 27.878 91.0282 28.2841 90.4469C27.1589 90.4238 26.0346 90.4863 24.9096 90.5025C20.4693 90.5669 15.2514 90.5788 11.36 88.13C10.5652 87.63 9.86517 87.0013 9.21461 86.3275C4.014 80.94 3.53284 68.0738 3.34342 60.862C3.24571 57.9274 3.21881 54.9909 3.26275 52.0551C3.33889 49.1809 3.47899 46.3086 3.68294 43.4406C3.75419 42.4364 3.67323 40.6982 4.17691 39.797C4.33079 39.5217 4.87261 39.6151 5.08552 39.8836C5.19021 40.0168 5.25486 40.177 5.27194 40.3455C5.33713 40.9459 5.34796 41.6512 5.37991 42.2621C5.824 50.7545 6.60029 59.2435 8.27567 67.5907C8.54554 68.935 9.02148 71.4532 9.65105 72.6288C10.2994 66.5119 11.5874 60.4928 12.5661 54.42C15.5 36.2151 20.8659 31.1341 27.5 24.5H28.5ZM12.0397 75.2594C12.1 75.5425 12.1382 75.9338 12.3412 76.07C12.5294 76.0044 12.7628 75.9369 12.9215 75.8275C12.7473 75.7044 12.6138 75.6313 12.491 75.4569L12.4275 75.33C12.2061 75.2125 12.3263 75.2513 12.0397 75.2594ZM119.323 117.272C119.289 116.208 119.057 113.513 118.831 112.521L118.803 112.593L118.747 112.599C118.386 111.859 118.247 111.361 118.267 110.531C118.276 110.169 118.33 109.771 118.03 109.543L117.911 109.609C117.77 109.87 117.782 109.744 117.801 109.991C118.065 110.361 118.179 110.601 117.859 111.009C117.715 110.921 117.731 110.804 117.669 110.584C117.604 110.983 117.763 111.021 117.682 111.263C117.327 110.786 117.624 108.256 116.9 107.826L116.772 107.871C116.73 108.274 116.919 108.811 116.882 109.211C116.826 109.843 117.074 109.711 117.18 110.121C116.993 110.53 116.978 110.584 116.957 111.032C117.058 112.848 117.469 115.434 117.659 117.301C117.708 117.789 117.835 119.218 117.942 119.639L117.949 119.666C118.113 119.801 119.272 119.784 119.583 119.789C119.541 119.024 119.451 118.312 119.359 117.552L119.323 117.272ZM40.7745 90.0519C40.6525 90.0957 40.492 90.125 40.4322 90.2094C40.2354 90.2813 39.8109 90.3563 39.5898 90.4019C39.9394 90.4463 40.7168 90.645 40.9009 90.2988L40.7745 90.0519ZM55.7783 38.3304C55.6922 37.8317 55.3328 37.6799 54.8515 37.6164C55.1358 37.9214 55.4434 38.0882 55.7783 38.3304ZM10.5936 75.2082C10.7224 74.5313 10.7658 74.2 10.051 73.895C10.199 74.3869 10.2924 74.7288 10.5124 75.1894L10.5936 75.2082ZM32.4497 111.647C32.2371 112.128 32.0349 112.565 31.8749 113.068C32.3074 113.41 32.6934 113.598 33.1364 113.892C34.4023 114.733 36.1744 115.721 37.7514 115.535C37.8716 115.52 37.9912 115.5 38.1097 115.476L38.2529 115.41C38.0754 115.114 37.4299 114.546 37.1536 114.281C37.2734 113.906 37.4251 113.468 37.525 113.093C36.0619 112.814 34.6802 112.493 33.2909 111.946C33.0378 111.846 32.7094 111.72 32.4497 111.647ZM94.3437 55.6214C94.4306 55.3199 94.5956 54.2047 94.3669 53.988L94.2312 54.1703C94.2581 54.6464 94.2756 55.1522 94.3437 55.6214ZM45.265 75.4638C46.0993 75.8157 47.2041 75.9682 47.8699 76.4957C48.6911 76.8157 49.4953 77.0482 50.3079 77.4007C49.8627 76.7582 48.4875 76.1813 47.7664 75.8432C46.9526 75.6775 46.3157 75.3257 45.4869 75.1463L45.418 75.125C44.8182 74.9319 44.6963 74.7057 44.0225 74.7325L43.973 74.7963C44.3863 75.1507 44.7637 75.0875 45.265 75.4638ZM66.3206 112.072C66.2312 112.299 66.2381 112.303 66.2175 112.535C66.5425 112.451 66.6456 112.437 66.9731 112.419L66.9894 112.384C66.7819 112.331 66.5737 112.279 66.3656 112.229L66.3206 112.072ZM37.9092 72.205C37.6162 72.1507 37.6781 72.1125 37.4984 72.2357C37.453 72.3932 37.5009 72.6107 37.5625 72.7563C37.7372 72.9657 37.6745 73.5244 37.9153 73.7444C38.15 73.4157 37.9827 72.585 37.9092 72.205ZM59.4612 40.3025C59.4152 40.1094 57.2872 38.7027 57.0098 38.5954C56.961 38.7449 56.9206 38.749 56.9865 38.8615C57.2117 39.246 59.0877 40.1607 59.4612 40.3025ZM44.3767 63.9169C44.1725 63.7213 43.827 63.4925 43.586 63.2788C43.1799 62.9182 42.8502 62.5582 42.4734 62.1683C41.5538 61.3165 40.7369 60.3802 39.9086 59.4442C39.541 59.0289 39.0425 58.402 38.6623 58.0313C38.424 57.6446 38.0658 57.2369 37.7593 56.9035L37.594 57.5667C37.5331 58.6905 37.387 59.8757 37.3474 60.9799L37.3723 61.1083C37.5142 61.5005 39.0364 62.2812 39.4916 62.5438C39.8202 62.8119 40.3622 62.9713 40.7436 63.2257C41.6023 63.6519 42.8796 64.3932 43.818 64.3563L44.3291 64.5875C44.8606 65.1207 45.1792 64.8507 45.6192 65.0357C46.1405 65.2544 46.015 65.3338 46.7228 65.5244L46.8192 65.3382C46.3074 65.1113 45.9204 64.9275 45.4292 64.6607L44.3767 63.9169ZM52.9479 48.7831C53.1172 48.5514 53.732 47.9174 53.9553 47.6745C53.0335 47.7205 52.4366 47.8704 51.5409 48.0735C50.883 48.09 49.9127 48.4312 49.2469 48.528L48.3324 48.7561C48.0643 48.807 47.4493 48.891 47.2656 49.0414C47.3843 49.188 47.3862 49.1772 47.4774 49.3432C47.3204 49.9737 47.0375 49.9333 47.4274 50.4925C47.6389 50.796 48.5487 52.3329 48.7719 52.4534C48.9433 52.726 49.0929 52.9299 49.2835 53.1851C49.511 52.9034 49.7723 52.6097 50.0099 52.3329C50.3198 52.0864 52.6102 49.2306 52.9479 48.7831ZM19.4613 107.764C20.0572 109.331 22.2562 112.176 23.8892 112.752L23.9229 112.764C24.0704 112.571 23.9753 112.235 24.0492 111.878C24.179 111.249 24.3792 110.832 24.6444 110.249C22.5129 108.845 22.1125 108.51 20.3502 106.671C20.0672 106.986 19.6578 107.407 19.4613 107.764ZM27.6976 115.129C27.9817 115.568 28.3625 116.121 28.6177 116.565C28.9331 115.576 29.1945 114.506 29.7295 113.607C30.4153 112.454 30.7435 112.474 31.1638 111.15C30.8244 110.946 30.7085 110.803 30.4925 110.469C30.5966 109.502 32.3585 106.013 32.2363 105.807C31.7517 106.205 31.4843 106.624 31.0536 107.121C29.9759 108.366 28.9663 109.929 27.72 110.992C27.3957 111.269 26.2281 110.958 25.7871 110.909C25.6475 111.219 25.3542 111.736 25.4928 112.029C25.9777 113.056 27.0145 114.195 27.6976 115.129ZM57.7337 45.226C58.4355 45.604 59.309 46.0525 59.9136 46.552C60.818 47.245 61.37 47.8906 62.2079 48.5955C63.3062 48.0002 64.6312 46.9882 64.9956 45.7352C65.1819 45.0955 65.3362 43.9092 64.9394 43.3524C64.4925 42.7259 63.5269 41.7607 62.7919 41.5537C62.635 42.2857 61.2863 44.1402 60.5369 44.1783C59.7418 43.9013 60.269 43.1218 60.5352 42.7035L59.9215 42.3879C59.1521 42.948 58.1664 44.37 57.7337 45.226ZM98.5781 27.6028C97.9044 29.5005 97.7269 30.2265 96.3694 31.7189C97.1344 32.5369 97.4312 33.205 97.9106 34.2297C98.1106 34.6568 98.2637 35.1005 98.5519 35.4707C98.9625 35.2332 99.4094 34.9909 99.78 34.7011C101.667 33.3761 103.092 31.8105 103.192 29.4298C101.869 28.2094 100.546 28.1374 99.2569 27.1897C99.0025 27.4109 98.9 27.4917 98.5781 27.6028ZM30.2083 91.0119C30.4269 90.9344 30.4835 90.9582 30.6002 90.805C30.4624 90.7113 30.4671 90.7213 30.2991 90.6994C30.0512 90.7819 30.0709 90.7332 29.9305 90.9032C30.0401 91.0332 29.976 90.9763 30.2083 91.0119ZM75.6481 60.2691C77.88 61.011 78.8937 60.962 81.0762 61.3308C81.2406 60.7074 81.6887 58.1607 81.73 57.5326L81.6944 57.4779C80.9719 57.4249 80.795 57.1531 80.255 56.7077C79.3731 55.9804 78.1706 54.7585 77.0394 54.4804C77.69 55.1627 78.9487 56.8949 76.93 56.708C75.3287 56.5599 73.5994 56.0206 72.0781 55.5062C72.0675 55.7595 72.0331 56.1714 72.0644 56.4146C72.3094 58.3317 73.99 59.5779 75.6481 60.2691ZM87.7994 27.996C88.1987 28.0621 89.2375 28.0024 89.3612 28.3362C89.6956 29.237 90.3794 32.1457 91.4856 32.332C93.7294 32.7098 95.8075 30.691 96.8031 28.8435C97.2306 28.1672 97.0912 27.4515 97.36 27.0016C97.7931 26.2772 98.7681 26.696 98.8087 25.3476C98.8287 24.6842 98.835 23.4968 98.2131 23.0615C97.6175 22.6379 96.7044 23.6151 96.33 23.6414C95.3769 23.7084 93.5544 23.7283 92.65 23.4498C91.3156 23.0387 90.435 23.0774 89.1162 22.9044C88.1075 21.7255 89.3625 21.6633 90.2144 21.703C89.3719 21.094 88.725 20.5312 88.1569 19.6478C88.1081 19.5717 88.12 19.5893 88.0625 19.5324C87.9981 20.3598 87.9225 21.5266 88.0281 22.3272C88.3512 24.775 89.04 25.7103 87.7994 27.996ZM62.9119 49.5942C63.0919 50.0527 63.0781 50.4492 63.0787 50.9325C64.0844 52.227 65.27 53.536 66.3562 54.765L71.7469 60.9167C72.5175 61.8062 73.6012 62.9375 74.28 63.8569C75.1519 63.385 77.0319 62.6288 77.6731 62.1341C75.2769 61.5247 73.8887 61.3485 72.0925 59.3567C70.9594 58.1 70.6331 56.8332 70.9681 55.1432C71.34 53.5325 73.5019 54.6352 74.4037 54.8782C74.8006 54.9582 75.1981 55.035 75.5956 55.1085C75.3087 54.9308 74.0219 54.246 74.745 53.7162C76.3812 52.542 78.2519 51.3582 80.0944 50.5253C80.3737 50.3989 80.7969 50.8547 80.7281 51.0545C80.4462 51.876 78.4162 52.8103 77.7112 53.3782C78.2069 53.651 78.9219 53.966 79.3594 54.2267C79.7387 53.9667 81.6525 52.7324 82.0006 52.8392C84.1394 53.4953 80.46 54.6759 80.4337 55.1866C80.415 55.549 81.6444 56.2503 82.1519 56.2602C82.4306 56.103 82.5737 55.9389 82.8212 55.7594C84.0962 55.7283 85.5669 56.062 86.8569 56.1114C83.3769 51.7324 79.8206 47.4143 76.19 43.159L73.8856 40.4479C73.6637 40.1845 72.9275 39.2746 72.7369 39.1226C72.1337 39.4023 71.5706 39.7731 71.0162 40.1389C69.4375 41.1798 67.7287 42.068 66.1825 43.1538C66.7087 44.2937 66.4406 45.3716 66.0637 46.5358C65.5525 48.1165 64.2156 48.7004 62.9119 49.5942Z" fill="#536FD4"/>
<path d="M27 27C27.8937 27.5003 32.1669 29.478 33.046 30.0056C33.3486 30.1957 33.5688 30.2962 33.8884 30.4457C34.0627 29.4724 34.1697 28.4972 34.3599 27.5335C33.845 27.2629 33.3777 27.0217 32.8926 26.695C32.6276 26.5166 28.7114 24.6426 28.5 24.5C28.2904 25.024 27.801 26.4387 27 27Z" fill="white"/>
<path d="M57.7337 45.226C58.4355 45.604 59.309 46.0525 59.9136 46.552C60.818 47.245 61.37 47.8906 62.2079 48.5955C63.3062 48.0002 64.6312 46.9882 64.9956 45.7352C65.1819 45.0955 65.3362 43.9092 64.9394 43.3524C64.4925 42.7259 63.5269 41.7607 62.7919 41.5537C62.635 42.2857 61.2863 44.1402 60.5369 44.1783C59.7418 43.9013 60.269 43.1218 60.5352 42.7035L59.9215 42.3879C59.1521 42.948 58.1664 44.37 57.7337 45.226Z" fill="white"/>
<path d="M62.9119 49.5942C63.0919 50.0527 63.0781 50.4492 63.0787 50.9325C64.0844 52.227 65.27 53.536 66.3562 54.765L71.7469 60.9167C72.5175 61.8062 73.6012 62.9375 74.28 63.8569C75.1519 63.385 77.0319 62.6288 77.6731 62.1341C75.2769 61.5247 73.8887 61.3485 72.0925 59.3567C70.9594 58.1 70.6331 56.8332 70.9681 55.1432C71.34 53.5325 73.5019 54.6352 74.4037 54.8782C74.8006 54.9582 75.1981 55.035 75.5956 55.1085C75.3087 54.9308 74.0219 54.246 74.745 53.7162C76.3812 52.542 78.2519 51.3582 80.0944 50.5253C80.3737 50.3989 80.7969 50.8547 80.7281 51.0545C80.4462 51.876 78.4162 52.8103 77.7112 53.3782C78.2069 53.651 78.9219 53.966 79.3594 54.2267C79.7387 53.9667 81.6525 52.7324 82.0006 52.8392C84.1394 53.4953 80.46 54.6759 80.4337 55.1866C80.415 55.549 81.6444 56.2503 82.1519 56.2602C82.4306 56.103 82.5737 55.9389 82.8212 55.7594C84.0962 55.7283 85.5669 56.062 86.8569 56.1114C83.3769 51.7324 79.8206 47.4143 76.19 43.159L73.8856 40.4479C73.6637 40.1845 72.9275 39.2746 72.7369 39.1226C72.1337 39.4023 71.5706 39.7731 71.0162 40.1389C69.4375 41.1798 67.7287 42.068 66.1825 43.1538C66.7087 44.2937 66.4406 45.3716 66.0637 46.5358C65.5525 48.1165 64.2156 48.7004 62.9119 49.5942Z" fill="white"/>
<path d="M98.5781 27.6028C97.9044 29.5005 97.7269 30.2265 96.3694 31.7189C97.1344 32.5369 97.4312 33.205 97.9106 34.2297C98.1106 34.6568 98.2637 35.1005 98.5519 35.4707C98.9625 35.2332 99.4094 34.9909 99.78 34.7011C101.667 33.3761 103.092 31.8105 103.192 29.4298C101.869 28.2094 100.546 28.1374 99.2569 27.1897C99.0025 27.4109 98.9 27.4917 98.5781 27.6028Z" fill="white"/>
<path d="M87.7994 27.996C88.1987 28.0621 89.2375 28.0024 89.3612 28.3362C89.6956 29.237 90.3794 32.1457 91.4856 32.332C93.7294 32.7098 95.8075 30.691 96.8031 28.8435C97.2306 28.1672 97.0912 27.4515 97.36 27.0016C97.7931 26.2772 98.7681 26.696 98.8087 25.3476C98.8287 24.6842 98.835 23.4968 98.2131 23.0615C97.6175 22.6379 96.7044 23.6151 96.33 23.6414C95.3769 23.7084 93.5544 23.7283 92.65 23.4498C91.3156 23.0387 90.435 23.0774 89.1162 22.9044C88.1075 21.7255 89.3625 21.6633 90.2144 21.703C89.3719 21.094 88.725 20.5312 88.1569 19.6478C88.1081 19.5717 88.12 19.5893 88.0625 19.5324C87.9981 20.3598 87.9225 21.5266 88.0281 22.3272C88.3512 24.775 89.04 25.7103 87.7994 27.996Z" fill="white"/>
<path d="M75.6481 60.2691C77.88 61.011 78.8937 60.962 81.0762 61.3308C81.2406 60.7074 81.6887 58.1607 81.73 57.5326L81.6944 57.4779C80.9719 57.4249 80.795 57.1531 80.255 56.7077C79.3731 55.9804 78.1706 54.7585 77.0394 54.4804C77.69 55.1627 78.9487 56.8949 76.93 56.708C75.3287 56.5599 73.5994 56.0206 72.0781 55.5062C72.0675 55.7595 72.0331 56.1714 72.0644 56.4146C72.3094 58.3317 73.99 59.5779 75.6481 60.2691Z" fill="white"/>
<path d="M95.2156 66.8749C95.57 66.8656 96.0213 66.9762 96.3738 67.0612C96.065 67.0912 94.0081 67.3006 93.8481 67.2574L93.85 67.12C94.2125 67.0262 94.8138 66.9506 95.2156 66.8749Z" fill="#FBF8F4"/>
<path d="M25.5068 28.0521C27.1082 28.7049 28.6996 29.3817 30.2805 30.0826C31.9917 30.8517 32.7352 31.139 34.0803 32.4892C33.7457 32.8936 33.1673 33.388 32.7824 33.7851C31.5934 35.0201 30.7396 36.5385 30.3022 38.1961C29.6257 40.6593 29.6088 44.0197 30.648 46.3931C31.7809 48.9801 33.805 51.6092 35.4946 53.8694C35.8521 54.3476 36.2178 54.7737 36.5088 55.2912L36.5543 55.3732C36.3725 56.4259 36.2819 57.6024 36.1706 58.6736C35.9255 61.0317 35.7593 63.47 35.766 65.8419C35.7908 67.3112 35.9004 68.78 36.0144 70.2456C36.1068 71.4319 36.1209 72.6888 36.3189 73.8606C35.2102 74.325 33.7696 74.6231 32.6017 74.9106C30.629 75.3956 28.6336 75.835 26.629 76.17C24.3403 76.4912 23.4285 76.64 21.0932 76.4831C17.7974 76.2612 15.7547 75.4812 12.8798 73.975C12.4026 73.7244 11.4368 73.3469 11.1044 72.9531C11.0481 72.7344 11.0496 72.53 11.069 72.305C11.178 71.04 11.42 69.785 11.598 68.5287C11.8214 66.9531 11.998 65.3712 12.2229 63.7956C12.5108 61.7794 12.9124 59.7817 13.2895 57.7807C14.9259 49.0988 17.842 36.424 23.7641 29.7901C24.304 29.1853 24.8563 28.5397 25.5068 28.0521Z" fill="#BACAF3"/>
<path d="M41.2992 112.05C39.7774 112.319 36.4477 111.57 34.875 111.084C34.0566 110.831 32.9203 110.357 31.993 110.061C31.9795 109.866 31.9469 109.945 32.0576 109.808C32.1978 109.901 32.2153 109.908 32.3716 109.972C32.5352 109.888 32.4635 109.947 32.5525 109.747L32.4925 109.622C32.311 109.539 32.3349 109.577 32.2084 109.444C32.6915 108.157 33.4047 106.717 33.9866 105.448C36.0783 100.886 38.5127 96.4 41.3665 92.2688C41.9152 91.4744 42.4942 90.6269 43.2275 89.9938C43.532 89.7325 44.1189 89.7763 44.2711 89.29C44.6015 88.235 43.4679 87.8725 42.6875 87.6306C38.3761 86.7175 33.8758 86.655 29.5015 86.1819C26.2175 85.8269 22.8513 85.6031 19.7517 84.3669C16.8694 83.2181 13.8296 80.6963 12.2275 78.0338C12.0519 77.7419 11.9558 75.4756 12.0854 75.1562L12.1443 75.1594L12.0397 75.2594C12.1001 75.5425 12.1383 75.9337 12.3413 76.07C12.5294 76.0044 12.7628 75.9369 12.9215 75.8275C12.7473 75.7044 12.6138 75.6313 12.491 75.4569C12.7215 75.3819 13.8533 75.9569 14.1405 76.0944C21.0241 79.3838 28.8828 77.405 35.829 75.3969C37.2606 74.825 39.1324 75.5831 40.6046 75.9294C43.1962 76.5394 54.871 79.3625 55.1698 82.1619C55.5905 86.1019 50.821 94.3469 48.9131 98.0394L44.6858 106.058C43.628 108.018 42.4708 110.162 41.2992 112.05Z" fill="#6881DB"/>
<path d="M95.4787 68.3937C95.5594 68.3594 95.5106 68.3681 95.6275 68.4C95.1144 70.8156 95.9681 72.0319 97.29 73.9606C98.6669 75.9712 100.022 77.2325 102.252 78.31C104.718 79.5169 107.471 80.0137 110.203 79.7456C111.567 79.6012 113.071 79.1925 114.422 78.9094C116.396 78.4962 118.341 77.7569 120.247 77.0962C120.018 78.1756 119.656 79.6319 119.344 80.6831C119.182 81.2294 117.881 81.9694 117.358 82.2294C111.754 85.0187 105.091 83.2575 99.1256 83.0812C96.4069 83.0394 93.8987 83.3787 91.1912 83.6512C88.6175 83.9094 87.4406 83.8294 88.8412 86.9112C89.775 88.9669 91.9125 89.4262 93.8887 90.0487C93.5319 94.1387 93.2381 98.1275 92.8412 102.236C92.5537 104.606 92.3525 107.1 92.0725 109.508C90.6206 110.199 89.2319 110.896 87.8112 111.644C85.3787 112.924 82.7419 113.989 80.1281 114.846C80.725 114.272 81.7494 113.061 82.2731 112.391C83.4269 110.912 85.5594 108.919 86.0894 107.172C85.6537 104.895 84.675 102.435 83.9031 100.223C82.5875 96.4187 81.2244 92.6312 79.8131 88.8612C79.3537 87.6312 78.9306 86.3981 78.5075 85.1562C78.05 83.8119 77.605 82.5587 77.34 81.1594C77.0662 79.7137 77.1794 78.3694 78.0369 77.1319C80.4125 73.7056 91.3075 69.1606 95.4787 68.3937Z" fill="#8497E4"/>
<path d="M103.997 32.2061C105.766 32.6121 107.27 33.1476 108.499 34.5511C111.824 38.3484 113.488 43.6899 114.897 48.4309C115.803 51.4518 116.626 54.4971 117.365 57.5633C118.153 60.6472 118.895 63.7425 119.591 66.8487L120.874 72.8012C121.023 73.4794 121.155 74.4412 121.36 75.0694C118.491 76.6087 112.039 78.2856 108.731 78.4406C107.382 78.4556 105.997 78.1819 104.717 77.815C101.319 76.8394 98.9106 74.4619 97.3225 71.3844C96.3363 69.4731 96.9019 68.5194 97.95 66.8431C100.676 66.2519 102.471 62.0466 103.454 59.7362C104.923 56.2826 106.198 52.7479 107.199 49.1133C107.998 46.217 108.988 42.6641 108.382 39.6499C108.087 38.1844 107.331 36.5607 106.026 35.763C103.509 34.2179 101.75 36.1479 100.546 38.1775C99.1906 40.463 98.4163 42.6606 97.5581 45.1484C96.7331 47.5372 95.975 49.9486 95.2844 52.3798C95.0269 53.2794 94.7156 55.4651 94.36 56.1331C94.2606 56.0217 94.3088 55.7668 94.3438 55.6213C94.4306 55.3199 94.5956 54.2047 94.3669 53.9879L94.2313 54.1702C94.1238 53.7326 94.1313 53.2613 94.1138 52.8143C93.9056 47.4821 94.9056 41.4144 97.6719 36.7852C99.7269 37.1594 103.165 33.8823 103.997 32.2061Z" fill="#CED7F7"/>
<path d="M35.0134 33.6058C35.6194 33.8396 40.5079 42.053 41.3041 43.3486C42.9945 46.1181 44.7454 48.8501 46.5557 51.5428C47.7464 53.3411 49.1091 55.441 50.3401 57.245C50.6894 57.757 51.2464 57.2542 51.5422 56.9049C51.1669 55.977 50.5326 55.2356 50.1569 54.3644C50.8417 53.3783 56.1447 46.9538 56.9643 46.4023C58.4943 46.8886 60.8379 48.9878 61.9334 50.179C61.2541 51.3665 60.6022 52.656 59.9439 53.8662C58.0812 57.1605 55.7454 60.6998 52.9207 63.2706C51.8457 64.2493 50.647 64.6912 49.1825 64.5718C45.9089 64.3056 42.1902 59.9193 40.1922 57.5646C37.8692 54.8271 33.1312 48.9661 31.9321 45.7826C31.3193 44.1526 31.082 42.4055 31.2378 40.6712C31.5059 37.5433 32.6805 35.5692 35.0134 33.6058Z" fill="#BACAF3"/>
<path d="M103.902 36.5673C104.799 36.4582 105.625 37.0611 106.109 37.7675C108.176 40.7821 106.804 45.762 105.879 48.9975C104.915 52.2736 103.757 55.4896 102.411 58.6283C101.69 60.3248 99.6544 65.4181 97.3269 65.5906C96.2381 65.6712 93.4481 65.1231 92.2294 64.9268L85.1381 63.8224C84.5244 63.6918 82.6825 63.4381 82.34 63.0649C82.1306 62.1934 82.9856 58.1544 83.1506 57.0143C85.6256 57.1229 88.3625 57.5883 90.8594 57.788C91.6375 57.8884 92.7237 57.9325 93.4662 58.0924C93.8925 58.1841 93.4719 59.2704 94.6875 59.0544C94.9081 58.9078 95.0669 58.5483 95.1381 58.2978C96.8219 52.3711 98.2644 46.289 100.773 40.6425C101.446 39.1297 102.37 37.3146 103.902 36.5673Z" fill="#CED7F7"/>
<path d="M69.5119 54.7742C69.155 54.5956 68.9032 54.4203 68.9057 54.0013C69.2082 53.3971 74.3307 50.5068 75.26 49.9309C76.1475 49.3807 77.4569 48.4877 78.4425 48.1536C78.6825 48.1088 79.0357 48.7841 78.9157 48.9186C78.0488 49.8881 76.2519 50.6982 75.2 51.4087C74.5663 51.7243 73.6069 52.3445 72.9907 52.7337C72.8994 52.7892 72.4913 53.0266 72.4307 53.0755C71.4138 53.75 70.5863 54.2003 69.5119 54.7742Z" fill="#536FD4"/>
<path d="M74.36 43.802C74.7725 43.811 75.1187 44.0961 75.1306 44.5161C74.9312 44.8922 66.6287 49.9432 65.5912 50.5149C65.2056 50.5381 64.8381 50.0731 64.8744 49.7117C65.2581 49.1264 73.14 44.5232 74.36 43.802Z" fill="#536FD4"/>
<path d="M76.1668 46.0002C76.6356 45.9865 76.9662 46.2928 76.9181 46.7641C76.4581 47.5629 70.4031 50.7279 69.2681 51.6096C69.0287 51.7959 67.915 52.4239 67.6343 52.5513C67.2337 52.5482 66.9287 52.2077 66.9631 51.8091C67.0393 51.6374 67.1275 51.5446 67.2862 51.44C70.1775 49.5394 73.2562 47.8589 76.1668 46.0002Z" fill="#536FD4"/>
<path d="M72.9906 52.7338C73.2575 53.0056 73.37 53.0145 73.7531 53.052C74.1762 52.9346 75.2156 50.9762 75.88 51.7963C75.8756 51.9891 75.6894 52.142 75.5844 52.3169L75.5325 52.4039L75.1856 52.4704C75.3444 52.3561 75.4619 52.3013 75.53 52.1216C75.1806 51.8888 74.4194 52.5746 74.2069 52.8409L74.1831 52.9759L74.3225 53.0531L73.9725 53.7019C73.5244 53.7239 73.2525 53.8054 72.82 53.9301C72.7 53.6095 72.6456 53.3381 72.4306 53.0755C72.4912 53.0266 72.8994 52.7893 72.9906 52.7338ZM73.54 53.5258L73.5781 53.3469C73.4281 53.1524 73.065 53.0355 72.8306 52.9141C72.7319 53.1377 72.76 53.0608 72.8056 53.3405C72.9331 53.5135 72.9194 53.5061 73.1194 53.5825L73.54 53.5258Z" fill="#FBF8F4" fill-opacity="0.294118"/>
<path d="M72.8306 52.9141C73.065 53.0355 73.4281 53.1524 73.5781 53.3469L73.54 53.5258L73.1194 53.5825C72.9194 53.5061 72.9331 53.5135 72.8056 53.3405C72.76 53.0607 72.7319 53.1377 72.8306 52.9141Z" fill="#FBF8F4" fill-opacity="0.384314"/>
<path d="M75.2 51.4087C75.6131 51.3589 75.7956 51.3208 76.1312 51.5717C76.2737 51.9166 75.81 52.2671 75.5325 52.4039L75.5844 52.3169C75.6894 52.142 75.8756 51.9891 75.88 51.7962C75.2156 50.9762 74.1762 52.9346 73.7531 53.052C73.37 53.0145 73.2575 53.0056 72.9906 52.7337C73.6069 52.3445 74.5662 51.7243 75.2 51.4087Z" fill="#FBF8F4" fill-opacity="0.0901961"/>
<path d="M74.3225 53.0532L74.1831 52.9759L74.2069 52.841C74.4194 52.5747 75.1806 51.8888 75.53 52.1217C75.4619 52.3013 75.3444 52.3562 75.1856 52.4704C74.8844 52.5919 74.5875 52.8504 74.3225 53.0532Z" fill="#FBF8F4" fill-opacity="0.396078"/>
<path d="M62.3423 52.1505C62.9488 53.0288 64.4894 54.6485 65.2525 55.5144L70.8269 61.8364C71.3719 62.4496 73.625 65.1506 74.0444 65.4243C75.3331 64.99 78.7094 63.1906 79.7619 62.4566C80.2487 62.5275 80.5775 62.5637 81.0681 62.5893C81.0637 63.1456 81.0206 63.5231 81.4494 63.9593C81.9094 64.4281 83.0031 64.6437 83.6588 64.8206C81.8075 65.3787 79.7906 66.0212 77.9069 66.4349C68.3644 68.4468 58.4997 68.365 48.9922 66.195L49.1443 66.0218C50.9823 66.0043 52.1286 65.6806 53.5737 64.4787C56.2157 62.2806 58.053 59.4339 59.9147 56.5871C60.8684 55.1288 61.5343 53.6691 62.3423 52.1505Z" fill="#CED7F7"/>
<path d="M40.7745 90.0519L41.0967 90.0781C41.133 90.1581 41.1738 90.2263 41.1008 90.3181C38.7925 93.2244 37.1468 96.5225 35.2228 99.6694C34.029 101.621 32.3266 103.481 30.8745 105.245C29.618 106.737 28.4873 108.291 27.0965 109.703L26.6623 109.593C24.6535 109.081 21.063 105.93 19.9858 104.08L19.939 103.998C21.9353 100.916 24.4821 97.5494 26.754 94.6194L28.8878 91.875C29.2122 91.46 29.696 90.9044 29.9777 90.4831C33.3548 90.4088 36.7373 90.2119 40.1149 90.1125C40.3096 90.1069 40.285 90.1131 40.4322 90.2094C40.2355 90.2813 39.8109 90.3563 39.5898 90.4019C39.9394 90.4463 40.7168 90.645 40.901 90.2988L40.7745 90.0519ZM30.2083 91.0119C30.427 90.9344 30.4835 90.9581 30.6002 90.805C30.4624 90.7113 30.4672 90.7213 30.2992 90.6994C30.0512 90.7819 30.071 90.7331 29.9306 90.9031C30.0402 91.0331 29.976 90.9763 30.2083 91.0119Z" fill="#6881DB"/>
<path d="M30.2991 90.6993C30.4671 90.7212 30.4624 90.7112 30.6002 90.805C30.4835 90.9581 30.4269 90.9343 30.2083 91.0118C29.976 90.9762 30.0401 91.0331 29.9305 90.9031C30.0709 90.7331 30.0512 90.7818 30.2991 90.6993Z" fill="#D7D9EB" fill-opacity="0.486275"/>
<path d="M95.2631 12.2062C98.6087 12.116 100.582 12.6035 102.805 15.1705C105.182 17.9152 104.081 21.0087 105.766 23.9016C106.707 25.519 109.511 26.0857 109.93 28.3172C110.292 30.1366 109.841 31.5394 108.927 33.0338C107.798 32.0695 105.812 31.3014 104.375 30.9875C104.677 28.8568 104.63 28.2248 102.461 27.3324C102.093 27.1811 101.631 26.9434 101.279 26.7551C100.833 26.5174 100.393 26.267 99.9606 26.004C100.022 25.7685 100.068 25.5294 100.1 25.2882C100.21 24.3873 99.9825 23.1756 99.3725 22.4801C98.0962 21.025 96.9775 22.1827 95.6306 22.0447C93.375 21.8134 91.1719 20.8512 89.6237 19.1809C88.9556 18.4607 88.5781 17.767 88.015 17.0946L87.9662 17.0369C87.68 17.1453 87.55 17.1731 87.3487 17.4037C86.6437 18.21 86.4894 20.8339 86.6206 21.8456C85.9381 21.1242 85.4737 20.585 85.2931 19.6284C84.7919 16.9752 86.815 16.1972 88.7675 15.2901C89.0919 15.1396 90.1456 14.2799 90.5025 14.0174C91.9975 12.9182 93.5069 12.5939 95.2631 12.2062Z" fill="#8497E4"/>
<path d="M76.865 115.989C76.545 116.973 75.7275 117.619 74.7831 118.024C68.3444 120.785 60.2804 120.65 53.6433 118.669C52.6823 118.383 48.8255 116.776 50.0016 115.3C51.886 112.937 57.6666 111.899 60.5459 112.01C60.5095 113.971 62.0458 114.161 63.6562 114.126C64.7087 114.103 66.1337 113.823 66.2175 112.535C66.5425 112.451 66.6456 112.437 66.9731 112.419L66.9894 112.384C66.7819 112.331 66.5737 112.279 66.3656 112.229L66.3206 112.072C66.6294 111.997 67.7112 112.162 68.065 112.213C70.5981 112.581 73.3375 113.051 75.5569 114.386C76.3781 114.88 76.5256 115.075 76.865 115.989Z" fill="#CED7F7"/>
<path d="M120.68 81.2412C120.786 81.3518 120.757 86.1662 120.791 86.7637C115.791 91.2468 97.0125 90.89 91.4362 87.6793C90.3131 86.9531 90.0225 86.4618 89.6594 85.2081C90.235 85.0762 92.0256 84.8881 92.675 84.8375C94.4925 84.6962 96.9969 84.3606 98.7912 84.4275C103.569 84.6043 108.811 85.6643 113.561 84.8543C116.124 84.4168 119.133 83.4612 120.68 81.2412Z" fill="#8497E4"/>
<path d="M4.56821 51.8516C4.77861 52.7234 4.82198 53.6581 4.92331 54.5537L5.45382 59.1275C5.68011 60.8913 5.95724 62.6481 6.28486 64.3962C6.99117 68.3824 7.95111 72.9393 9.6668 76.6306C11.5639 80.7118 15.4611 84.2074 19.6346 85.8356C23.0634 87.1731 26.7591 87.2637 30.3905 87.6093L39.9887 88.5874L39.7665 88.7181C38.8233 88.6374 36.0746 88.8856 34.9555 88.9249L26.5216 89.1418C25.131 89.1656 23.3988 89.2449 22.0444 89.1843C18.0324 89.0043 13.0099 88.5581 10.1587 85.3881C9.08279 84.1918 8.02242 82.5374 7.48592 81.0306C5.89985 76.5743 5.28807 71.5518 5.00166 66.8468C4.9277 65.6318 4.73773 64.3068 4.69488 63.1156C4.56205 59.4251 4.47704 55.5447 4.56821 51.8516Z" fill="#8497E4"/>
<path d="M61.8798 72.7506C62.9131 72.7499 63.8963 72.7518 64.9281 72.7956C64.8888 74.1131 64.9256 75.5418 64.9294 76.8731L64.9381 83.7924V106.149C64.9363 107.827 64.9531 110.607 64.9088 112.403C64.8713 112.464 64.8338 112.524 64.7963 112.585C63.9869 112.851 62.7556 112.771 61.9294 112.529C61.8435 110.589 61.8766 108.478 61.876 106.529L61.8916 96.6537L61.8798 72.7506Z" fill="#CED7F7"/>
<path d="M37.167 62.84C37.8351 63.13 38.4183 63.6143 39.0518 63.9743C40.2888 64.6781 41.608 65.2506 42.9343 65.7612C45.6522 66.8081 48.5934 67.6693 51.4589 68.2056C61.6868 70.1193 76.2694 69.5731 85.8469 65.3106C86.8619 65.5518 88.8107 65.7975 89.91 65.9681C89.5932 66.13 89.2369 66.2912 88.9132 66.4462C85.7982 67.825 82.5657 68.9206 79.2544 69.72C69.0538 72.285 56.4071 71.8843 46.2817 69.09C43.2213 68.2456 39.8452 66.5962 37.1315 64.9756C37.145 64.2581 37.1116 63.56 37.167 62.84Z" fill="#8497E4"/>
<path d="M90.4475 23.572L91.1437 23.6483C91.4425 24.396 91.76 25.1821 91.0475 25.7751C90.1419 25.9052 89.9425 24.2458 90.4475 23.572Z" fill="#536FD4"/>
<path d="M92.0631 28.5591C93.06 28.8351 92.6131 29.8185 91.85 30.0094C90.6906 29.6533 91.4556 28.9393 92.0631 28.5591Z" fill="#536FD4"/>
<path d="M95.3019 90.4769L96.6769 90.7126C96.9131 91.9969 96.3144 96.4101 96.1481 97.8926L95.3562 105.434L94.5056 114.525C94.3662 115.947 94.2338 117.848 93.9794 119.2C93.61 118.858 93.3894 118.963 92.8725 118.855C92.8156 118.844 92.7112 118.991 92.56 118.931C92.6081 117.393 92.8963 115.456 93.0406 113.892L94.2363 101.63C94.4225 99.6713 94.6025 97.6938 94.7856 95.7357C94.9156 94.3438 94.9881 91.7863 95.3019 90.4769Z" fill="#CED7F7"/>
<path d="M18.1764 108.296C18.489 108.54 19.0718 109.888 19.3669 110.317C20.5692 112.064 22.215 114.134 24.5104 114.189C24.6888 114.048 24.8722 113.886 25.0468 113.739C25.7919 114.711 26.5138 115.989 27.2311 117.006C27.9473 118.021 28.5937 118.543 29.1321 119.674C28.5685 119.629 28.1851 119.541 27.6578 119.362C24.4184 118.326 22.0143 116.577 19.3612 114.533C17.8785 113.391 17.1643 112.849 15.8914 111.457C16.3459 110.301 17.3099 109.167 18.1764 108.296Z" fill="#8497E4"/>
<path d="M30.9253 114.131C32.3043 114.771 33.4876 115.886 34.9622 116.388C36.3053 116.846 38.4223 117.305 39.47 116.024C40.682 116.819 42.2548 117.415 43.5198 118.151C44.0649 118.469 45.5344 119.008 45.6468 119.632C45.5052 119.796 45.5558 119.744 45.2972 119.8C43.5992 120.386 36.7403 119.304 34.762 119.009C33.6047 118.836 30.8998 118.147 29.78 117.709C30.0195 116.186 30.321 115.5 30.9253 114.131Z" fill="#8497E4"/>
<path d="M114.654 90.7513C115.323 90.5506 115.988 90.4363 116.653 90.2494C116.704 92.1738 117.075 95.0313 117.281 96.9813L118.431 108.289C118.549 109.528 118.794 111.328 118.831 112.521L118.803 112.593L118.747 112.599C118.386 111.859 118.247 111.361 118.267 110.531C118.276 110.169 118.33 109.771 118.03 109.543L117.911 109.609C117.77 109.87 117.782 109.744 117.801 109.991C118.065 110.361 118.179 110.601 117.859 111.009C117.715 110.921 117.731 110.804 117.669 110.584C117.604 110.983 117.763 111.021 117.682 111.263C117.327 110.786 117.624 108.256 116.9 107.826L116.772 107.871C116.73 108.274 116.919 108.811 116.882 109.211C116.826 109.843 117.074 109.711 117.18 110.121C116.993 110.53 116.978 110.584 116.957 111.032C116.735 109.352 116.596 107.523 116.417 105.823L115.522 97.5156C115.371 95.995 115.2 94.4763 115.011 92.9594C114.929 92.3256 114.826 91.3313 114.654 90.7513Z" fill="#CED7F7"/>
<path d="M92.6856 51.1356C92.7969 51.2494 92.8056 53.9738 92.8312 54.3744C92.8844 55.2091 93.025 56.0742 93.1112 56.8974C91.5262 56.3918 89.7544 56.4994 88.6287 56.1022L88.0775 55.4732C87.4537 54.702 86.7587 53.9744 86.1675 53.1882C88.2312 52.642 90.6619 51.8416 92.6856 51.1356Z" fill="#CED7F7"/>
<path d="M91.6644 113.939L91.715 113.982C91.5069 115.406 91.39 116.862 91.1588 118.267C90.5119 118.522 89.5188 118.669 88.8163 118.822C87.7457 119.057 86.4931 119.402 85.4044 119.52L85.3663 119.489C85.4269 118.952 90.8981 114.622 91.6644 113.939Z" fill="#8497E4"/>
<path d="M52.1734 48.5633C52.4116 48.5569 52.4897 48.648 52.6859 48.7891L52.9479 48.7831C52.6102 49.2306 50.3198 52.0863 50.0099 52.3329C49.5989 51.8332 49.321 52.2484 48.7719 52.4533C48.5487 52.3328 47.6389 50.7959 47.4274 50.4924C47.0375 49.9332 47.3204 49.9736 47.4774 49.3432C47.3862 49.1771 47.3843 49.1879 47.2656 49.0413C47.4493 48.891 48.0643 48.8069 48.3324 48.7561C49.0874 49.0455 49.6095 49.0916 50.404 49.2249C50.6337 49.1023 50.8185 48.9812 51.0849 48.9606C51.4104 48.9353 51.8654 49.0006 52.0482 48.6827L52.1734 48.5633Z" fill="#D0D6F0" fill-opacity="0.807843"/>
<path d="M116.957 111.032C116.978 110.584 116.993 110.53 117.18 110.121C117.074 109.711 116.826 109.843 116.882 109.211C116.919 108.811 116.73 108.274 116.772 107.871L116.9 107.826C117.624 108.256 117.327 110.786 117.682 111.263C117.763 111.021 117.604 110.983 117.669 110.584C117.731 110.804 117.715 110.921 117.859 111.009C118.179 110.601 118.065 110.361 117.801 109.991C117.782 109.744 117.77 109.87 117.911 109.609L118.03 109.543C118.33 109.771 118.276 110.169 118.267 110.531C118.247 111.361 118.386 111.859 118.747 112.599L118.803 112.593L118.831 112.521C119.057 113.513 119.289 116.208 119.323 117.272C119.107 117.159 119.079 117.193 119.018 116.971C118.857 116.376 118.951 114.996 118.701 114.506C118.746 115.18 118.951 116.692 118.79 117.206C118.586 117.268 118.549 117.229 118.322 117.186C117.816 117.399 118.167 117.956 117.996 118.386L117.919 118.423C117.64 117.991 118.119 117.294 118.154 116.858C118.199 116.301 118.05 115.564 117.966 115.005C117.904 115.184 117.831 116.796 117.712 117.083C117.658 117.214 117.661 117.161 117.659 117.301C117.469 115.434 117.058 112.848 116.957 111.032Z" fill="#CED7F7" fill-opacity="0.784314"/>
<path d="M98.7163 112.687C98.9556 112.776 99.5225 115.147 99.4425 115.311C99.0719 116.066 97.0806 116.618 96.3656 116.883L95.6113 117.08C95.7406 116.203 95.8213 114.784 95.9056 113.849C95.9263 113.846 95.9463 113.842 95.9663 113.838L96.0669 113.816C96.9194 113.642 97.8875 113.063 98.7163 112.687Z" fill="#8497E4"/>
<path d="M38.4036 72C39.9487 72.4639 49.0314 75.4857 49.8795 76.2396C48.9321 76.0466 48.1905 75.6365 47.2256 75.4275L47.1454 75.4027C46.4471 75.1777 46.3052 74.914 45.5209 74.9453L45.4632 75.0196C45.9443 75.4326 46.3837 75.359 46.9673 75.7975C47.9386 76.2075 49.2249 76.3852 50 76.9999C49.7232 77.0058 48.604 76.6372 48.2874 76.5302C44.9486 75.3954 41.5383 74.6788 38.1177 73.8441C38.0423 73.3729 38.0183 73.1194 38 72.6424C38.2034 72.8864 38.1305 73.5375 38.4107 73.7939C38.684 73.4108 38.4893 72.4428 38.4036 72Z" fill="#6881DB"/>
<path d="M82.4075 48.6716C82.9887 48.7031 83.5787 48.9946 84.1368 49.0917C86.0087 49.4171 88.1093 50.3173 89.9468 50.5791C89.6256 50.6973 89.2087 50.8141 88.8737 50.9168C87.8556 51.3587 86.3493 51.7596 85.2506 51.9484C84.9381 51.6513 84.34 50.9339 84.0443 50.5861C83.5468 50.0005 82.8437 49.2743 82.4075 48.6716Z" fill="#CED7F7"/>
<path d="M97.4594 98.0038C97.6363 98.3475 98.575 105.434 98.6419 106.261C98.2425 106.556 97.8675 106.753 97.4338 106.993C97.1169 107.144 96.8344 107.321 96.5331 107.501C96.7619 106.506 96.8519 105.026 96.9494 103.984C97.14 101.993 97.31 99.9988 97.4594 98.0038Z" fill="#8497E4"/>
<path d="M97.3912 108.418L97.4193 108.424C97.555 108.558 97.5787 109.012 97.6318 109.236C97.8093 109.977 97.9962 110.716 98.1825 111.456C97.5881 111.847 97.1356 112.057 96.4818 112.324L95.97 112.509C96.1056 111.312 96.145 110.185 96.275 109.011C96.7262 108.831 96.9731 108.672 97.3912 108.418Z" fill="#CED7F7"/>
<path d="M37.7444 58.1747C37.9954 58.2131 38.0761 58.1991 38.3286 58.1565C38.5883 58.2571 39.2238 59.344 39.4451 59.5598C39.8602 59.9647 41.8239 62.2775 42.2154 62.4047C42.3585 62.3352 42.3696 62.2946 42.4734 62.1683C42.8502 62.5582 43.1799 62.9182 43.5861 63.2788C43.8271 63.4926 44.1726 63.7213 44.3768 63.9169C44.0308 63.8126 43.7431 63.6219 43.4284 63.4394C43.4654 63.7363 43.4675 64.0026 43.6171 64.2532L43.8181 64.3563C42.8796 64.3932 41.6023 63.6519 40.7436 63.2257L40.6108 63.0038L41.3136 63.0044C41.5109 63.0013 41.5403 63.0107 41.7329 62.9513C41.6552 62.8951 41.7041 62.9213 41.5783 62.8782C41.5839 62.8013 41.6077 62.483 41.578 62.44C40.7534 61.2459 39.4721 60.2324 38.6951 58.9643C38.5586 58.7416 38.586 58.7557 38.4151 58.5366C38.1986 58.4053 38.2181 58.4569 37.9028 58.4832C37.7298 58.3609 37.8013 58.4442 37.7444 58.1747Z" fill="#D0D6F0" fill-opacity="0.431373"/>
<path d="M37.6945 58.0422L37.7444 58.1747C37.8013 58.4442 37.7298 58.3609 37.9027 58.4832C38.218 58.4569 38.1985 58.4053 38.415 58.5366C38.5176 58.8261 38.845 59.5647 38.6533 59.8509C38.4869 60.0994 38.5083 60.0187 38.4782 60.3281C38.6621 60.8777 40.5692 61.8299 41.193 62.2539C41.2423 62.5144 41.2859 62.7382 41.3135 63.0044L40.6107 63.0038C40.257 62.6475 39.7528 62.6494 39.6993 62.2399L39.7498 62.1887C39.5539 61.9585 38.0887 61.162 37.7452 61.0378L37.5632 61.1541L37.3723 61.1083L37.3474 60.9799C37.6219 60.9757 37.9767 60.8725 38.2518 60.8067C37.9655 59.6899 38.6178 59.59 38.2598 58.7956L38.1528 58.7875C38.0226 58.9414 38.0222 58.952 37.8583 59.064C37.6344 58.7907 37.6938 58.4146 37.6945 58.0422Z" fill="#D0D6F0" fill-opacity="0.6"/>
<path d="M117.659 117.301C117.661 117.161 117.658 117.214 117.712 117.082C117.831 116.796 117.904 115.184 117.966 115.005C118.05 115.564 118.199 116.301 118.154 116.857C118.119 117.294 117.64 117.991 117.919 118.423L117.996 118.386C118.168 117.956 117.816 117.399 118.322 117.186C118.549 117.229 118.586 117.268 118.79 117.206C118.951 116.692 118.746 115.18 118.701 114.506C118.951 114.996 118.857 116.376 119.018 116.971C119.079 117.193 119.108 117.159 119.323 117.272L119.359 117.552C119.187 117.821 119.083 117.886 118.838 118.089C118.789 119.604 117.941 118.414 117.942 119.639C117.835 119.217 117.708 117.789 117.659 117.301Z" fill="#CED7F7" fill-opacity="0.572549"/>
<path d="M38.415 58.5366C38.586 58.7557 38.5585 58.7416 38.695 58.9643C39.472 60.2324 40.7534 61.2459 41.578 62.44C41.6077 62.483 41.5839 62.8013 41.5783 62.8782C41.704 62.9213 41.6552 62.8951 41.7329 62.9513C41.5403 63.0107 41.5109 63.0013 41.3135 63.0044C41.2859 62.7382 41.2424 62.5144 41.193 62.2539C40.5692 61.8299 38.6621 60.8777 38.4782 60.3281C38.5083 60.0187 38.4869 60.0994 38.6534 59.8509C38.845 59.5647 38.5176 58.8261 38.415 58.5366Z" fill="#D0D6F0" fill-opacity="0.501961"/>
<path d="M37.5941 57.5667C37.7298 57.8478 37.661 57.8121 37.8873 57.9466C38.0136 57.952 38.1921 57.9652 38.3134 57.9431C38.5053 57.9082 38.5341 58.0046 38.6623 58.0312C39.0426 58.402 39.5411 59.0288 39.9086 59.4441C40.7369 60.3801 41.5538 61.3165 42.4734 62.1682C42.3696 62.2945 42.3585 62.3351 42.2154 62.4046C41.8239 62.2774 39.8602 59.9646 39.4451 59.5597C39.2238 59.3439 38.5882 58.257 38.3286 58.1564C38.0761 58.199 37.9954 58.213 37.7444 58.1746L37.6945 58.0421C37.6516 57.922 37.6191 57.7002 37.5941 57.5667Z" fill="#D0D6F0" fill-opacity="0.25098"/>
<path d="M37.3474 60.9798C37.387 59.8756 37.5331 58.6904 37.594 57.5667C37.619 57.7002 37.6515 57.922 37.6945 58.0421C37.6938 58.4145 37.6344 58.7906 37.8583 59.064C38.0222 58.9519 38.0226 58.9413 38.1528 58.7874L38.2598 58.7955C38.6178 59.5899 37.9655 59.6898 38.2518 60.8066C37.9767 60.8724 37.6219 60.9756 37.3474 60.9798Z" fill="#D0D6F0" fill-opacity="0.698039"/>
<path d="M49.2469 48.5279C49.9127 48.4311 50.883 48.0899 51.541 48.0735L51.6154 48.1447C51.7273 48.2531 51.7746 48.3215 51.8674 48.4462C51.9891 48.4982 52.0466 48.5264 52.1734 48.5633L52.0483 48.6827C51.6304 48.7718 51.4823 48.6894 51.0789 48.5699C50.2917 48.955 49.8577 49.2985 49.2469 48.5279Z" fill="#D0D6F0" fill-opacity="0.592157"/>
<path d="M37.3723 61.1082L37.5633 61.154L37.7453 61.0377C38.0887 61.162 39.5539 61.9584 39.7498 62.1886L39.6993 62.2398L39.5267 62.1807C39.4543 62.383 39.5514 62.3576 39.4916 62.5437C39.0364 62.2811 37.5142 61.5005 37.3723 61.1082Z" fill="#D7D9EB" fill-opacity="0.376471"/>
<path d="M48.3324 48.7561L49.2469 48.528C49.8577 49.2985 50.2917 48.9551 51.079 48.5699C51.4823 48.6895 51.6305 48.7718 52.0483 48.6827C51.8655 49.0006 51.4104 48.9353 51.0849 48.9606C50.8185 48.9813 50.6337 49.1023 50.4041 49.225C49.6095 49.0916 49.0875 49.0455 48.3324 48.7561Z" fill="#D0D6F0" fill-opacity="0.670588"/>
<path d="M57.0098 38.5953C57.2872 38.7026 59.4153 40.1093 59.4613 40.3025C59.0878 40.1607 57.2117 39.246 56.9866 38.8615C56.9206 38.749 56.9611 38.7448 57.0098 38.5953Z" fill="#FBF8F4" fill-opacity="0.0117647"/>
<path d="M48.7719 52.4533C49.321 52.2484 49.5989 51.8332 50.0099 52.3329C49.7723 52.6096 49.511 52.9034 49.2835 53.1851C49.0929 52.9298 48.9433 52.7259 48.7719 52.4533Z" fill="#D7D9EB" fill-opacity="0.270588"/>
<path d="M37.5625 72.7562C37.5009 72.6106 37.453 72.3931 37.4984 72.2356C37.6781 72.1125 37.6162 72.1506 37.9092 72.205C37.9827 72.585 38.15 73.4156 37.9153 73.7443C37.6745 73.5243 37.7372 72.9656 37.5625 72.7562Z" fill="#D0D6F0" fill-opacity="0.87451"/>
<path d="M44.3291 64.5875C44.6244 64.695 44.9253 64.865 45.2079 64.8363C45.3232 64.7569 45.328 64.7519 45.4292 64.6606C45.9204 64.9275 46.3074 65.1113 46.8192 65.3382L46.7228 65.5244C46.015 65.3338 46.1405 65.2544 45.6192 65.0356C45.1792 64.8506 44.8606 65.1206 44.3291 64.5875Z" fill="#FBF8F4" fill-opacity="0.435294"/>
<path d="M45.265 75.4638C44.7637 75.0875 44.3863 75.1507 43.973 74.7963L44.0226 74.7325C44.6963 74.7057 44.8182 74.9319 45.418 75.125L45.4869 75.1463L45.3897 75.2163C45.3832 75.4019 45.415 75.3188 45.265 75.4638Z" fill="#D0D6F0" fill-opacity="0.345098"/>
<path d="M46.8193 65.3381C47.7616 65.7169 48.15 65.8738 49.1443 66.0219L48.9923 66.195C48.3445 66.0825 47.3198 65.7956 46.7228 65.5244L46.8193 65.3381Z" fill="#FBF8F4"/>
<path d="M39.4916 62.5438C39.5515 62.3577 39.4543 62.3831 39.5267 62.1808L39.6993 62.2398C39.7529 62.6494 40.257 62.6475 40.6108 63.0038L40.7436 63.2257C40.3622 62.9713 39.8202 62.8119 39.4916 62.5438Z" fill="#D7D9EB" fill-opacity="0.509804"/>
<path d="M94.2313 54.1702L94.3669 53.9879C94.5956 54.2047 94.4306 55.3199 94.3438 55.6213C94.2756 55.1522 94.2581 54.6464 94.2313 54.1702Z" fill="#D0D6F0" fill-opacity="0.352941"/>
<path d="M40.4322 90.2094C40.492 90.125 40.6525 90.0956 40.7745 90.0519L40.901 90.2988C40.7168 90.645 39.9394 90.4463 39.5898 90.4019C39.8109 90.3563 40.2355 90.2813 40.4322 90.2094Z" fill="#D7D9EB" fill-opacity="0.258824"/>
<path d="M54.8515 37.6163C55.3328 37.6798 55.6923 37.8316 55.7783 38.3303C55.4434 38.0881 55.1358 37.9213 54.8515 37.6163Z" fill="#FBF8F4" fill-opacity="0.0235294"/>
<path d="M66.3207 112.072L66.3657 112.229C66.5738 112.279 66.7819 112.331 66.9894 112.384L66.9732 112.419C66.6457 112.437 66.5425 112.451 66.2175 112.535C66.2382 112.303 66.2313 112.299 66.3207 112.072Z" fill="#D0D6F0" fill-opacity="0.886275"/>
<path d="M74.2855 38.5802L74.3185 38.6512L74.2666 38.7929C73.6403 39.1918 72.7206 39.2499 71.9716 39.3607L71.9459 39.2933C72.145 39.0075 73.6993 38.7713 74.2032 38.6078L74.2855 38.5802Z" fill="#FDFCFB"/>
<path d="M70.2851 38.7232C70.6365 38.8545 70.8978 38.9479 70.9874 39.3539L70.8501 39.472C70.5149 39.4098 70.3817 39.393 70.1486 39.15C70.1169 38.8554 70.0899 38.9974 70.2851 38.7232Z" fill="#F6EFEF"/>
<path d="M40.018 9.99819C39.9863 10.4057 39.9254 10.8754 39.8594 11.3601C39.7942 11.8389 39.7242 12.3349 39.6777 12.7738C39.6322 13.2035 39.6039 13.6251 39.6386 13.9437C39.6903 14.419 39.6879 14.9059 39.6896 15.429C39.6913 15.9403 39.6978 16.4847 39.7807 17.0181L39.8043 17.1712L39.9101 17.284C40.0601 17.4434 40.2951 17.6698 40.5478 17.9135C40.8057 18.1622 41.0923 18.4384 41.3616 18.7133C41.6328 18.9901 41.8768 19.2555 42.0521 19.4794C42.1104 19.5539 42.1564 19.6201 42.1931 19.6764C42.1414 19.7113 42.0752 19.7487 41.9873 19.7853C41.885 19.8279 41.771 19.8655 41.6403 19.906C41.517 19.9443 41.3689 19.9881 41.2329 20.0364C40.9781 20.1267 40.6136 20.2798 40.4021 20.6181C40.1686 20.9919 40.2076 21.4334 40.3872 21.8865C40.5679 22.3422 40.6292 22.6545 40.6379 23.063C39.4648 23.072 38.4984 22.8983 37.2772 22.0842C37.0474 21.931 36.737 21.9928 36.5838 22.2226C36.4307 22.4523 36.4927 22.7628 36.7222 22.916C38.1488 23.8671 39.3208 24.0698 40.6185 24.0632C40.5924 24.4911 40.533 25.0681 40.4346 25.646C40.3613 26.0764 40.2709 26.4901 40.1686 26.8266C40.059 27.187 39.9574 27.3812 39.899 27.4454C39.7336 27.6268 39.3928 27.7729 38.8947 27.8538C38.4178 27.9313 37.8906 27.9347 37.4599 27.9166L37.4494 27.916L37.4385 27.9163C35.9475 27.9163 35.0566 27.6433 34.1976 27.2195C33.7528 27 33.3184 26.7405 32.7945 26.4385C32.276 26.1396 31.6868 25.8096 30.9627 25.4678C30.01 25.018 29.897 24.974 29.8174 24.95C29.8136 24.9488 29.8225 24.9523 29.8329 24.9561C29.8383 24.9581 29.8423 24.9595 29.8439 24.9602C29.8357 24.9565 29.8145 24.9458 29.7597 24.9188C29.6526 24.8661 29.445 24.7622 29.0255 24.5524C28.5115 24.2955 28.2964 24.1873 28.1415 24.0841C28.0025 23.9914 27.9119 23.9037 27.6547 23.6465C27.47 23.4618 27.3058 23.2709 27.1221 23.0712C26.9634 22.8989 26.7584 22.6829 26.545 22.5637C25.7103 22.0977 25.097 21.5358 24.7404 20.8376C24.3877 20.1465 24.2586 19.2665 24.4887 18.1075C24.5739 17.7199 24.7196 17.4199 24.8528 17.2116C24.9369 17.0802 25.0093 16.9939 25.052 16.9478C25.3355 16.8701 25.5427 16.8043 25.6979 16.754C25.8875 16.6926 25.9577 16.6741 26.011 16.6691C26.087 16.6621 26.1653 16.6715 26.7942 16.9559C26.7962 16.957 26.8038 16.9603 26.8164 16.9684C26.8323 16.9788 26.853 16.9936 26.8784 17.0134C26.9301 17.0539 26.9918 17.1081 27.0611 17.1739C27.2003 17.3058 27.3518 17.4671 27.4936 17.6217C27.6273 17.7674 27.7657 17.9225 27.8533 18.0131C27.8765 18.0371 27.9026 18.0624 27.9274 18.0853C27.9417 18.0984 27.992 18.1462 28.0577 18.1826C28.0778 18.1936 28.1126 18.2109 28.1577 18.2247C28.1986 18.2373 28.2849 18.2588 28.3927 18.2404C28.4653 18.228 28.5355 18.1965 28.5991 18.1511L29.5523 17.9311C29.6685 17.9475 29.7835 17.9232 29.8765 17.8687C29.9809 17.8075 30.0341 17.7249 30.05 17.6995C30.0717 17.6646 30.0848 17.6338 30.0913 17.6175C30.1133 17.5631 30.124 17.509 30.1268 17.4951C30.132 17.4693 30.1364 17.4408 30.1407 17.4143C30.1624 17.2795 30.1748 17.1794 30.2068 16.9873C30.235 16.8186 30.2677 16.6486 30.307 16.5105C30.3266 16.4414 30.3453 16.3899 30.3607 16.3556C30.374 16.3261 30.3791 16.3244 30.3698 16.3361C30.8272 15.8814 31.0106 15.8151 31.0962 15.7866C31.1345 15.7738 31.1553 15.7687 31.214 15.7509C31.2646 15.7356 31.3302 15.7143 31.4025 15.6814C31.5554 15.6118 31.6971 15.5098 31.8534 15.3537L31.8971 15.3105L31.9284 15.2572C32.2996 14.6386 32.5617 14.1835 32.7155 13.8085C32.8793 13.409 32.9329 13.0718 32.8768 12.6933C32.8272 12.3591 32.6886 11.9986 32.5414 11.5852C32.4318 11.2771 32.3031 10.9012 32.1625 10.4158C32.5198 10.4425 32.8737 10.4864 33.2315 10.5394C33.7957 10.6231 34.4016 10.7313 35.004 10.8019C36.2412 10.9467 37.5766 10.9489 39.1736 10.3571L39.2164 10.3415L39.2551 10.3185L40.026 9.86078C40.0232 9.90492 40.0217 9.95101 40.018 9.99819Z" fill="white" stroke="#6881DB" stroke-linecap="round"/>
<path d="M24.7657 21.5097L25.2153 21.1947" stroke="#6881DB" stroke-width="0.4"/>
<path d="M37.3867 6.45934C38.6015 6.81902 39.6015 7.26348 40.2891 7.76121L40.255 7.80892L40.0643 8.06595L40.2191 8.34689L40.261 8.42348C40.2162 8.4635 40.1631 8.50831 40.0995 8.55299C39.9146 8.68275 39.6965 8.79835 39.5341 8.87694L39.5332 8.87653C38.4802 9.38605 37.6562 9.64978 36.8321 9.72554C36.0067 9.80143 35.1436 9.69328 34.0068 9.4041C33.9041 9.37798 33.7218 9.32006 33.4709 9.24094C33.2292 9.16472 32.9392 9.07323 32.6442 8.98987C32.3505 8.9069 32.041 8.82864 31.761 8.77927C31.5003 8.73333 31.195 8.69895 30.9441 8.75249L30.6679 8.81139L30.5758 9.07875C30.5571 9.13304 30.5381 9.18726 30.5192 9.242L30.4776 9.36376L30.4996 9.49028C30.575 9.92983 30.7429 10.3785 30.9113 10.7977C31.0862 11.2332 31.2615 11.6382 31.3963 12.0541C31.662 12.8744 31.7138 13.5766 31.254 14.2304C31.1238 14.4155 30.9485 14.5637 30.7255 14.718C30.5322 14.8519 30.2173 15.0422 29.9827 15.2266C29.7211 15.4322 29.4606 15.6961 29.2901 16.0762C29.1684 16.3477 29.1037 16.6558 29.0971 17.0096L28.5506 17.1356C28.1801 16.5785 27.5875 16.0999 26.9529 15.803C26.1877 15.4452 25.2273 15.2919 24.4218 15.7381C23.4061 16.3007 22.9881 17.319 22.9211 18.3314C22.8629 19.2122 23.0621 20.1416 23.4028 20.9122L23.5574 21.2329C23.6106 21.3343 23.66 21.4774 23.7619 21.7169C23.7952 21.7952 23.8336 21.8792 23.8754 21.9615L23.8099 22.0398C23.7909 22.0424 23.7737 22.0446 23.7581 22.0469C23.7092 22.054 23.6556 22.0621 23.6151 22.0719C23.6054 22.0742 23.5773 22.0813 23.5445 22.094C23.5354 22.0975 23.517 22.1068 23.4928 22.1195L23.0305 22.1198C22.1984 21.1533 21.9393 20.5354 21.4994 19.6626C21.2665 19.2005 20.9281 18.7486 20.59 18.3207C20.2411 17.8793 19.8935 17.4645 19.5858 17.0274C18.9689 16.1512 18.6393 15.3566 18.8954 14.5154C19.3261 13.1019 20.5439 11.8976 21.8818 11.0924L22.094 10.9649L22.1211 10.7191C22.1651 10.3236 22.1679 10.0458 22.1704 9.67785C22.1995 9.3894 22.3138 9.08 22.4929 8.7648L22.719 8.74183C23.1326 8.69895 23.4131 8.47997 23.5813 8.19411C23.727 7.94642 23.7816 7.65707 23.8164 7.46659L23.8622 7.21539C23.9285 7.16167 23.9927 7.10843 24.0571 7.06048L24.078 7.04547L24.0968 7.02834C24.7272 6.4506 25.8732 6.01779 27.3748 5.77028C28.857 5.52598 30.6092 5.47372 32.3734 5.59707C34.1369 5.72038 35.8947 6.01759 37.3867 6.45934Z" fill="#BACAF3" stroke="#6881DB"/>
<path d="M23.2597 12.7698C24.2192 12.0763 26.2107 12.4877 27.3487 12.4747C27.6385 12.4715 28.0841 12.5242 28.3382 12.6565C28.4622 12.8633 28.43 12.754 28.4349 12.9976C28.1953 13.5427 27.0958 13.5118 26.5997 13.4473C25.9181 13.3587 23.904 13.5298 23.4007 13.2524L23.2597 12.7698Z" fill="#536FD4"/>
<path d="M36.8627 14.0339C37.143 14.0336 37.3661 14.0619 37.524 14.3236C37.5111 14.3731 37.4982 14.4227 37.4853 14.4723C37.0416 14.7395 36.5631 14.9749 36.1911 15.3365C35.8857 15.6334 35.754 15.8688 35.5507 16.2031L35.4305 16.2936C35.2176 16.3184 35.3112 16.3428 35.1384 16.2257C34.791 15.3309 36.2152 14.3816 36.8627 14.0339Z" fill="#536FD4"/>
<path d="M37.4535 16.0823C38.1422 16.1747 38.5621 16.9655 37.9041 17.4496C37.1459 17.5521 36.8118 16.5733 37.4535 16.0823Z" fill="#243FC7"/>
<path d="M26.5846 20.0263C26.7988 19.948 27.0369 20.0499 27.1281 20.259C27.2192 20.468 27.1321 20.7119 26.929 20.8156C26.7862 20.8886 26.6146 20.8764 26.4836 20.7838C26.3526 20.6911 26.2839 20.5335 26.3051 20.3745C26.3262 20.2155 26.4339 20.0814 26.5846 20.0263Z" fill="#536FD4"/>
<path d="M95.3019 90.4769L96.6769 90.7126C96.9131 91.9969 96.3144 96.4101 96.1481 97.8926L95.3562 105.434L94.5056 114.525C94.3662 115.947 94.2338 117.848 93.9794 119.2C93.61 118.858 93.3894 118.963 92.8725 118.855C92.8156 118.844 92.7112 118.991 92.56 118.931C92.6081 117.393 92.8963 115.456 93.0406 113.892L94.2363 101.63C94.4225 99.6713 94.6025 97.6938 94.7856 95.7357C94.9156 94.3438 94.9881 91.7863 95.3019 90.4769Z" fill="#CED7F7"/>
<path d="M9.77503 105.52C11.072 101.762 12.3317 97.9943 13.5542 94.2162C13.8106 93.4368 14.9397 90.3525 14.8923 89.7292L15 89.6458L13.5542 88.5254C12.1288 90.8774 11.2176 94.5978 10.2859 97.277L3.43771 117.056C3.24557 117.726 3.02998 118.206 3.03934 118.915C3.04194 119.112 3.06751 119.044 2.91906 119.18C2.53063 119.101 2.54022 119.126 2.26722 118.871C1.69921 117.614 4.45405 111.066 4.48353 109.23C4.49572 108.478 5.19586 106.75 5.36965 105.872C6.08944 102.17 6.90524 98.484 7.81645 94.817C8.27129 92.9001 8.87826 90.9533 9.30551 89.0418C9.50037 88.1695 9.63793 86.7626 9.78982 85.8111L9.78983 85.811L8.02576 84C7.697 85.3321 7.52889 86.6834 7.19836 88.0037C6.39748 91.2003 5.76364 94.4482 4.97069 97.6415L1.92154 110.151C1.30794 112.708 0.619882 115.271 0.164214 117.859C0.062757 118.435 -0.158506 119.322 0.184695 119.793C0.743122 120.562 1.80374 120.808 2.73153 121C4.86331 120.367 4.71533 119.635 5.32466 117.845L6.71321 113.895C7.6912 111.115 8.80462 108.274 9.77503 105.52Z" fill="#536FD4"/>
</svg>
