<svg width="128" height="128" viewBox="0 0 128 128" fill="none" xmlns="http://www.w3.org/2000/svg">
<path d="M35.2047 1.27366C35.8907 1.23138 36.893 1.25235 37.5937 1.24884L42.4199 1.24023L56.8869 1.24998L101.942 1.26673C107.651 1.28296 118.094 1.20865 124.273 1.29822C124.366 1.29957 124.439 1.44997 124.446 1.52718C124.554 2.59801 124.496 4.12378 124.503 5.19612L124.514 18.8898L124.541 78.1018L124.536 87.8693C124.537 88.6481 124.622 92.9387 124.414 93.3137C123.845 93.5981 100.504 93.3712 97.7987 93.4925C97.6969 94.0387 97.6825 94.6331 97.665 95.1912C97.5675 98.3431 97.3437 101.406 96.9856 104.542C96.2744 110.29 95.2531 115.996 93.9269 121.633C93.6175 122.956 93.2469 124.289 92.9225 125.615C93.8744 125.662 95.1031 125.632 96.0694 125.632L101.701 125.629L118.859 125.627C120.522 125.627 122.627 125.565 124.322 125.672C124.642 125.692 124.701 126.234 124.536 126.519C124.372 126.648 124.212 126.656 124.005 126.656C122.296 126.652 120.581 126.657 118.872 126.659L107.604 126.637L83.7187 126.664L28.1363 126.634L11.2507 126.663C9.22417 126.676 7.19767 126.677 5.17115 126.667C4.65365 126.669 2.89139 126.946 2.74399 126.248C2.70919 126.083 2.79492 125.834 2.91619 125.705C3.1519 125.583 3.30369 125.612 3.57956 125.614C3.54175 124.504 3.23363 123.542 3.31316 122.417C3.3227 121.774 3.6668 121.177 3.75623 120.556C4.51254 115.306 6.63949 110.158 8.40449 105.179C9.30086 102.65 10.3499 100.421 10.9655 97.8175C11.5331 95.3875 12.0488 92.9462 12.5122 90.4943C12.7953 89.0093 13.0913 87.5762 13.2657 86.075C13.418 84.8675 13.5387 83.6568 13.6278 82.4437C13.7769 80.1925 13.7495 78.2437 14.3212 76.02C14.7837 74.2212 15.3285 72.5593 16.0519 70.845C16.3407 70.16 16.7415 69.4743 16.9623 68.7768C16.5435 68.3012 16.5533 68.2568 16.552 67.6056C16.5512 67.2256 16.5418 66.8162 16.5329 66.4343C15.1845 65.9412 14.7286 65.4581 14.0888 64.1962C11.9933 60.064 9.80611 49.8497 10.1404 45.2728C10.2607 43.6246 10.7217 42.1159 11.4261 40.6241C12.0492 39.3044 12.9971 38.0905 13.9175 36.9633C14.3475 36.4367 14.8442 35.9077 15.1937 35.3234C15.9053 34.1337 16.2444 32.6048 16.6768 31.291C15.4988 30.5863 14.9989 29.972 13.9734 29.1313C12.815 28.1818 10.7012 27.661 10.357 25.8932C10.1184 24.6669 10.5403 23.188 11.2306 22.1537C10.9574 21.0772 10.9542 19.8774 11.4185 18.8406C12.4483 16.5415 15.6996 15.1321 17.9212 14.2385C19.3792 13.6521 22.5412 12.9695 24.0654 13.654C24.6518 13.9174 24.8317 14.4071 25.0174 14.9637C24.8915 15.6543 24.689 16.054 24.3977 16.693C25.8982 17.8605 26.1905 18.3008 26.5409 20.0882C28.0089 21.129 30.3694 20.7316 28.6575 23.1074C28.7014 23.1913 28.988 23.6961 28.9918 23.7244C29.1742 25.08 30.6584 27.1758 29.9625 28.4905C29.4189 29.5175 27.6735 30.0923 26.7209 30.3624C26.3327 31.0939 26.2204 31.4413 25.9851 32.2463C26.2367 32.6397 26.8 33.1335 27.1329 33.5355C27.4671 33.9391 27.7278 34.3535 28.064 34.7311C30.7022 34.7153 32.1984 34.3745 34.6742 33.6577C34.761 30.8047 34.6627 27.5156 34.6587 24.629L34.6777 9.61183C34.6755 8.70865 34.5676 2.00293 34.7527 1.46601C34.874 1.31595 35.0094 1.3156 35.2047 1.27366ZM69.0412 93.505L46.1202 93.4562C43.1195 93.4543 39.9494 93.5118 36.9659 93.4481C36.7069 94.5818 36.503 96.2706 36.2973 97.4812C35.887 99.8306 35.434 102.172 34.9385 104.504C34.2804 107.543 33.6009 110.577 32.9 113.607C32.4754 115.395 32.0284 117.199 31.615 118.992C31.5595 119.234 31.7042 119.557 31.837 119.755C33.0789 121.606 34.8935 122.692 36.9405 123.446C37.6109 123.693 38.4869 124.026 39.0805 124.398C39.5745 124.707 39.8489 125.084 40.0089 125.633L68.1406 125.646C69.1444 125.636 70.1487 125.632 71.1525 125.634L72.1556 114.405C72.5344 109.583 72.835 104.755 73.0569 99.9231C73.0669 99.6693 73.2037 97.9137 73.0875 97.8187C71.6744 96.6675 69.9656 95.6162 68.8606 94.1093C68.91 93.9406 68.9819 93.6606 69.0412 93.505ZM11.5077 120.308L11.5659 120.419C11.697 120.675 11.8142 121.022 11.9381 121.296C12.4426 122.411 12.9965 122.994 13.961 123.707C14.8714 124.369 15.6186 124.908 16.4892 125.625L23.1388 125.622C23.0313 124.794 22.968 123.722 23.149 122.904C23.5056 121.292 23.0846 119.563 23.2704 117.974C23.9461 112.197 24.383 106.548 24.1322 100.721C24.1149 100.321 24.2166 98.4943 24.026 98.2987C21.4569 102.868 18.7152 107.314 16.1319 111.905C15.1318 113.674 14.1544 115.455 13.1999 117.249C12.7292 118.123 12.0387 119.502 11.5077 120.308ZM12.2398 20.4288C12.5343 20.2518 12.4735 19.9531 12.4018 19.6762C12.3107 19.9156 12.1675 20.1886 12.2398 20.4288ZM35.9088 55.8776C36.3035 56.0017 36.926 56.1683 37.3625 56.1701C39.1872 56.1777 41.5928 55.236 43.335 55.8927C43.544 55.9925 43.7619 56.1814 43.8173 56.4104C44.0452 57.3524 43.0806 57.5136 42.4184 57.6795L42.3217 58.028L42.6444 58.1073C42.9239 58.3099 42.8684 58.5255 42.9631 58.8343C43.0582 59.1444 42.5419 59.7998 42.3203 60.1046C41.7659 60.8673 41.1082 61.191 40.3181 61.5993C38.5494 62.5643 36.6653 62.494 34.717 62.4941C34.1517 62.4942 33.5184 62.4716 32.9529 62.5518C33.6721 63.2037 36.7718 64.84 37.7091 65.395C38.1429 65.6525 39.3044 66.355 39.7164 66.5762C40.2071 66.3 42.1906 64.5075 42.7263 64.045L48.8578 58.8096C49.4295 58.3196 51.8414 56.4019 52.2162 55.9392C49.1564 54.1731 46.206 52.2164 43.1366 50.463C42.6033 50.1583 42.0801 49.8175 41.5206 49.5645C40.2201 50.8193 39.0567 52.5149 37.7673 53.8171C37.1511 54.4395 36.4601 55.2061 35.9088 55.8776ZM4.54608 124.974C4.5481 125.176 4.51824 125.387 4.62804 125.541L4.75949 125.576C5.86109 125.714 8.15674 125.569 9.37424 125.624C9.83005 125.646 12.623 125.643 12.9564 125.583C13.3254 125.654 14.2329 125.639 14.7127 125.675C14.3984 125.522 13.318 124.76 12.911 124.496C12.6807 124.829 12.6365 124.891 12.5008 125.287C12.4292 125.236 12.4674 125.273 12.4085 125.159C12.4654 124.993 12.5238 124.811 12.6563 124.692C12.6987 124.654 12.874 124.418 12.8407 124.385C12.5207 124.069 12.1445 123.769 11.8646 123.417C11.179 122.557 10.8754 121.62 10.5765 120.582C8.60024 121.399 7.0788 121.6 4.97835 121.625C4.78707 121.475 4.75581 121.372 4.54571 121.316C4.43284 121.486 4.43209 121.474 4.39053 121.671L4.46343 121.727C4.62012 121.633 4.60701 121.632 4.78802 121.646L4.79828 121.717C4.65068 121.803 4.63634 121.812 4.47276 121.837L4.34806 121.854C4.27099 122.418 4.30739 122.584 4.33239 123.122C4.35647 123.64 4.54613 124.509 4.54608 124.974ZM36.3339 53.049L36.6447 53.5207C37.5974 52.5313 38.49 51.4959 39.4121 50.4811C39.8897 49.9554 40.7846 48.7586 41.4369 48.5441C42.1006 48.6093 46.2979 51.1347 47.0255 51.6291C48.8089 52.7288 51.2057 54.3068 53.0102 55.2548C53.1795 55.0948 53.3672 54.9271 53.5178 54.7516L45.1059 49.5991C44.3861 49.1495 43.675 48.7015 42.9645 48.2378C42.5312 47.9552 41.9785 47.5256 41.5375 47.2923C39.8423 49.0677 38.0042 51.206 36.3339 53.049ZM17.1099 30.5866L17.3058 30.7356C17.4161 30.4425 17.4832 29.4576 17.3656 29.1648C17.054 28.9465 16.8352 29.296 16.6914 29.5669C16.3847 30.1444 16.9447 30.0637 17.1099 30.5866ZM102.511 58.6982L102.589 58.7875L102.671 58.7292C102.911 57.8963 103.981 55.4895 103.827 54.9225L103.904 54.7101L104.046 54.3972C104.139 54.2023 104.266 53.7151 104.416 53.3788C104.494 52.9389 104.631 52.6333 104.701 52.231C104.524 52.2219 104.532 52.2146 104.371 52.2786C104.23 52.4715 104.249 52.7925 104.241 53.042C104.082 53.5569 103.754 53.8885 103.677 54.1363C103.752 54.4332 103.732 54.4646 103.673 54.7755C103.579 54.9663 103.28 55.4778 103.273 55.6246L103.261 55.6718L103.148 55.6758C102.926 56.0686 102.332 57.7595 102.289 58.2018L102.35 58.319C102.239 58.6686 102.092 59.1955 101.924 59.4986C101.681 60.0382 101.161 60.7217 101.179 61.1507C101.694 61.8328 102.057 60.6619 102.157 60.329C102.063 59.647 102.256 59.3556 102.511 58.6982ZM102.632 61.832L102.534 61.9085C102.292 62.165 102.182 62.2599 101.831 62.362C101.326 62.5087 99.1987 62.3176 99.1806 62.9493C99.3462 63.3137 99.5844 63.315 99.7937 63.6556C100.06 64.09 100.672 64.2175 101.08 64.5312C101.569 64.9075 101.962 65.49 102.389 65.8937C102.566 66.2093 102.748 66.5231 102.934 66.8343C103.422 66.4006 103.721 66.0518 103.955 65.4387L104.101 65.0562C104.465 64.4656 104.052 62.8925 103.89 62.2236C103.794 61.9189 103.681 61.6773 103.552 61.3866C103.441 61.1653 103.403 61.026 103.187 60.912C102.811 60.9441 102.726 61.5095 102.632 61.832ZM38.992 48.4918C39.1237 48.2671 39.3182 47.9984 39.329 47.751C39.2063 47.5198 39.2056 47.5798 38.9099 47.438C38.6275 47.6535 38.6294 48.0919 38.7039 48.4178L38.8059 48.523L38.992 48.4918ZM74.8087 98.805C74.6344 98.6181 74.6019 98.585 74.3944 98.4393L74.2669 98.4518C74.1587 98.6 74.195 98.815 74.1981 99.0137C74.1919 99.3118 74.1912 100.163 74.1269 100.421C74.2412 100.555 74.3131 100.707 74.4012 100.862C74.4469 100.308 74.4787 99.7531 74.4962 99.1975C74.5869 99.0537 74.6787 99.0093 74.825 98.9262L74.8087 98.805ZM27.664 36.8034C27.8958 36.5028 27.6488 36.0299 27.4752 35.7475C27.339 35.6595 27.3399 35.671 27.1755 35.6538C26.8859 36.3845 26.8545 36.559 27.664 36.8034ZM30.1558 35.6778C29.7818 35.711 28.8784 35.7692 28.564 35.912C28.5666 36.1127 28.564 36.3135 28.5563 36.5142L28.7776 36.5651C29.573 36.0989 29.9514 36.1253 30.5869 35.864L30.5271 35.7756C30.3284 35.758 30.3481 35.7486 30.1558 35.6778ZM36.7902 61.2231L36.7905 61.0776C36.4724 61.0439 36.4394 60.9855 36.2029 61.1034L36.2119 61.1924C36.4395 61.2984 36.5195 61.3165 36.7902 61.2231ZM26.2009 34.9982C26.2695 35.025 26.5784 35.044 26.6715 35.0523C26.8676 34.9619 26.7957 35.033 26.8817 34.8194C26.8274 34.4051 26.229 33.7034 25.8034 33.6222L25.7019 33.704C25.6507 33.9417 25.7343 34.2364 25.7816 34.4837C25.9729 34.6883 26.0529 34.7655 26.2009 34.9982ZM27.7837 38.2774C27.4178 38.1805 27.3345 37.7028 26.9693 37.783L26.9916 37.9261C27.3183 38.2278 27.2831 38.592 27.3007 39.0386C27.3047 39.143 27.3082 39.2475 27.3111 39.352C27.4236 39.062 27.7444 38.4327 27.7837 38.2774ZM72.2975 124.786C72.2425 125.043 72.175 125.272 72.1894 125.532C72.2794 125.598 72.2337 125.591 72.3194 125.581C72.4606 125.523 72.625 125.371 72.7381 125.267C72.7069 125.052 72.5125 124.967 72.2975 124.786ZM35.4682 53.3152L34.8482 53.883C34.7023 54.2969 34.1906 54.7376 34.25 55.073C34.7273 55.1517 35.3156 54.3242 35.851 54.1989C35.6332 53.8184 35.5997 53.7351 35.4682 53.3152ZM36.1747 125.426C36.251 125.419 36.4904 125.517 36.6219 125.531C37.3937 125.611 38.1582 125.624 38.933 125.624C38.0931 124.939 37.4399 125.068 36.51 124.67C36.1123 124.705 35.8948 124.774 35.9622 125.237C36.0651 125.344 36.0552 125.341 36.1747 125.426ZM33.8995 49.1676C34.1299 49.6665 34.2705 50.011 34.6232 50.439C34.6592 49.8136 34.6735 44.054 34.5564 43.8334L34.4709 43.8295C33.71 43.9457 33.1157 44.4263 32.303 44.4757C32.5619 45.4152 33.4758 48.3637 33.8995 49.1676Z" fill="#6881DB"/>
<path d="M35.9088 55.8776C36.3035 56.0017 36.926 56.1683 37.3625 56.1701C39.1872 56.1777 41.5928 55.236 43.335 55.8927C43.544 55.9925 43.7619 56.1814 43.8173 56.4104C44.0452 57.3524 43.0806 57.5136 42.4184 57.6795L42.3217 58.028L42.6444 58.1073C42.9239 58.3099 42.8684 58.5255 42.9631 58.8343C43.0582 59.1444 42.5419 59.7998 42.3203 60.1046C41.7659 60.8673 41.1082 61.191 40.3181 61.5993C38.5494 62.5643 36.6653 62.494 34.717 62.4941C34.1517 62.4942 33.5184 62.4716 32.9529 62.5518C33.6721 63.2037 36.7718 64.84 37.7091 65.395C38.1429 65.6525 39.3044 66.355 39.7164 66.5762C40.2071 66.3 42.1906 64.5075 42.7263 64.045L48.8578 58.8096C49.4295 58.3196 51.8414 56.4019 52.2162 55.9392C49.1564 54.1731 46.206 52.2164 43.1366 50.463C42.6033 50.1583 42.0801 49.8175 41.5206 49.5645C40.2201 50.8193 39.0567 52.5149 37.7673 53.8171C37.1511 54.4395 36.4601 55.2061 35.9088 55.8776Z" fill="white"/>
<path d="M36.3339 53.049L36.6447 53.5207C37.5974 52.5313 38.49 51.4959 39.4121 50.4811C39.8897 49.9554 40.7846 48.7586 41.4369 48.5441C42.1006 48.6093 46.2979 51.1347 47.0255 51.6291C48.8089 52.7288 51.2057 54.3068 53.0102 55.2548C53.1795 55.0948 53.3672 54.9271 53.5178 54.7516L45.1059 49.5991C44.3861 49.1495 43.675 48.7015 42.9645 48.2378C42.5312 47.9552 41.9785 47.5256 41.5375 47.2923C39.8423 49.0677 38.0042 51.206 36.3339 53.049Z" fill="white"/>
<path d="M87.9613 2.02724C89.3388 2.02632 91.5863 2.09699 92.8863 2C92.8606 7.03449 92.8606 12.069 92.8856 17.1035L92.8694 43.7781C92.8675 47.01 92.9188 50.2986 92.8856 53.5197C91.7269 54.9995 90.4944 56.2762 89.255 57.6792C88.6206 56.8922 88.0231 56.1225 87.3175 55.4004C87.03 55.1057 85.8844 54.3002 85.7637 54.0491C85.4075 53.3073 86.0756 50.6287 86.2581 49.9009L86.3375 49.8615C87.3875 49.3534 89.3325 49.1748 89.6937 47.7405C89.8731 47.0275 89.8538 44.2511 89.6956 43.5322C90.01 43.0705 90.3037 42.5951 90.195 42.0058C90.0569 41.2536 88.6162 40.175 87.9819 39.9047C87.7119 39.2657 87.5938 38.5623 87.3225 37.9906C86.7488 36.7942 85.875 35.8225 85.0394 34.8107C84.8875 34.627 84.6912 34.1132 84.5356 33.9826C83.27 32.9244 86.6325 34.8286 85.0394 34.8107C83.3756 34.7919 86.0812 35.8351 84.5356 36.5C81.8437 37.6574 82.4131 38.5706 82 41.5C80.5 43.5322 81 42.5 80 45C81.0175 46.5064 79.5 45.5 79 47C77.5 49 79.6425 47.5374 78 49.5C76.9563 50.7472 78.6535 48.5 77.6712 50.9782C77.2987 51.5617 77.2169 52.2281 76.9563 52.6451C76.3075 53.6827 75.6687 54.5892 75.0906 55.6668C72.4475 60.5914 72.855 64.4762 74.0362 69.708C74.4287 71.4462 74.8769 73.1531 75.16 74.9168C75.055 75.1349 72.2512 78.0012 71.8112 78.4718L63.0544 87.9724C63.0475 86.9268 63.1031 83.9518 63 83.0899L63.0163 52.8098L63.0106 37.575C63.0131 34.6509 62.9738 31.6219 63.0475 28.7064C64.2144 27.3177 66.0275 25.4704 67.3069 24.1237L71.8012 19.3056L87.9613 2.02724Z" fill="#BACAF3"/>
<path d="M97.75 2.30306C105.336 2.25092 112.923 2.24301 120.509 2.27931C120.575 10.7604 120.576 19.2419 120.513 27.723C119.721 28.47 118.919 29.3702 118.169 30.17L115.367 33.1314L106.556 42.601C104.535 44.7924 102.387 46.9127 100.376 49.1292C99.4988 50.0962 98.6369 50.8905 97.7732 51.9224C97.6607 50.91 97.7338 47.9863 97.7357 46.8675L97.7488 36.588L97.75 2.30306Z" fill="#BACAF3"/>
<path d="M78.4025 53.9194C81.3031 55.3409 84.1787 56.594 86.5919 58.865C88.5712 60.7278 90.1794 64.2275 91.43 66.6756C92.2469 68.2637 93.09 69.8375 93.9594 71.3969C94.1862 71.8031 96.1037 75.5456 96.3519 73.285C96.3775 73.0494 95.1 71.1181 94.825 70.5944C96.375 70.2862 99.135 66.5037 99.6825 65.0931C101.017 65.72 101.961 66.9606 102.287 68.3875C102.417 68.9506 102.826 70.655 102.432 71.1325C100.111 73.9437 97.6081 76.7475 94.8344 79.12C94.4231 79.4719 92.4581 80.2687 92.0175 79.9862C91.6044 79.7219 90.8519 78.6094 90.5394 78.165C87.745 74.1837 85.4087 69.8881 82.9594 65.6919C82.6919 65.2331 81.9962 64.6144 81.6506 65.3594C81.7481 66.2369 85.6556 72.6162 86.3831 73.7869C87.5656 75.7781 89.6869 79.4775 91.5287 81.0706C91.9894 81.4694 93.3212 81.0325 93.9319 80.8556C93.925 81.3669 93.8756 81.8969 93.8244 82.41C93.2475 88.1725 92.5637 93.9794 91.2494 99.6256C91.0906 100.307 90.8637 100.992 90.7362 101.667L90.725 101.73C89.0875 101.486 87.4644 101.389 85.8119 101.057C80.915 100.073 73.8194 97.8719 70.3625 94.1081C70.4625 94.0344 70.5281 94.045 70.6525 94.0225C70.645 93.9112 70.4931 93.6075 70.4275 93.575C70.2444 93.425 70.8881 92.6375 70.9862 92.485C72.9787 89.4062 74.77 86.1912 76.1706 82.82C78.75 76.6125 75.6631 71.1137 75.0925 64.9456C75.0269 64.2369 74.9844 63.47 74.9919 62.7562C75.1375 59.9049 76.5644 56.1134 78.4025 53.9194Z" fill="#BACAF3"/>
<path d="M44.8144 48.1071C45.4923 47.3687 46.3816 46.5427 47.1104 45.7693L55.7168 36.5307C57.0309 35.1158 58.4108 33.7251 59.6902 32.2815L59.7062 89.2531L44.2699 89.2637C42.3374 89.2631 40.2258 89.3075 38.3064 89.2687C38.2576 84.2944 38.4026 79.3362 38.3689 74.3662C38.3532 72.035 37.9988 69.6519 37.9107 67.3187C38.0194 67.3931 38.3586 67.6106 38.4275 67.6975C38.506 67.4669 38.5011 67.5831 38.425 67.3369C38.255 67.1756 38.1451 67.1894 37.9093 67.1619C37.8909 66.9812 37.8648 66.9362 37.9139 66.77C37.9285 66.775 39.5113 67.7887 39.5886 67.8506C39.9376 68.1956 40.3112 68.6844 40.8474 68.2806C41.9767 67.4306 43.0299 66.4944 44.0972 65.5706L49.0659 61.2929L52.7866 58.1262C53.3582 57.6415 53.9925 57.1136 54.5519 56.6219C54.8997 56.3163 54.8131 55.1006 54.8061 54.6041C54.3614 54.0021 52.5778 53.0382 51.8814 52.5768C49.5715 51.0464 47.1027 49.6619 44.8144 48.1071Z" fill="#BACAF3"/>
<path d="M38.4275 67.6975C38.506 67.4669 38.5011 67.5831 38.425 67.3369C38.255 67.1756 38.1451 67.1894 37.9093 67.1619C37.8909 66.9813 37.8648 66.9363 37.9139 66.77C37.9285 66.775 39.5113 67.7888 39.5886 67.8506C39.3058 67.8244 38.6125 68.1832 38.4275 67.6975Z" fill="#BACAF3"/>
<path d="M38.6778 2.28393L59.7002 2.24915L59.6854 28.2877C58.8068 29.2549 57.8876 30.1712 56.9981 31.1276L49.3171 39.3857L45.6437 43.3389C44.6116 44.4556 43.4243 45.7575 42.3092 46.7822C41.8728 46.5606 41.6914 46.4941 41.2232 46.343C40.6453 46.7061 39.3745 48.3457 38.9921 48.4919C39.1237 48.2672 39.3183 47.9985 39.3291 47.7511C39.2063 47.5199 39.2057 47.5799 38.9099 47.4381L38.861 47.3954L38.7229 47.4104C38.5945 47.0534 38.6407 42.6167 38.6382 41.9026C41.2347 40.3559 43.5768 38.7563 45.758 36.6446C46.9743 35.467 48.0969 34.3187 49.2183 33.0534C49.9185 32.2632 51.0187 31.565 51.6859 30.7236C52.0065 30.3192 51.9319 30.0345 51.849 29.5819C52.0585 29.3889 52.9534 28.7547 53.2335 28.5547C54.3492 28.6417 56.4394 27.2447 56.8774 26.1007C56.4338 25.3846 56.5408 24.0406 56.4885 23.169C56.1569 22.7264 55.6194 22.2669 55.2033 21.8846C55.9032 21.0559 57.2958 19.8029 58.1477 18.901C57.9925 18.49 57.7301 17.9078 57.325 17.6914C56.6322 17.7474 55.036 19.0977 54.346 19.5849C53.2168 20.3822 51.4287 21.2909 50.4923 22.327C49.8758 23.0092 49.3058 23.9537 48.7173 24.6817C48.4529 25.0089 48.2103 25.5734 47.8984 25.8807C46.1038 27.0932 44.6056 28.6594 42.7832 29.8431C41.4968 30.6629 40.0509 31.3992 38.6914 32.0766L38.6778 2.28393Z" fill="#BACAF3"/>
<path d="M30.1558 35.6779C35.7853 34.8376 39.5533 33.0353 44.3264 30.0259C44.4703 30.189 44.3761 30.0443 44.4059 30.1683C44.5974 30.9659 45.4318 32.0374 46.0613 32.5344C46.4894 32.8778 46.9544 33.1724 47.4478 33.4126C44.3645 36.6234 42.0655 38.9574 38.0028 41.0164C36.6852 41.6842 35.5333 42.4264 34.0604 42.8784C33.5017 43.0499 32.5099 43.5539 31.9868 43.6489L31.8455 43.5858C31.7841 43.3412 31.8754 43.243 31.977 42.9573C31.821 42.9861 31.8744 42.9934 31.7212 43.1593C31.3929 42.4926 30.8161 40.3607 29.9594 40.5868C29.8779 40.6881 29.7745 40.8209 29.8031 40.9725C29.9633 41.8221 30.4935 42.843 30.7699 43.6488C31.486 45.737 32.1234 47.7942 33.0664 49.7927C33.5954 50.9136 34.214 51.719 34.7914 52.7441C33.5855 53.8993 32.1439 55.5881 30.5353 56.1436C29.4483 56.5191 27.4672 56.8669 26.3227 56.9326C25.0759 57.0042 23.8191 56.9625 22.5868 57.2026C21.4477 55.4439 21.0605 52.4835 20.434 50.4592C20.0964 49.3684 19.564 45.1466 18.1746 45.1144C17.7461 45.5173 18.5329 46.7999 18.6697 47.3568C19.4084 50.363 20.1179 53.2498 21.0798 56.1995C18.8369 56.6706 17.0957 57.6471 15.8724 59.6128C15.6824 59.918 15.6341 60.2893 15.9956 60.4661C16.1155 60.4436 16.2724 60.3999 16.3402 60.3014C17.3371 58.8534 18.5594 57.7668 20.2793 57.2626C20.5554 57.1816 21.017 57.0033 21.3193 57.0597C21.4959 57.2316 21.424 57.1293 21.4912 57.4101L21.4585 57.4998L21.369 57.5196L21.1207 57.5769C20.7162 57.6708 20.1062 57.9073 19.7586 58.1298C19.0876 58.5592 17.1254 60.1533 17.1657 61.0229C17.3233 61.2754 17.7729 61.4182 17.9332 61.1998C18.375 60.5979 18.7338 60.1403 19.2774 59.6156C21.0605 57.8948 24.5445 57.9182 26.8454 57.9372C25.8706 60.0643 25.8057 61.8469 27.1607 63.8063C25.3523 64.3406 18.0042 65.9281 16.0936 65.0344C14.8909 64.4713 13.5964 59.7084 13.2134 58.4262C12.0059 53.4846 10.4909 47.9316 11.5655 42.9063C11.622 42.642 11.9024 41.8051 12.1019 41.657C12.3147 41.4177 12.2532 41.5516 12.3059 41.2463L12.2801 41.1364C12.6567 39.7693 15.0332 37.3269 15.8415 36.1219C16.7086 36.8888 17.7789 37.5178 18.7392 38.3553C19.4444 38.9676 20.1307 39.6013 20.797 40.2556C21.2367 40.6852 22.3126 41.9159 22.9023 41.9301C23.0614 41.8438 23.1284 41.8464 23.1799 41.6554C23.6328 39.9758 23.8827 38.6269 24.5839 37.0036C25.2485 37.7958 25.8677 38.7019 26.278 39.6541C26.4787 40.1198 26.5612 41.3218 27.3622 40.6148C27.525 40.3056 26.9974 38.5696 26.9916 37.9261C27.3183 38.2278 27.2831 38.592 27.3007 39.0386C27.3047 39.1431 27.3082 39.2476 27.3111 39.3521C27.4236 39.062 27.7444 38.4328 27.7837 38.2774L27.8267 38.2484C28.01 38.2984 28.2679 38.349 28.4557 38.3296C29.0769 38.2655 28.6416 36.8629 28.5563 36.5143L28.7776 36.5651C29.573 36.0989 29.9514 36.1254 30.5869 35.8641L30.5271 35.7756C30.3284 35.7581 30.3481 35.7487 30.1558 35.6779Z" fill="#BACAF3"/>
<path d="M12.3059 41.2463C13.7656 40.3854 16.9745 42.9495 17.7596 44.1231C17.8729 44.2926 17.6272 44.513 17.5022 44.5928C17.0217 44.6041 16.8461 44.1383 16.498 43.8543C15.6603 43.1711 14.8099 42.4769 13.8179 42.0281C13.3172 41.7957 12.3427 41.8418 12.1019 41.657C12.3147 41.4177 12.2532 41.5516 12.3059 41.2463Z" fill="#536FD4"/>
<path d="M96.3713 79.29C96.9494 89.1975 96.6713 100.132 95.0919 109.913C94.5138 113.345 93.8525 116.762 93.1075 120.161C92.6994 121.986 92.2213 123.816 91.8213 125.621C89.4088 125.623 86.8807 125.663 84.4769 125.606C85.1825 124.74 85.7544 123.706 86.3506 122.762C87.4075 121.089 88.325 119.31 89.2013 117.541C90.7294 114.454 92.2256 111.309 93.2494 108.015C93.5588 107.073 93.9 106.112 94.1444 105.149C94.355 104.323 94.7144 103.398 94.7269 102.556C94.6344 101.995 93.8375 101.969 93.6519 102.536C93.4413 103.182 93.39 103.831 93.1825 104.468C92.5788 106.322 92.0275 108.281 91.2975 110.086C89.7382 114.039 87.8931 117.874 85.7775 121.559C85.0081 122.903 83.9256 124.359 83.2331 125.623C81.0519 125.622 78.8388 125.641 76.6606 125.618C77.005 124.247 77.2713 122.858 77.4581 121.456C78.3 115.416 78.6956 109.301 79.0756 103.22C79.1038 102.771 79.1163 102.107 78.6663 101.9C77.7394 102.001 77.9675 103.169 77.9275 103.783C77.4669 110.922 76.8819 118.184 75.6282 125.237C75.3532 125.216 75.3888 125.174 75.2013 125.292L75.1319 125.548C74.725 125.696 72.7825 125.646 72.3194 125.581C72.4606 125.523 72.625 125.371 72.7382 125.268C72.7069 125.053 72.5125 124.968 72.2975 124.786C72.2894 124.348 72.5057 123.132 72.5482 122.564C72.7975 119.218 73.145 115.839 73.4013 112.498C73.5875 109.806 73.7463 107.113 73.8782 104.418C73.8988 103.988 74.0557 100.679 74.1269 100.421C74.2413 100.555 74.3132 100.707 74.4013 100.863C74.4469 100.308 74.4788 99.7532 74.4963 99.1975C74.5869 99.0538 74.6788 99.0094 74.825 98.9263L74.8088 98.805L74.9138 98.7119C75.5525 98.9407 76.22 99.33 76.8575 99.5925C80.7638 101.199 85.0069 102.282 89.2175 102.677C90.68 102.814 91.4538 103.243 91.9119 101.569C93.3106 96.4657 94.0475 91.1575 94.6569 85.9063C94.7944 84.6913 94.9175 83.475 95.0275 82.2575C95.0894 81.6207 95.1344 80.7738 95.2725 80.1732C95.6844 79.8732 96.0119 79.6494 96.3713 79.29Z" fill="#BACAF3"/>
<path d="M97.7313 87.2706C98.4213 86.7875 99.6013 85.4469 100.219 84.7944C101.671 83.275 103.108 81.7419 104.531 80.1963C108.418 75.915 112.349 71.6738 116.322 67.4725C117.719 65.985 119.051 64.5188 120.483 63.0563L120.504 79.06C120.506 82.4638 120.547 85.7919 120.514 89.2038C112.91 89.2981 105.331 89.1894 97.7338 89.2556L97.7313 87.2706Z" fill="#BACAF3"/>
<path d="M60.6414 2.2522L62.8013 2.25437L62.8294 62.7487L62.8138 81.2169L62.8075 86.6356C62.805 87.6819 62.7581 89.0844 62.8775 90.0969C63.35 90.2594 69.8494 90.1825 71.0006 90.1894C70.5625 90.9244 70.1088 91.65 69.64 92.3656C66.8744 92.4112 64.0075 92.3744 61.2343 92.375L47.3256 92.3856L37.1403 92.3788C37.3264 91.6231 37.3258 90.95 37.3566 90.1769C39.5416 90.0962 42.0503 90.15 44.2646 90.1525L54.4373 90.1288L58.048 90.1231C58.7311 90.1219 59.9261 90.165 60.5551 90.0031C60.7163 89.7788 60.6265 88.0075 60.6272 87.6056L60.649 81.6225L60.6335 55.2706L60.6446 22.6051C60.6997 15.8209 60.6986 9.03637 60.6414 2.2522Z" fill="#879FEE"/>
<path d="M104.962 61.8665C106.058 60.9212 107.879 58.8778 108.879 57.7983L114.244 52.056C115.239 50.9666 116.246 49.8878 117.264 48.8198C118.275 47.7745 119.598 46.4613 120.494 45.3429L120.491 55.4491C120.489 55.9683 120.546 58.5051 120.473 58.8796L103.768 76.9375L99.1269 81.9369C98.9194 82.1569 97.8831 83.3719 97.6994 83.4319C97.6981 82.095 97.5906 80.7606 97.6056 79.4231C97.61 79.0325 97.6075 78.6431 97.5856 78.2531C98.09 77.5988 98.6906 77.0569 99.2638 76.4513C100.669 74.9513 102.089 73.4525 103.256 71.7531C103.658 71.1669 103.713 70.6844 103.649 69.9981C103.582 69.2781 103.47 68.5956 103.314 67.8906C105.403 66.2838 105.612 64.3556 104.906 61.9395L104.962 61.8665Z" fill="#BACAF3"/>
<path d="M121.528 2.27075L123.488 2.28157L123.563 92.3781L99.7813 92.3949L97.795 92.3981L97.7906 90.3068L113.72 90.2662L118.344 90.2568C119.193 90.2593 120.399 90.3031 121.219 90.2387C121.443 89.9881 121.492 89.9112 121.501 89.5731C121.531 88.4262 121.523 87.2681 121.526 86.1212L121.549 79.8812L121.556 59.3731L121.528 2.27075Z" fill="#879FEE"/>
<path d="M12.0212 21.6287C11.7453 20.8592 12.0979 19.7715 12.4657 19.0865C13.5486 16.4612 21.0661 13.6399 23.8431 14.6292C23.9551 14.6691 23.9346 14.6613 24.0106 14.7308L23.9651 14.8232C23.8424 14.8311 23.8114 14.8339 23.6917 14.8738L23.6724 14.9693L23.9005 15.1374C23.9297 15.3999 23.6281 15.8127 23.4571 16.0234C22.3854 17.3441 21.5429 17.8199 19.8811 18.1352C19.5379 18.2003 18.2226 18.3077 17.8813 18.5664C17.8856 18.6071 17.8897 18.6479 17.8939 18.6886C18.5147 19.5911 20.0959 20.3277 19.8386 21.7694C19.683 22.6409 18.6839 23.0521 19.3888 24.2329L18.6402 24.8193C17.9617 24.2373 16.443 24.1257 15.8666 24.9222C15.0904 25.9945 15.9162 27.7976 16.8667 28.5265C17.0235 28.6467 17.3709 28.7669 17.5589 28.8285C17.5918 29.2325 17.6471 30.4896 17.3982 30.7861L17.3058 30.7356C17.4161 30.4425 17.4832 29.4577 17.3656 29.1649C17.054 28.9465 16.8352 29.2961 16.6914 29.5669C16.3847 30.1444 16.9447 30.0638 17.1099 30.5866C16.09 30.0086 15.5665 29.0982 14.665 28.3819C13.6444 27.571 11.5667 27.2024 11.3466 25.6282C11.185 24.4719 11.6528 23.2468 12.2927 22.2928C12.2079 22.0393 12.1324 21.8734 12.0212 21.6287ZM12.2398 20.4289C12.5343 20.2518 12.4735 19.9531 12.4018 19.6763C12.3107 19.9157 12.1675 20.1886 12.2398 20.4289Z" fill="#BACAF3"/>
<path d="M18.838 25.2489C18.829 25.0438 18.8071 24.9625 18.6402 24.8193L19.3888 24.2329C19.4845 24.3931 19.5746 24.4191 19.7226 24.4666C20.4212 24.3005 20.026 23.8813 20.089 23.7301C20.8579 21.8885 21.3332 21.1171 19.7919 19.2151C21.4615 18.8662 22.6194 18.593 23.7367 17.1946L23.7744 17.2458C24.2047 17.8196 24.6756 18.2028 25.0561 18.836C25.4279 19.4545 25.6611 20.1683 26.0502 20.7532C26.5819 20.967 28.2899 21.4666 28.4841 21.823C28.4433 22.563 26.988 22.8325 27.8316 23.6358C28.2149 24.0006 28.2657 24.0595 28.4625 24.5327C27.5499 25.0054 26.8307 25.2385 25.8512 25.5039C25.6705 25.5528 25.6747 25.5817 25.6071 25.722C25.671 26.018 25.6135 25.951 25.7975 26.142C26.4943 26.3883 27.9292 25.7019 28.5542 25.3378C28.8224 25.8364 29.4407 27.1418 29.2632 27.7114C29.0858 28.2806 28.2262 28.7208 27.6467 28.9628C26.1199 29.6003 24.2706 29.806 22.6398 29.358C21.6911 29.0974 21.1526 27.6015 20.3652 27.4566C20.3029 27.4451 19.7868 27.9916 19.65 28.0795C19.5309 28.1561 19.2832 28.2707 19.1451 28.334C17.7132 28.2278 16.6409 27.3509 16.4359 25.8816C16.4212 25.776 16.4724 25.6789 16.5221 25.5908C17.2697 24.9673 18.4429 26.1116 18.838 25.2489Z" fill="white"/>
<path d="M12.4018 19.6763C12.4735 19.9531 12.5343 20.2518 12.2398 20.4289C12.1675 20.1886 12.3107 19.9157 12.4018 19.6763Z" fill="#C6D0F0" fill-opacity="0.486275"/>
<path d="M12.3449 20.6394C13.0955 19.7238 15.126 19.6128 16.2229 19.3095C16.5023 19.2323 16.9466 19.1695 17.226 19.2325C17.3987 19.4006 17.3397 19.3033 17.4067 19.5375C17.3143 20.1257 16.2433 20.3767 15.7473 20.4411C15.0656 20.5295 13.162 21.2095 12.6046 21.0699L12.3449 20.6394Z" fill="#536FD4"/>
<path d="M12.4657 19.0865C12.5299 19.2507 12.462 19.5087 12.4018 19.6763C12.3108 19.9157 12.1675 20.1887 12.2398 20.4289C12.3558 20.5722 12.3479 20.5044 12.3449 20.6394L12.6046 21.0699C12.5183 21.1463 12.5334 21.1447 12.4267 21.1794C12.2216 21.246 12.1666 21.4967 12.0213 21.6287C11.7453 20.8592 12.0979 19.7715 12.4657 19.0865Z" fill="#C6D0F0"/>
<path d="M23.9063 19.2406C24.1866 19.2402 24.4097 19.2686 24.5676 19.5302C24.5547 19.5798 24.5418 19.6294 24.5289 19.6789C24.0852 19.9462 23.6067 20.1815 23.2347 20.5432C22.9293 20.84 22.7976 21.0754 22.5943 21.4098L22.4741 21.5003C22.2612 21.5251 22.3548 21.5494 22.182 21.4324C21.8346 20.5375 23.2588 19.5883 23.9063 19.2406Z" fill="#536FD4"/>
<path d="M24.4971 21.2889C25.1859 21.3814 25.6057 22.1722 24.9477 22.6563C24.1896 22.7588 23.8554 21.7799 24.4971 21.2889Z" fill="#243FC7"/>
<path d="M18.5689 26.1119C18.7831 26.0336 19.0212 26.1355 19.1124 26.3446C19.2036 26.5536 19.1164 26.7975 18.9133 26.9012C18.7705 26.9742 18.5989 26.962 18.4679 26.8693C18.3369 26.7767 18.2682 26.6191 18.2894 26.4601C18.3106 26.3011 18.4182 26.167 18.5689 26.1119Z" fill="#536FD4"/>
<path d="M76.1344 2.3171L84.6919 2.3147C83.1844 4.13639 81.6325 5.72294 80.0169 7.42869L74.3125 13.5151C71.71 16.3617 69.0869 19.1895 66.4431 21.9984C65.6606 22.818 64.5306 24.0837 63.7431 24.8263C63.7488 21.8807 63.6756 18.5426 63.7806 15.6362C64.9544 14.3092 66.2788 12.9601 67.5025 11.6661L72.9131 5.88132C73.9781 4.73178 75.1388 3.51624 76.1344 2.3171Z" fill="#BACAF3"/>
<path d="M94.575 2.25713L96.7463 2.25488L96.7644 45.8333C96.8025 53.1031 96.78 60.3733 96.6969 67.6425L96.1631 68.1681L95.4244 68.92C95.2256 68.1968 94.7194 67.1456 94.6138 66.4906C94.5138 65.8781 94.5494 64.5612 94.5494 63.8968L94.5563 59.2628L94.5806 43.074L94.575 2.25713Z" fill="#879FEE"/>
<path d="M105.71 53.014C109.046 49.5969 112.113 45.8244 115.485 42.4427C117.204 40.7193 118.784 38.8105 120.533 37.1412C120.515 37.6212 120.471 38.3847 120.546 38.8314C120.522 39.6659 120.489 40.5554 120.495 41.388L110.568 52.0025L105.524 57.3867C105.116 57.8156 103.783 59.2936 103.353 59.5347C103.748 58.2579 104.279 56.8849 104.731 55.6183C104.969 54.949 105.414 53.5957 105.71 53.014Z" fill="#BACAF3"/>
<path d="M85.76 36.8256C86.0944 37.1585 86.5212 37.6941 86.7237 38.125C86.7331 38.1453 86.7787 38.2915 86.7737 38.2964C86.3675 38.722 85.8525 39.1623 85.6019 39.7018C85.5181 39.8828 85.4862 40.1219 85.5675 40.2373C85.72 40.4556 85.6981 40.4275 85.8981 40.5097C86.4944 40.428 86.7594 39.3127 87.2356 39.3548C87.4262 39.5979 87.7975 40.5008 87.9712 40.8608C88.3262 41.4307 89.245 41.7025 89.985 42.4502C89.46 43.4398 88.7487 43.7908 89.5506 44.7959C89.4356 45.2874 89.3762 45.9532 89.3575 46.4674C89.3662 46.8249 89.5444 47.1927 89.3906 47.551C88.8875 48.7235 87.1331 48.745 86.0694 49.3143C85.6506 50.2715 85.3562 52.3852 85.25 53.4473C83.5194 52.348 82.43 51.6468 80.3969 50.9912C81.005 50.6562 81.4469 50.3901 81.9462 49.9049C82.3381 49.5246 82.2881 48.8831 82.65 48.6357C82.9406 48.6787 83.0744 48.7096 83.3612 48.6628C83.7444 48.54 84.5506 48.164 84.3887 47.6611C84.1225 47.4627 83.8437 47.4428 83.545 47.6224C81.9131 48.6028 79.515 44.7829 82.3119 44.651C82.7112 44.6322 83.3281 44.8153 83.6575 44.594C84.7262 42.3021 85.27 39.3284 85.76 36.8256Z" fill="white"/>
<path d="M87.8594 42.0211C87.6488 41.8718 87.5 41.887 87.1275 42.084C87.0063 42.1481 87.0594 42.3179 87 42.4815C87.0631 42.7245 87.0619 42.7125 87.215 42.9153C87.7044 43.1519 88.0894 42.4719 87.8594 42.0211Z" fill="#243FC7"/>
<path d="M88.6825 45.0285C88.8544 45.0235 88.85 45.0308 89.0156 45.0869C89.1969 45.3139 89.1856 45.2288 89.1775 45.4608C89.0388 45.6341 88.9006 45.6646 88.6944 45.7478L88.605 45.7836C88.4944 45.9312 88.5263 46.0454 88.5463 46.25L88.5594 46.3762C88.4438 46.5882 88.5275 46.5127 88.2931 46.6018C87.6812 46.4268 87.2844 45.9373 87.7481 45.324C87.9744 45.0248 88.3244 45.0546 88.6825 45.0285Z" fill="#536FD4"/>
<path d="M82.2568 45.2926C82.4062 45.3002 82.4206 45.3127 82.565 45.3617C82.915 45.7219 83.2925 46.0797 83.3206 46.611C83.2412 46.8306 83.2106 46.8269 83.0218 46.9623C82.2868 46.752 81.4181 45.9992 82.2568 45.2926Z" fill="#536FD4"/>
<path d="M35.6873 2.25298L37.6186 2.25098C37.5729 12.3431 37.5981 22.4355 37.6942 32.5273L37.0163 32.7888C36.6778 32.9628 35.9963 33.223 35.6218 33.3801L35.6873 2.25298Z" fill="#879FEE"/>
<path d="M36.1747 125.426L36.1536 125.543C35.9303 125.635 35.2032 125.584 34.9259 125.581L32.4358 125.57C29.8764 125.564 27.3086 125.546 24.7494 125.583C24.5685 125.586 24.4104 125.58 24.269 125.483C23.8177 124.488 23.9189 123.562 24.0999 122.506C24.1697 122.099 25.8354 122.345 26.3302 122.256C27.9819 121.959 29.4178 121.263 30.8837 120.488C32.5555 122.764 34.1018 123.555 36.6151 124.649L36.5101 124.67C36.1123 124.705 35.8948 124.774 35.9622 125.237C36.0651 125.344 36.0552 125.341 36.1747 125.426Z" fill="#BACAF3"/>
<path d="M120.512 31.5908C120.519 31.8408 120.535 32.0753 120.552 32.3248C120.552 32.5891 120.558 32.8535 120.571 33.1176C118.169 35.7873 115.627 38.3984 113.166 41.0135L105.996 48.7572C105.022 48.7164 104.432 49.6361 104.097 50.4383C102.739 51.9061 101.391 53.3823 100.051 54.8666C99.5269 55.4408 98.0969 56.926 97.755 57.4977C97.7462 57.067 97.7075 56.0005 97.7781 55.6285C99.5019 53.8506 101.111 51.9338 102.799 50.141L109.544 43.0156C110.503 42.0149 111.51 41.0607 112.454 40.0473L116.944 35.2614C118.152 33.9661 119.186 32.7753 120.512 31.5908Z" fill="#C6D0F0"/>
<path d="M63.7413 2.29686C66.5944 2.27451 69.6138 2.31354 72.4482 2.24219C71.4369 3.16139 70.5463 4.25729 69.6 5.22834C67.6744 7.20481 65.7213 9.47794 63.7575 11.3897L63.7413 2.29686Z" fill="#BACAF3"/>
<path d="M34.8482 53.8831C34.7023 54.2969 34.1906 54.7376 34.2501 55.0731C34.7273 55.1517 35.3156 54.3242 35.8511 54.1989C35.823 54.4546 34.8576 55.4274 34.6198 55.7467C36.7004 58.3732 40.1527 56.2677 42.8621 56.54L42.7876 56.5691C41.2572 57.1514 39.5281 57.418 37.9576 57.8877C37.4283 58.0459 37.2427 58.7542 37.953 58.7276L37.7993 58.8693L37.8028 59.0009C37.931 59.1222 37.9209 59.1144 38.0921 59.1596C37.6784 59.1553 37.3059 59.1747 37.2438 59.6864C37.3641 59.9815 37.4954 60.0227 37.8137 60.0385C38.0551 60.0032 38.066 59.988 38.3104 60.0465C38.4792 60.1139 38.4534 60.0896 38.6352 60.0939C38.6529 60.1455 38.6753 60.1977 38.6826 60.2497C38.4086 60.3931 38.2137 60.3815 37.9047 60.405C37.5635 60.4256 37.2998 60.3767 37.0301 60.5155C36.8727 60.7194 36.8362 60.8172 36.7906 61.0777C36.4724 61.0439 36.4394 60.9855 36.2029 61.1034L36.2119 61.1924C36.4396 61.2984 36.5195 61.3166 36.7902 61.2231L37.1242 61.3804L37.1372 61.4499C36.2507 61.6989 34.1407 61.4752 33.1492 61.4956C32.5373 61.5081 32.0027 61.5781 31.3965 61.6474C29.5396 58.6954 32.2114 56.6625 34.0331 54.7167C34.3041 54.4272 34.5625 54.1585 34.8482 53.8831Z" fill="#BACAF3"/>
<path d="M37.8137 60.0385C38.0551 60.0033 38.066 59.988 38.3104 60.0465C38.4793 60.114 38.4534 60.0897 38.6352 60.0939C38.6529 60.1455 38.6753 60.1978 38.6826 60.2498C38.4086 60.3932 38.2137 60.3815 37.9047 60.405C37.7231 60.3791 37.6706 60.371 37.4963 60.3177L37.4554 60.2306C37.5853 60.101 37.6399 60.0997 37.8137 60.0385Z" fill="#C6D0F0"/>
<path d="M20.3886 28.3052C20.5097 28.3607 21.0478 29.2386 21.2979 29.4687C22.5396 30.6107 23.9582 30.6184 25.4916 30.6249C24.9693 32.4712 24.4492 33.9479 25.2343 35.7959C25.4773 36.3679 25.7452 36.861 25.9741 37.4421C25.6063 36.9897 25.3821 36.6487 25.0622 36.1563C24.3199 35.3752 19.0787 33.1253 17.6834 32.4819C18.3817 31.7775 18.5594 30.2704 18.5843 29.2999C18.5848 29.2794 18.5824 29.1627 18.5908 29.1374C18.6069 29.1055 18.6231 29.0736 18.6393 29.0417C19.3998 28.8581 19.7014 28.8899 20.3251 28.3601L20.3886 28.3052Z" fill="white"/>
<path d="M4.97835 121.625C7.0788 121.6 8.60024 121.399 10.5766 120.583C10.8754 121.62 11.179 122.557 11.8646 123.418C12.1445 123.769 12.5207 124.069 12.8407 124.385C12.874 124.418 12.6987 124.654 12.6563 124.692C12.5238 124.811 12.4654 124.993 12.4085 125.159C12.4674 125.273 12.4292 125.236 12.5008 125.287L12.9564 125.583C12.6231 125.643 9.83005 125.646 9.37424 125.624C8.15674 125.569 5.86109 125.714 4.75949 125.576C5.02197 125.546 4.99314 125.51 5.10923 125.284C5.09875 125.022 5.14212 125.134 4.97878 124.934C4.7457 124.875 4.81123 124.896 4.54609 124.974C4.54614 124.509 4.35647 123.64 4.33239 123.122C4.3074 122.584 4.271 122.418 4.34806 121.854L4.47276 121.837C4.63634 121.812 4.65068 121.803 4.79828 121.718L4.78803 121.646C4.60702 121.632 4.62012 121.633 4.46344 121.727L4.39054 121.671C4.4321 121.474 4.43284 121.486 4.54572 121.316C4.75582 121.373 4.78707 121.475 4.97835 121.625Z" fill="url(#paint0_linear_292_351)"/>
<path d="M31.3876 63.1232C31.9927 63.26 34.6833 64.9269 35.362 65.2913C34.1837 65.9169 32.4552 66.2132 31.1363 66.35C30.4594 66.42 29.6294 66.6157 28.9819 66.6575C26.9977 66.7863 25 66.7 23.0156 66.6975C21.5309 66.6563 20.0144 66.4732 18.5368 66.3057C21.6872 66.0194 24.4355 65.5932 27.4916 64.7307C28.314 64.4988 28.4176 64.595 29.0146 63.9469C29.8131 63.7288 30.61 63.4125 31.3876 63.1232Z" fill="#BACAF3"/>
<path d="M17.0433 33.1736C17.7061 33.5857 18.9166 34.1184 19.6495 34.4678L23.9727 36.5505C23.1696 38.0818 23.0677 38.6648 22.6882 40.358C22.6834 40.4969 22.6698 40.6006 22.6541 40.7375C22.4205 40.6198 21.3326 39.4583 21.0259 39.1797C20.0454 38.2892 17.3702 35.9619 16.2407 35.4871C16.3728 34.9019 16.8258 33.8116 17.0433 33.1736Z" fill="#BACAF3"/>
<path d="M79.6288 51.7904C84.8369 54.1066 88.9225 57.122 91.47 62.4078C92.0557 63.6225 93.9132 67.3575 94.0369 68.5775L93.8688 68.8982C93.8657 68.7357 93.8813 68.7863 93.8088 68.6575C93.1394 67.4669 92.5194 66.2413 91.9138 65.0213C91.3469 63.8744 90.7325 62.7519 90.0725 61.6554C89.7394 61.0941 89.4069 60.5333 89.0363 59.9888C87.2113 57.3057 84.2769 55.5177 81.425 54.094C80.8157 53.7898 79.0932 53.27 78.9725 52.6693C79.0475 52.2953 79.3538 52.0526 79.6288 51.7904Z" fill="#BACAF3"/>
<path d="M56.0156 19.4863L56.1702 19.759C55.6709 20.1341 55.0375 20.8208 54.4961 21.2531C53.9821 21.6636 53.2371 22.267 52.7597 22.6753C52.4966 22.9003 52.0469 24.7585 51.9497 25.1813C51.9265 25.2825 51.9456 25.726 51.952 25.855C52.0404 25.9078 52.1281 25.9616 52.2152 26.0165C52.9107 26.4576 52.2749 26.5948 52.1844 27.209C52.1519 27.4297 52.2553 27.8056 52.3069 28.0318C51.6947 28.358 50.3881 29.134 49.9127 29.5866C49.4331 29.1592 48.9636 28.6942 48.6094 28.1575C48.2258 27.5763 48.2739 27.8448 48.0235 27.6878C48.1134 27.0414 51.1805 22.7189 51.8229 22.2895C53.0322 21.4812 54.7366 20.4943 56.0156 19.4863Z" fill="#BACAF3"/>
<path d="M37.5986 42.437L37.6382 42.4635C37.7156 42.6076 37.6834 49.1876 37.6838 49.9008C37.0254 50.5851 36.4249 51.4156 35.6772 52.017C35.5959 51.59 35.6407 49.7626 35.6403 49.2814C35.6388 47.3158 35.7026 45.3432 35.6261 43.3766C36.2464 43.1312 36.9934 42.7383 37.5986 42.437Z" fill="#879FEE"/>
<path d="M66.4044 89.2488C66.6956 88.7875 67.55 87.8731 67.9431 87.4394C68.9519 86.3288 69.9681 85.2256 70.9919 84.1294C71.7487 83.3138 75.2569 79.405 76.0112 78.9163C75.9025 79.5669 75.6269 80.9013 75.3487 81.4894C72.7731 84.0188 70.3462 86.7356 67.7862 89.2588C67.27 89.2831 66.9225 89.275 66.4044 89.2488Z" fill="#BACAF3"/>
<path d="M30.3226 57.2004C30.5707 57.5208 28.7216 60.2104 30.8178 62.1865C30.1041 62.5381 28.8506 63.0056 28.0783 63.3218C27.8205 63.1574 27.438 62.4786 27.3371 62.2043C26.8111 60.7749 27.1029 59.2024 27.8109 57.8809C28.446 57.7635 29.6511 57.3863 30.3226 57.2004Z" fill="#BACAF3"/>
<path d="M46.9773 27.6136C47.0787 27.7346 47.2093 28.2495 47.3258 28.468C48.0408 29.8095 48.7023 30.2295 49.9796 30.9483C49.4448 31.3405 48.7235 32.1263 48.1335 32.6243C47.1694 32.209 46.3603 31.5913 45.8398 30.6771C45.7532 30.5251 45.2365 29.6969 45.2095 29.6193C45.2644 29.2831 46.5696 28.1008 46.9773 27.6136Z" fill="#BACAF3"/>
<path d="M102.534 61.9086C102.461 62.1174 102.391 62.2316 102.456 62.4389C102.731 62.6575 103.138 62.1856 103.366 63.2169C103.41 63.4119 103.58 63.2531 103.658 63.4413C103.883 63.23 103.751 62.6338 103.89 62.2236C104.052 62.8925 104.465 64.4656 104.101 65.0563C103.915 64.9556 103.836 64.8856 103.63 64.9138C103.086 65.195 103.044 65.5925 102.513 65.8213C102.472 65.845 102.43 65.8694 102.389 65.8938C101.962 65.49 101.569 64.9075 101.08 64.5313C100.672 64.2175 100.06 64.09 99.7937 63.6556C99.5843 63.315 99.3462 63.3138 99.1806 62.9494C99.1987 62.3176 101.326 62.5088 101.831 62.3621C102.182 62.2599 102.292 62.165 102.534 61.9086Z" fill="#FDFCFB" fill-opacity="0.764706"/>
<path d="M97.7531 61.1455C98.7869 60.1644 99.8312 58.859 100.831 57.8311C101.065 57.5909 101.679 56.8365 101.892 56.7C101.237 58.4661 100.721 60.0039 100.129 61.7685C98.6394 61.5925 98.2956 61.6685 98.0612 63.2175C98.3431 63.7081 98.5456 63.8675 98.9762 64.2238C98.6031 64.9644 98.1725 65.675 97.6881 66.3488C97.6875 64.7981 97.6425 62.6794 97.7531 61.1455Z" fill="#BACAF3"/>
<path d="M34.9391 66.4337C35.0348 66.5393 35.1256 67.9787 35.15 68.2112C33.0812 68.7743 32.9702 68.8456 30.7977 69.0031L30.6731 68.9681C30.5786 68.7287 30.6199 67.7187 30.6221 67.405C32.5461 66.9975 32.7882 67.42 34.9391 66.4337Z" fill="#BACAF3"/>
<path d="M54.5715 22.433C54.98 22.7579 55.3155 23.2059 55.5864 23.6489C55.2247 24.2643 53.8786 25.3683 53.1898 25.7419C53.0042 25.6986 53.0002 25.7136 52.8648 25.586C52.7838 24.5935 55.8911 23.7119 54.0098 22.8611C54.1863 22.7185 54.3891 22.5715 54.5715 22.433Z" fill="#C6D0F0"/>
<path d="M91.3594 59.8723C92.0219 59.1499 92.7975 58.1607 93.5113 57.3672C93.5019 57.7436 93.5056 58.0893 93.5137 58.4656L93.505 58.5606C92.8244 59.1762 92.3156 59.9385 91.7356 60.4995C91.6319 60.3066 91.4756 60.0647 91.3594 59.8723Z" fill="#BACAF3"/>
<path d="M37.953 58.7276C38.4138 58.5814 39.2069 58.4943 39.7243 58.3614C40.6203 58.1312 41.5199 57.8987 42.4184 57.6794L42.3218 58.0279C41.4931 58.0087 40.7167 58.4771 39.8783 58.7536C39.2974 58.9464 38.6993 59.0824 38.0921 59.1596C37.9209 59.1144 37.931 59.1221 37.8028 59.0009L37.7993 58.8693L37.953 58.7276Z" fill="#C6D0F0"/>
<path d="M103.552 61.3867C103.681 61.6774 103.794 61.919 103.89 62.2237C103.751 62.6338 103.883 63.23 103.658 63.4413C103.58 63.2532 103.41 63.4119 103.366 63.2169C103.138 62.1857 102.731 62.6575 102.456 62.439C102.391 62.2317 102.461 62.1174 102.534 61.9086L102.632 61.832C103.179 61.9222 103.229 61.798 103.552 61.3867ZM103.712 63.1732C103.739 62.8238 103.837 62.4899 103.572 62.2296C103.507 62.6163 103.417 62.8619 103.712 63.1732Z" fill="#FDFCFB" fill-opacity="0.639216"/>
<path d="M103.572 62.2296C103.837 62.4899 103.739 62.8238 103.712 63.1732C103.417 62.8619 103.507 62.6163 103.572 62.2296Z" fill="#FDFCFB" fill-opacity="0.596078"/>
<path d="M103.827 54.9225C103.981 55.4895 102.911 57.8964 102.671 58.7292L102.589 58.7875L102.511 58.6982C102.525 58.3052 103.007 57.3139 102.898 57.0759C102.619 57.5167 102.622 57.7874 102.384 58.2544L102.35 58.319L102.289 58.2019C102.332 57.7595 102.926 56.0687 103.148 55.6758L103.261 55.6718C103.226 55.842 103.229 55.8825 103.228 56.0589L103.283 56.1107C103.481 55.9269 103.494 55.8158 103.59 55.551C103.593 55.4813 103.787 55.021 103.827 54.9225Z" fill="#FDFCFB" fill-opacity="0.454902"/>
<path d="M48.1046 60.7513L48.1381 60.7717C48.0717 60.9588 41.4083 66.6068 40.6641 67.3281L40.601 67.2406C40.6664 67.11 47.443 61.1748 48.1046 60.7513Z" fill="#BACAF3"/>
<path d="M35.4682 53.3153C35.5997 53.7352 35.6332 53.8185 35.8511 54.199C35.3156 54.3243 34.7273 55.1518 34.2501 55.0731C34.1906 54.7377 34.7023 54.297 34.8482 53.8831L35.4682 53.3153Z" fill="#BACAF3" fill-opacity="0.454902"/>
<path d="M28.5563 36.5142C28.5641 36.3135 28.5666 36.1127 28.564 35.912C28.8784 35.7692 29.7818 35.711 30.1558 35.6779C30.3481 35.7487 30.3284 35.758 30.5271 35.7756L30.5869 35.864C29.9514 36.1254 29.573 36.0989 28.7776 36.5651L28.5563 36.5142Z" fill="#BACAF3" fill-opacity="0.882353"/>
<path d="M38.3104 60.0465C38.5094 59.9456 38.4806 59.9762 38.6992 59.945C39.6555 59.8085 40.8412 59.5327 41.5954 58.9118C41.6394 58.8755 41.6715 58.8584 41.7066 58.8375C41.5822 59.5449 39.4597 60.1598 38.7979 60.291L38.6826 60.2498C38.6753 60.1978 38.6529 60.1455 38.6352 60.0939C38.4534 60.0896 38.4792 60.114 38.3104 60.0465Z" fill="#F6EFEF"/>
<path d="M17.1099 30.5866C16.9447 30.0637 16.3848 30.1444 16.6914 29.5669C16.8352 29.2961 17.054 28.9465 17.3656 29.1649C17.4833 29.4577 17.4161 30.4425 17.3058 30.7356L17.1099 30.5866Z" fill="#BACAF3" fill-opacity="0.894118"/>
<path d="M92.9131 62.6931L93.0525 62.5668C92.9169 62.2707 93.2688 61.9005 93.5463 61.8246C93.5494 62.5618 93.5325 63.4443 93.5694 64.1693C93.3513 63.6856 93.1144 63.1818 92.9131 62.6931Z" fill="#C6D0F0"/>
<path d="M102.35 58.319L102.384 58.2544C102.623 57.7874 102.619 57.5167 102.898 57.0759C103.007 57.3139 102.525 58.3052 102.511 58.6982C102.256 59.3557 102.063 59.6471 102.158 60.3291C101.883 59.8785 102.195 59.9362 101.924 59.4986C102.092 59.1956 102.239 58.6687 102.35 58.319Z" fill="#F6EFEF" fill-opacity="0.113725"/>
<path d="M102.633 61.832C102.726 61.5096 102.811 60.9441 103.187 60.912C103.403 61.026 103.441 61.1653 103.552 61.3867C103.229 61.798 103.179 61.9221 102.633 61.832Z" fill="#F6EFEF" fill-opacity="0.0156863"/>
<path d="M50.6797 58.5126C51.247 57.9873 53.1534 56.3228 53.7407 56.0166L53.7669 56.0463C52.8251 56.9135 51.5829 57.7817 50.7583 58.574L50.6797 58.5126Z" fill="#C6D0F0"/>
<path d="M25.7816 34.4838C25.9729 34.6884 26.0529 34.7655 26.2009 34.9983L26.2164 35.065C26.3235 35.0828 26.4303 35.1023 26.5368 35.1233L26.449 35.2872C26.268 35.6191 26.2551 35.6519 26.1506 36.0093L26.1249 36.0991C25.936 35.6276 25.7399 34.991 25.7816 34.4838Z" fill="#C6D0F0"/>
<path d="M84.1012 41.361C84.09 41.9495 83.4444 43.6256 82.8994 43.9973C82.9187 43.7626 83.9287 41.723 84.1012 41.361Z" fill="#BACAF3"/>
<path d="M26.9916 37.9261L26.9693 37.783C27.3345 37.7028 27.4178 38.1805 27.7837 38.2774C27.7444 38.4327 27.4236 39.062 27.3111 39.352C27.3082 39.2475 27.3047 39.143 27.3007 39.0386C27.2831 38.592 27.3183 38.2278 26.9916 37.9261Z" fill="#C6D0F0" fill-opacity="0.227451"/>
<path d="M74.1981 99.0138L74.2931 99.2769L74.3969 99.2875L74.4963 99.1975C74.4788 99.7532 74.4469 100.308 74.4013 100.863C74.3131 100.707 74.2413 100.555 74.1269 100.421C74.1913 100.163 74.1919 99.3119 74.1981 99.0138Z" fill="#BACAF3" fill-opacity="0.784314"/>
<path d="M37.1243 61.3804C37.5497 61.3517 37.902 61.3218 38.3225 61.2646C38.617 61.2246 39.2472 61.0798 39.505 61.0822C39.2023 61.2831 37.4241 61.7766 37.1372 61.4499L37.1243 61.3804Z" fill="#C6D0F0"/>
<path d="M54.1613 26.1372C54.5943 25.7969 55.3365 25.057 55.6477 24.8575L55.7063 24.894C55.6181 25.4029 55.3934 25.3801 54.9893 25.7019C54.8012 25.8516 54.4564 26.068 54.2519 26.1917L54.1613 26.1372Z" fill="#FDFCFB"/>
<path d="M50.6797 58.5126L50.7583 58.5739C50.2058 59.0659 48.891 60.2844 48.3057 60.6548C48.3571 60.4313 50.347 58.8142 50.6797 58.5126Z" fill="#BACAF3"/>
<path d="M55.8681 26.0583L55.911 26.097L55.913 26.208C55.5778 26.6584 54.9408 26.9618 54.4394 27.2521L54.4026 27.2137C54.4656 26.9627 55.5043 26.3563 55.8173 26.1007L55.8681 26.0583Z" fill="#FDFCFB"/>
<path d="M94.0369 68.5775C94.2469 69.0238 94.6094 69.485 94.575 69.945C94.2956 69.8125 94.0356 69.0856 93.8688 68.8981L94.0369 68.5775Z" fill="#FDFCFB"/>
<path d="M104.241 53.042C104.249 52.7925 104.23 52.4716 104.371 52.2786C104.533 52.2147 104.524 52.2219 104.701 52.231C104.631 52.6333 104.494 52.9389 104.416 53.3788C104.323 53.3819 104.376 53.3892 104.265 53.3359L104.241 53.042Z" fill="#F6EFEF" fill-opacity="0.156863"/>
<path d="M56.0156 19.4863C56.3148 19.2368 56.5694 18.9894 56.923 18.8333L56.9411 18.9031C56.6269 19.4267 56.5015 19.3876 56.1702 19.7589L56.0156 19.4863Z" fill="#C6D0F0"/>
<path d="M72.2975 124.786C72.5125 124.968 72.7069 125.053 72.7382 125.268C72.625 125.371 72.4606 125.523 72.3194 125.581C72.2338 125.591 72.2794 125.598 72.1894 125.533C72.175 125.272 72.2425 125.043 72.2975 124.786Z" fill="#BACAF3" fill-opacity="0.172549"/>
<path d="M104.241 53.042L104.265 53.3359C104.376 53.3892 104.323 53.3819 104.416 53.3788C104.266 53.7151 104.139 54.2024 104.046 54.3972C104.053 54.2144 104.062 54.17 104.029 53.9869C103.882 54.0157 103.811 54.0662 103.677 54.1364C103.754 53.8885 104.082 53.5569 104.241 53.042Z" fill="#F6EFEF" fill-opacity="0.415686"/>
<path d="M53.0672 27.3041C53.3527 27.2922 53.5638 27.2805 53.7388 27.5301L53.6737 27.6496C53.4187 27.7037 53.3195 27.7305 53.0874 27.6327C52.9841 27.442 53.0039 27.5461 53.0672 27.3041Z" fill="#F6EFEF"/>
<path d="M103.677 54.1364C103.811 54.0662 103.882 54.0158 104.029 53.9869C104.062 54.17 104.053 54.2144 104.046 54.3973L103.904 54.7102L103.673 54.7755C103.732 54.4647 103.752 54.4333 103.677 54.1364Z" fill="#FDFCFB" fill-opacity="0.168627"/>
<path d="M103.673 54.7755L103.904 54.7102L103.827 54.9225C103.788 55.0211 103.593 55.4813 103.59 55.5511L103.522 55.4701L103.418 55.4645L103.273 55.6247C103.28 55.4778 103.579 54.9664 103.673 54.7755Z" fill="#F6EFEF" fill-opacity="0.34902"/>
<path d="M36.7902 61.2232C36.5195 61.3166 36.4396 61.2985 36.2119 61.1925L36.2029 61.1035C36.4394 60.9855 36.4724 61.044 36.7906 61.0777L36.7902 61.2232Z" fill="#BACAF3" fill-opacity="0.94902"/>
<path d="M103.273 55.6247L103.418 55.4645L103.522 55.4701L103.59 55.5511C103.494 55.8159 103.481 55.9269 103.283 56.1108L103.228 56.0589C103.229 55.8826 103.226 55.8421 103.261 55.6719L103.273 55.6247Z" fill="#FDFCFB" fill-opacity="0.121569"/>
<path d="M77.5762 35.6473C78.1739 35.1412 78.8005 34.9752 79.5537 34.9144C81.6845 34.7424 83.8161 34.9234 85.9505 34.8301C84.5779 35.9634 84.3825 36.6271 83.4232 38.0533C82.9502 38.7591 82.4159 39.4119 81.8276 40.0027C80.9751 40.8436 79.9825 41.5549 78.9364 42.0686C78.7304 42.1697 78.5048 42.2785 78.3677 42.4782C78.1385 43.3793 78.9792 43.0634 79.3751 42.8804C81.083 42.0909 82.5235 40.7633 83.6602 39.172C84.8797 37.465 85.8414 35.4714 87.7605 34.5735C88.6594 34.1477 89.2621 34.4173 89.6229 35.4652C90.3158 37.6962 89.9914 39.9515 89.1354 42.0398C88.7626 40.1173 88.6738 39.3085 87.5832 37.6873C87.9157 37.3029 89.3074 35.9703 88.8889 35.6372C87.9829 34.9149 85.9306 38.6241 85.6274 39.0745C84.3608 40.7645 83.6591 41.5408 81.8111 42.3322C81.742 42.4434 81.7606 42.5789 81.7771 42.7091C81.8575 43.3445 82.8577 42.8906 83.1392 42.7867C83.3875 43.3955 83.6056 44.0155 83.5444 44.6849C82.6438 44.1787 81.7502 43.473 80.736 43.9871C79.66 44.5181 79.5052 45.9741 80.0686 47.0333C80.5132 47.8691 81.1144 48.203 81.9153 48.4647C81.78 49.6599 82.1151 50.3435 83.2576 50.684C83.4331 50.7363 83.6901 50.702 83.8127 50.8136L83.7835 50.9128C83.1548 51.6389 79.9984 52.011 79.0782 51.8351C78.6609 51.7552 77.5548 50.893 77.406 51.5276C77.2237 52.305 79.0691 52.7432 79.5388 52.9042C78.4341 53.2319 77.1487 53.2725 76.2691 52.3033C75.3979 51.3434 75.8014 50.0438 75.9484 48.8953C76.2541 46.505 74.4286 44.6967 74.3763 42.4191C74.4182 40.3618 76.2183 37.006 77.5762 35.6473Z" fill="#6881DB"/>
<defs>
<linearGradient id="paint0_linear_292_351" x1="10.2024" y1="126.61" x2="6.21974" y2="120.834" gradientUnits="userSpaceOnUse">
<stop stop-color="#B5C8F5" stop-opacity="0.968627"/>
<stop offset="1" stop-color="#BCCCF6"/>
</linearGradient>
</defs>
</svg>
