<svg width="64" height="64" viewBox="0 0 64 64" fill="none" xmlns="http://www.w3.org/2000/svg">
<mask id="mask0_268_1069" style="mask-type:luminance" maskUnits="userSpaceOnUse" x="6" y="6" width="52" height="52">
<path d="M6.66666 6.66666H57.3333V57.3333H6.66666V6.66666Z" fill="white"/>
</mask>
<g mask="url(#mask0_268_1069)">
<path d="M36.7733 7.04L35.2533 6.82667C30.6851 6.16709 26.0236 6.81962 21.8121 8.70818C17.6006 10.5967 14.0127 13.6435 11.4667 17.4933C8.75775 21.1733 7.14289 25.5433 6.80794 30.1005C6.47299 34.6577 7.43156 39.2169 9.57333 43.2533C9.79252 43.6579 9.92899 44.102 9.97477 44.5599C10.0206 45.0177 9.97474 45.4801 9.84 45.92C8.74666 49.68 7.73333 53.4667 6.66666 57.44L8 57.04C11.6 56.08 15.2 55.12 18.8 54.24C19.5598 54.082 20.3496 54.1564 21.0667 54.4533C24.2965 56.0297 27.8262 56.8969 31.4188 56.9968C35.0114 57.0967 38.5838 56.427 41.8963 55.0326C45.2088 53.6382 48.1847 51.5515 50.6243 48.9123C53.0639 46.2732 54.9107 43.1427 56.0409 39.731C57.1711 36.3194 57.5585 32.7054 57.177 29.1318C56.7955 25.5581 55.654 22.1073 53.8292 19.0111C52.0043 15.9149 49.5383 13.2448 46.5965 11.1801C43.6548 9.11535 40.3055 7.70375 36.7733 7.04ZM43.4933 42.0267C42.5241 42.8944 41.3423 43.4897 40.0682 43.752C38.794 44.0144 37.4731 43.9343 36.24 43.52C30.6532 41.9445 25.806 38.439 22.56 33.6267C21.3205 31.9243 20.3242 30.0574 19.6 28.08C19.2076 26.9327 19.1368 25.6999 19.3954 24.5153C19.6539 23.3307 20.2319 22.2394 21.0667 21.36C21.473 20.8414 22.0262 20.4571 22.654 20.2574C23.2819 20.0576 23.9553 20.0516 24.5867 20.24C25.12 20.3733 25.4933 21.1467 25.9733 21.7333C26.3644 22.8356 26.8178 23.9111 27.3333 24.96C27.7238 25.4947 27.8869 26.1621 27.7869 26.8166C27.687 27.4711 27.3322 28.0595 26.8 28.4533C25.6 29.52 25.7867 30.4 26.64 31.6C28.5255 34.3187 31.1289 36.4605 34.16 37.7867C35.0133 38.16 35.6533 38.24 36.2133 37.36C36.4533 37.0133 36.7733 36.72 37.04 36.4C38.5867 34.4533 38.1067 34.48 40.56 35.5467C41.3422 35.8756 42.0978 36.2578 42.8267 36.6933C43.5467 37.12 44.64 37.5733 44.8 38.2133C44.9539 38.9076 44.9134 39.631 44.6829 40.3037C44.4524 40.9765 44.0407 41.5727 43.4933 42.0267Z" fill="#536FD4"/>
</g>
</svg>
