<svg width="64" height="64" viewBox="0 0 64 64" fill="none" xmlns="http://www.w3.org/2000/svg">
<path d="M10.6667 53.3333C9.2 53.3333 7.94489 52.8116 6.90134 51.768C5.85778 50.7244 5.33511 49.4684 5.33334 48V16C5.33334 14.5333 5.856 13.2782 6.90134 12.2347C7.94667 11.1911 9.20178 10.6684 10.6667 10.6667H53.3333C54.8 10.6667 56.056 11.1893 57.1013 12.2347C58.1467 13.28 58.6684 14.5351 58.6667 16V48C58.6667 49.4667 58.1449 50.7227 57.1013 51.768C56.0578 52.8133 54.8018 53.3351 53.3333 53.3333H10.6667ZM32 34.6667L53.3333 21.3333V16L32 29.3333L10.6667 16V21.3333L32 34.6667Z" fill="#536FD4"/>
</svg>
