<svg width="64" height="64" viewBox="0 0 64 64" fill="none" xmlns="http://www.w3.org/2000/svg">
<g clip-path="url(#clip0_268_1133)">
<path d="M7.11111 64C5.15555 64 3.48207 63.3043 2.09067 61.9129C0.699259 60.5215 0.00237037 58.8468 0 56.8889V7.11111C0 5.15555 0.696889 3.48207 2.09067 2.09067C3.48444 0.699259 5.15793 0.00237037 7.11111 0H56.8889C58.8444 0 60.5191 0.696889 61.9129 2.09067C63.3067 3.48444 64.0024 5.15793 64 7.11111V56.8889C64 58.8444 63.3043 60.5191 61.9129 61.9129C60.5215 63.3067 58.8468 64.0024 56.8889 64H7.11111ZM35.5556 35.5556V56.8889H56.8889V35.5556H35.5556ZM35.5556 28.4444H56.8889V7.11111H35.5556V28.4444ZM28.4444 28.4444V7.11111H7.11111V28.4444H28.4444ZM28.4444 35.5556H7.11111V56.8889H28.4444V35.5556Z" fill="#536FD4"/>
</g>
<rect x="2" y="2" width="60" height="60" stroke="#536FD4" stroke-width="4"/>
<defs>
<clipPath id="clip0_268_1133">
<rect width="64" height="64" fill="white"/>
</clipPath>
</defs>
</svg>
