<svg width="64" height="64" viewBox="0 0 64 64" fill="none" xmlns="http://www.w3.org/2000/svg">
<g clip-path="url(#clip0_268_1107)">
<path d="M62.6667 56H44C43.6464 56 43.3072 56.1405 43.0572 56.3905C42.8071 56.6406 42.6667 56.9797 42.6667 57.3333V60C42.6667 61.0609 43.0881 62.0783 43.8382 62.8284C44.5884 63.5786 45.6058 64 46.6667 64H60C61.0609 64 62.0783 63.5786 62.8284 62.8284C63.5786 62.0783 64 61.0609 64 60V57.3333C64 56.9797 63.8595 56.6406 63.6095 56.3905C63.3594 56.1405 63.0203 56 62.6667 56ZM60 30.6667H31.3333C31.1565 30.6667 30.987 30.5964 30.8619 30.4714C30.7369 30.3464 30.6667 30.1768 30.6667 30V27.3333C30.6667 27.1565 30.7369 26.987 30.8619 26.8619C30.987 26.7369 31.1565 26.6667 31.3333 26.6667H42.6667C44.0812 26.6667 45.4377 26.1048 46.4379 25.1046C47.4381 24.1044 48 22.7478 48 21.3333V5.33333C48 3.91885 47.4381 2.56229 46.4379 1.5621C45.4377 0.561903 44.0812 0 42.6667 0L13.3333 0C11.9188 0 10.5623 0.561903 9.5621 1.5621C8.5619 2.56229 8 3.91885 8 5.33333V21.3333C8 22.7478 8.5619 24.1044 9.5621 25.1046C10.5623 26.1048 11.9188 26.6667 13.3333 26.6667H24.6667C24.8435 26.6667 25.013 26.7369 25.1381 26.8619C25.2631 26.987 25.3333 27.1565 25.3333 27.3333V30C25.3333 30.1768 25.2631 30.3464 25.1381 30.4714C25.013 30.5964 24.8435 30.6667 24.6667 30.6667H4C2.93913 30.6667 1.92172 31.0881 1.17157 31.8382C0.421427 32.5884 0 33.6058 0 34.6667L0 61.3333C0 62.0406 0.280952 62.7189 0.781049 63.219C1.28115 63.7191 1.95942 64 2.66667 64C3.37391 64 4.05219 63.7191 4.55229 63.219C5.05238 62.7189 5.33333 62.0406 5.33333 61.3333V41.3333C5.33333 40.9797 5.47381 40.6406 5.72386 40.3905C5.97391 40.1405 6.31304 40 6.66667 40H62.6667C63.0203 40 63.3594 39.8595 63.6095 39.6095C63.8595 39.3594 64 39.0203 64 38.6667V34.6667C64 33.6058 63.5786 32.5884 62.8284 31.8382C62.0783 31.0881 61.0609 30.6667 60 30.6667ZM13.3333 5.33333H42.6667V21.3333H13.3333V5.33333Z" fill="#536FD4"/>
<path d="M44 44H62.6667C62.6667 44 64 44 64 45.3333V50.6667C64 50.6667 64 52 62.6667 52H44C44 52 42.6667 52 42.6667 50.6667V45.3333C42.6667 45.3333 42.6667 44 44 44Z" fill="#536FD4"/>
</g>
<defs>
<clipPath id="clip0_268_1107">
<rect width="64" height="64" fill="white"/>
</clipPath>
</defs>
</svg>
