<svg width="128" height="128" viewBox="0 0 128 128" fill="none" xmlns="http://www.w3.org/2000/svg">
<path d="M55.0869 3.77327C55.276 3.75235 55.5554 3.74978 55.7487 3.74576C56.6089 3.72532 57.4628 3.89852 58.2471 4.25255C60.0929 5.10313 62.9306 7.43536 64.7069 8.64586C65.5488 9.21948 67.9275 10.8595 68.5681 11.4783C74.5262 12.2675 70.8031 18.2994 68.3344 20.6835C66.8637 22.1033 65.5719 22.9551 63.6206 23.5889C63.3469 24.12 63.0875 24.4128 62.705 24.868C62.9619 25.4006 64.195 27.0764 64.1681 27.458C64.0819 28.674 61.8848 28.6425 61.1288 29.0647C59.4035 30.028 58.2701 32.5018 56.1574 32.6895C54.9138 32.8044 53.8323 31.8046 52.9481 31.0585C52.7033 31.3319 52.4029 31.6185 52.1398 31.8809C52.4963 32.5116 52.8576 33.1435 53.2146 33.774C53.4591 34.2058 54.1826 35.2717 53.8717 35.7739C53.0854 37.0445 52.2627 38.1708 51.574 39.5166L53.1294 46.8526C53.3466 47.8356 53.5429 48.9162 53.8066 49.873C55.2306 49.2098 56.2577 48.4239 57.5431 47.6225C58.0964 47.2775 60.0424 46.5677 60.7048 46.3471C60.828 46.063 60.9591 45.7824 61.0978 45.5055C61.2494 45.2007 61.6389 44.4217 61.9147 44.2259C62.5494 43.7752 63.3375 43.3955 64.0325 42.9973C65.0994 42.3854 66.1744 41.5127 67.3113 41.0795C67.7256 40.9217 68.4175 41.1313 68.8025 41.3647C69.7569 40.2331 70.7038 38.8385 71.5575 37.6744C72.7475 36.0087 73.5662 34.5318 75.7175 36.0171C77.3744 37.1932 80.335 37.6703 78.3075 40.2486C77.4294 41.3653 76.4706 42.6384 75.6175 43.7826C76.4544 45.9841 73.3219 50.6935 71.57 51.9431C71.315 52.1254 70.35 52.6968 70.2538 52.9146C70.7444 53.043 72.4019 53.0019 73.0075 53.0014L77.56 52.9964L97.9131 52.9991C98.4275 51.9105 99.1381 50.6659 99.7131 49.5922L102.927 43.5223L105.777 38.0967C106.11 37.449 107.614 34.1472 108.236 34.1003C108.76 34.2534 110.202 34.8951 110.488 35.3844C110.436 35.9977 108.481 39.47 108.072 40.2394C106.449 43.3566 104.811 46.4649 103.154 49.5642L101.415 52.9C101.092 53.5217 100.611 54.3852 100.359 55.021L100.326 55.1072C100.794 55.1373 101.499 55.0975 102.004 55.0999C103.526 55.1069 105.049 55.1062 106.572 55.098C110.416 55.0832 114.261 55.0881 118.105 55.1123C118.859 55.1119 123.249 54.9795 123.638 55.2282C124.191 56.0214 123.879 59.5044 123.931 60.6234C123.974 61.5787 123.114 61.5051 122.404 61.465C122.373 62.8682 122.443 64.595 122.447 66.0313L122.456 76.3544L122.459 107.661L122.478 116.82C122.479 117.494 122.584 121.987 122.328 122.687C122.233 122.946 120.281 122.848 119.708 122.846L115.844 122.84L49.2022 122.869L28.8473 122.82L22.998 122.836C21.9214 122.841 20.8364 122.869 19.7629 122.8C19.0789 122.756 19.103 122.04 19.1886 121.531C19.3922 120.288 20.0882 119.178 21.1196 118.454C22.3483 117.608 23.4513 117.583 24.8639 117.851C25.6065 117.384 26.6644 116.708 27.4504 116.332C30.1032 115.063 33.5061 113.929 36.4348 113.734C36.4853 112.07 36.4385 110.129 36.4376 108.45L36.3895 97.065C33.6406 97.075 34.4613 96.3538 34.338 93.9925C31.9204 94.1275 29.2132 95.24 26.7916 95.0169C25.4427 94.8925 24.9021 93.2325 24.4394 92.1794C23.8882 90.9175 23.3445 89.6519 22.8082 88.3838C21.4917 85.315 19.9911 82.0338 18.6137 78.9763L9.0815 57.8599L6.12585 51.1989C5.47172 49.7275 4.32202 47.5534 4.07695 45.991C3.83936 44.4763 5.28574 42.8048 6.79043 42.6207C8.09306 42.4394 9.40343 42.2899 10.7197 42.1969C13.5392 41.9976 16.9631 40.7495 19.0161 43.4517C19.9653 44.7012 20.6857 46.5137 21.3652 47.9572C22.2269 49.7652 23.1019 51.5669 23.9901 53.362C24.4589 54.3202 24.9826 55.5022 25.4917 56.4055C25.8241 53.2354 26.231 50.2737 27.1005 47.1869C29.0813 40.1553 33.2458 32.6781 38.8559 27.9199C38.7185 27.7225 38.6553 27.6656 38.6264 27.4249C38.7907 26.8234 40.5825 25.5137 41.1464 25.1092C40.0765 24.1819 39.5533 23.477 39.323 22.0356C38.7908 18.7062 41.9789 18.0054 42.9859 15.677C43.8178 13.7536 43.8754 10.5555 45.3004 8.79274C47.2156 6.4238 52.1394 4.15889 55.0869 3.77327ZM59.3364 61.4469C59.3291 62.3568 59.2862 63.7657 59.3357 64.6475L67.9675 63.1694C69.8575 62.8388 73.3656 62.1017 75.1338 62.2346C76.695 62.3482 78.1963 62.885 79.4756 63.7875C81.5494 65.245 82.3319 67.5094 83.2744 69.73C84.0338 71.4813 84.775 73.24 85.4994 75.0057C87.12 78.9213 88.685 82.8594 90.1938 86.8194C90.7 88.1357 91.3063 89.5082 91.7663 90.83C92.13 91.7232 94.0856 96.3144 93.8838 96.7938C93.7194 97.1838 93.1731 97.3913 92.8156 97.5675C93.1413 98.5075 93.5419 99.3763 93.9675 100.274C95.8481 100.561 97.0288 100.337 98.9038 100.031C99.0038 97.0382 98.9094 93.5407 98.8913 90.53L98.8938 78.7519L98.8781 67.5282C98.8806 65.6194 98.9469 63.3319 98.8763 61.4696C97.2425 61.411 95.4056 61.4463 93.7569 61.4454L84.8363 61.4397C83.0413 61.4379 81.2462 61.4389 79.4512 61.4257C77.8512 61.414 76.2 61.3317 74.6038 61.4095C69.5375 61.4827 64.3719 61.3404 59.3364 61.4469ZM94.8594 121.543C96.1144 121.544 97.7206 121.599 98.9381 121.55C98.9813 120.123 98.9713 118.595 98.945 117.163C98.8856 113.929 99.0294 110.626 98.9263 107.4C96.6575 108.081 94.4963 109.151 92.4331 110.302C91.6369 110.746 90.8756 111.327 90.0388 111.688C89.7425 111.816 89.4531 111.918 89.15 111.747C88.2494 111.239 86.9575 106.589 86.78 105.444C86.7319 105.134 86.7575 104.866 86.9556 104.611C87.0294 104.516 87.1119 104.43 87.1963 104.345C86.8488 103.676 86.2744 102.252 85.86 101.778L85.5131 101.783C85.3219 101.787 85.0619 101.768 84.9469 101.613C84.425 100.909 83.8525 99.9932 83.3794 99.2694C82.2244 97.515 81.0469 95.7757 79.8463 94.0513C79.5356 93.6 78.6762 92.2563 78.3875 91.9119C76.6744 96.3138 74.93 100.704 73.1544 105.081C72.4706 106.803 71.8363 108.591 71.1569 110.314C70.9006 110.964 70.3975 111.043 69.7581 111.133C69.6706 111.591 69.5712 112.068 69.4969 112.525C70.2631 112.724 70.8694 113.568 71.4206 114.138C71.9581 114.683 72.5419 115.18 73.165 115.625C74.1275 116.325 74.785 116.679 75.9931 117.166C77.6881 117.851 80.4269 118.174 81.59 119.706C81.865 120.069 81.7662 121.059 81.7775 121.525C83.1119 121.613 85.2394 121.533 86.6313 121.527L94.8594 121.543ZM46.9774 114.436C49.6583 115.098 52.0988 116.268 54.4738 117.648C54.5326 115.229 54.5529 90.9232 54.4033 90.6925L54.1948 90.7063C51.3245 91.1832 48.4059 91.6007 45.551 92.09C45.5296 92.7625 45.675 96.6069 45.3866 96.8657C44.9927 97.2188 43.8939 97.05 43.3758 97.0819L43.4128 107.935L43.4049 111.344C43.3987 112.099 43.3604 113.006 43.4196 113.738C44.4734 113.86 45.9475 114.138 46.9774 114.436ZM61.5704 111.23C61.7623 110.396 61.9698 109.541 62.1455 108.705C61.3431 108.211 61.1699 107.628 61.3619 106.717C62.2226 102.633 62.8544 98.3963 63.8056 94.34C64.23 92.5875 64.6931 90.845 65.1956 89.1132C65.6938 87.4063 66.4169 85.8282 66.9181 84.2219C65.6394 83.9688 64.1231 83.8488 62.8131 83.6563C62.2834 83.5782 60.7713 83.31 60.3361 83.3057C60.9401 85.2244 61.0586 87.5394 59.3466 88.9575C59.2824 90.3125 59.319 91.6969 59.3134 93.055C59.2818 100.709 59.4529 108.386 59.3647 116.038C59.8324 114.717 60.3383 113.366 60.8976 112.078C61.1035 111.604 61.3468 111.821 61.5704 111.23ZM53.3814 24.3054C53.8046 25.0503 54.6574 25.599 54.3796 26.6137C54.0426 27.8449 52.7684 27.6045 51.9111 27.4147C52.1006 28.3754 52.7377 28.8727 53.3404 29.5759C55.8359 32.4878 56.518 31.7852 58.7969 29.4375C58.8078 29.4263 58.8187 29.4151 58.8296 29.4038C58.1739 28.838 57.6944 28.4596 57.4982 27.5787C57.4425 27.3284 57.7214 27.0157 57.9524 26.9534C58.6905 27.0127 58.9376 28.3662 59.7049 28.4312C59.9418 28.4512 60.3587 28.005 60.6051 27.9326C61.3323 27.7044 62.1157 27.6238 62.8388 27.3887C62.3756 26.5837 61.3361 25.3339 61.5991 24.5612C61.9004 23.6759 63.0619 22.6607 63.1175 21.6903L62.9881 21.6289C61.8995 21.8235 62.1786 20.9266 61.6568 20.6065C61.2227 20.3402 59.9978 20.7552 59.5759 20.4124C59.1081 18.9338 63.6138 18.9488 63.1881 21.581C64.0356 20.6979 65.0031 17.5385 64.9519 16.2908C61.9813 17.0725 61.0679 17.5195 57.8016 17.5655C57.4803 18.9192 57.0614 20.3322 55.9647 21.2802C55.0769 22.0476 54.6417 20.846 54.3619 20.2229C53.9721 19.3552 53.563 18.1575 52.5026 17.9635C51.3819 17.7281 50.9238 18.4794 50.7257 19.45C50.5302 20.4082 50.9245 21.209 51.4374 21.9727C51.8314 21.7655 52.1916 21.6489 52.3684 21.2686C49.9451 20.0301 52.4979 17.9469 53.1577 19.5119C53.325 19.9088 52.8364 20.7629 52.5748 21.1457C52.7109 21.2608 52.7084 21.3032 52.9033 21.2605C53.9064 21.041 53.9678 21.2749 54.5952 22.0305C55.7058 23.3677 54.2933 23.7303 53.3814 24.3054ZM62.2409 52.7252C63.8169 52.9121 66.1438 53.2369 67.435 52.1516C68.0838 51.6059 68.8631 50.1911 69.3438 49.4108C70.4731 47.523 70.8194 46.6386 72.915 45.5951C73.2713 45.4178 74.2944 44.9278 74.3669 44.5391C74.2744 44.4131 74.21 44.346 74.0494 44.3138C73.1894 44.1415 69.9813 45.9741 68.8281 46.2336C68.2088 46.373 67.4613 46.302 66.8269 46.2822C66.4706 46.2711 65.905 46.2664 65.695 45.9197C65.5969 45.7578 65.6331 45.5625 65.6988 45.3969C66.0413 44.528 68.1194 43.1844 68.0475 42.4577C67.8969 42.2203 67.8406 42.2012 67.5444 42.1737C65.9875 42.9686 64.4581 44.2325 62.6381 45.1247C61.1931 47.5942 61.0158 50.1029 62.2409 52.7252ZM27.7591 121.534C29.2309 121.708 31.3062 121.6 32.8394 121.593L41.6482 121.574C43.5494 121.593 45.4508 121.599 47.3521 121.592C48.6831 121.581 50.6224 121.523 51.9036 121.586C48.5607 119.68 42.0976 118.776 38.292 119.026C35.1765 119.235 30.5669 120.094 27.7591 121.534ZM67.1594 114.275C67.5275 114.02 67.7475 113.853 67.8731 113.409C68.1181 112.542 68.2487 111.649 68.4731 110.773C66.7719 110.261 65.0631 109.772 63.3475 109.308C63.0894 110.412 62.71 111.892 62.5081 112.998C63.7588 114.654 65.2175 115.269 67.1594 114.275ZM88.6325 104.433C90.0069 104.456 92.795 103.394 93.0925 101.751C93.1619 101.369 91.8094 98.4019 91.6113 98.3707C89.995 99.1919 88.5694 100.251 86.9588 101.074C87.4494 102.004 88.1694 103.649 88.6325 104.433ZM74.1244 36.586L74.0944 36.6889C74.0369 36.879 73.94 36.9741 73.9125 37.1657C74.2244 37.1149 74.3163 37.1576 74.55 37.3451C75.2056 37.5756 75.2469 37.8087 75.7056 38.0363C76.1394 38.3276 76.7612 39.0886 77.31 39.0294L77.4225 38.8936C77.385 38.6627 76.8606 38.3342 76.6444 38.0133C76.38 37.7832 74.555 36.8082 74.1244 36.586ZM59.4331 119.548C59.4394 120.203 59.4328 120.89 59.4854 121.539L59.8922 121.537C60.0179 121.382 59.9339 119.961 59.9238 119.688C59.7974 119.579 59.6264 119.584 59.4331 119.548ZM50.6309 33.7527C51.0011 34.3765 51.4993 35.1589 51.8383 35.7815C51.6154 36.0786 51.3858 36.3996 51.1439 36.679C51.1627 36.8824 51.1663 37.4543 51.2601 37.5517C51.7003 36.8632 52.1881 36.0645 52.6635 35.4122C52.4452 34.9983 51.5548 33.3023 51.2876 33.0466C51.0763 33.2701 50.8264 33.5207 50.6309 33.7527ZM101.076 104.608C101.668 104.281 106.883 100.829 107.169 100.509C107.052 100.349 106.814 100.288 106.618 100.213C105.968 100.518 103.939 101.78 103.317 102.211C103.053 102.363 101.039 103.585 100.912 103.732C101.085 103.878 101.036 103.79 101.089 103.988C101.002 104.251 100.907 104.413 100.733 104.636C100.805 104.36 100.893 104.131 100.603 103.986C100.273 104.027 98.6181 104.988 98.1456 105.201C95.6475 106.333 93.1238 107.389 90.74 108.753C90.4494 108.919 89.6069 109.318 89.3975 109.526C89.5019 109.822 89.6375 110.076 89.7769 110.356C91.2656 109.668 92.7275 108.671 94.2163 107.942C96.3256 106.91 98.8575 106.441 100.596 104.796C100.663 104.733 100.707 104.689 100.735 104.661C100.793 104.602 100.779 104.607 100.733 104.641C100.578 104.758 100.054 105.212 100.642 104.713C100.67 104.69 100.7 104.664 100.733 104.636L100.733 104.641L100.735 104.661L100.749 104.772C100.938 104.771 100.892 104.757 101.076 104.608ZM53.7633 121.171C53.981 121.332 54.1136 121.453 54.3738 121.537C54.5379 121.377 54.5214 119.8 54.4213 119.686C54.0301 120.03 53.5801 120.409 53.2056 120.764L53.7633 121.171ZM52.6634 22.7827L53.0758 22.9497C53.3302 22.8654 53.3988 22.8465 53.5313 22.6577L53.5044 22.5434C53.0908 22.3928 52.9781 22.5652 52.6634 22.7827ZM72.8944 37.9919C72.7 38.2459 72.3944 38.6249 72.23 38.8819C72.4256 39.3124 72.8981 39.6517 73.3463 39.3644L73.1 38.7885L73.0256 38.7112C73.0069 38.3619 73.0169 38.3097 72.8944 37.9919ZM53.8347 61.2622C53.1902 61.4041 52.9061 61.8662 52.8319 62.5007C52.7735 62.9988 52.6764 65.3213 52.8517 65.6219C53.0253 65.6325 53.0881 65.6382 53.2646 65.6225L54.3783 65.4394C54.3759 64.8407 54.4459 61.4567 54.2844 61.2894C54.0918 61.2657 54.0337 61.2569 53.8347 61.2622ZM44.5351 26.6249C46.1929 28.2932 47.8709 29.954 49.2165 31.889C49.4379 32.2075 49.6708 32.5235 49.911 32.8279L50.6981 31.9016C51.1906 31.3675 51.7359 30.7964 52.2088 30.2512C51.757 29.6025 51.2828 28.9541 50.8671 28.2834C48.6538 27.7204 47.0806 27.2896 45.1291 26.0568L44.5351 26.6249ZM61.3346 120.068C61.3502 120.6 61.3669 121.063 61.4168 121.592C62.85 121.626 64.2831 121.646 65.7169 121.652C66.4025 121.652 67.8181 121.606 68.4525 121.67C67.7794 121.189 62.3691 120.363 61.3346 120.068ZM73.4206 47.4007L73.425 47.2924L73.245 47.2242L73.1769 47.2713C72.8112 47.5226 72.6606 47.5257 72.32 47.8622C71.9156 48.3517 70.7156 49.7564 70.6269 50.3107C70.4056 50.6009 70.1581 50.8779 70.0369 51.2154L70.0663 51.3259C70.3831 51.2867 70.9181 50.8177 71.1819 50.6087C71.6456 50.1898 72.0744 49.7047 72.45 49.2048C72.7587 48.7944 73.0119 48.5949 72.95 48.1011C73.3231 47.8522 73.3319 47.8364 73.4206 47.4007ZM63.8913 54.7429C63.7288 54.5524 63.4294 54.4389 63.1944 54.3259L61.996 54.9714C62.3879 54.925 63.5813 54.9146 63.8263 54.8602C64.5494 54.8052 64.3963 55.3379 65.02 54.9909L65.0519 54.2726C64.3306 54.2889 64.4225 54.5741 63.8913 54.7429ZM69.3206 44.8612C69.535 44.4793 69.6994 44.5092 69.9381 44.1708L69.9025 44.0956C69.5237 44.061 69.4356 44.0647 69.1312 44.2956L68.9987 44.2399L68.8819 44.1073C68.5375 44.1667 68.16 44.7857 68.0619 45.103L67.7938 45.1794C68.3913 45.185 68.7888 45.1277 69.3206 44.8612ZM60.2083 117.438C60.1563 117.713 60.1059 117.988 60.0572 118.263C62.6781 119.149 65.6212 119.634 68.3256 120.321C69.6437 120.656 71.3269 121.243 72.6025 121.437C73.2575 121.536 75.005 121.504 75.7288 121.505C77.3331 121.513 78.9381 121.506 80.5425 121.485C80.5594 121.079 80.5475 120.906 80.5088 120.507C78.8856 120.494 77.2625 120.493 75.6394 120.501C73.8725 120.503 72.2112 120.558 70.46 120.077C67.6869 119.314 64.8813 118.6 62.0846 117.921C61.4917 117.777 60.7788 117.628 60.2083 117.438Z" fill="#536FD4"/>
<path d="M44.5351 26.6249C46.1929 28.2932 47.8709 29.954 49.2165 31.889C49.4379 32.2075 49.6708 32.5235 49.911 32.8279L50.6981 31.9016C51.1906 31.3675 51.7359 30.7964 52.2088 30.2512C51.757 29.6025 51.2828 28.9541 50.8671 28.2834C48.6538 27.7204 47.0806 27.2896 45.1291 26.0568L44.5351 26.6249Z" fill="white"/>
<path d="M62.2409 52.7252C63.8169 52.9121 66.1438 53.2369 67.435 52.1516C68.0838 51.6059 68.8631 50.1911 69.3438 49.4108C70.4731 47.523 70.8194 46.6386 72.915 45.5951C73.2713 45.4178 74.2944 44.9278 74.3669 44.5391C74.2744 44.4131 74.21 44.346 74.0494 44.3138C73.1894 44.1415 69.9813 45.9741 68.8281 46.2336C68.2088 46.373 67.4613 46.302 66.8269 46.2822C66.4706 46.2711 65.905 46.2664 65.695 45.9197C65.5969 45.7578 65.6331 45.5625 65.6988 45.3969C66.0413 44.528 68.1194 43.1844 68.0475 42.4577C67.8969 42.2203 67.8406 42.2012 67.5444 42.1737C65.9875 42.9686 64.4581 44.2325 62.6381 45.1247C61.1931 47.5942 61.0158 50.1029 62.2409 52.7252Z" fill="white"/>
<path d="M88.6325 104.433C90.0069 104.456 92.795 103.394 93.0925 101.751C93.1619 101.369 91.8094 98.4019 91.6113 98.3707C89.995 99.1919 88.5694 100.251 86.9588 101.074C87.4494 102.004 88.1694 103.649 88.6325 104.433Z" fill="white"/>
<path d="M67.1594 114.275C67.5275 114.02 67.7475 113.853 67.8731 113.409C68.1181 112.542 68.2487 111.649 68.4731 110.773C66.7719 110.261 65.0631 109.772 63.3475 109.308C63.0894 110.412 62.71 111.892 62.5081 112.998C63.7588 114.654 65.2175 115.269 67.1594 114.275Z" fill="white"/>
<path d="M60.2083 117.438C60.1563 117.713 60.1059 117.988 60.0572 118.263C62.6781 119.149 65.6212 119.634 68.3256 120.321C69.6437 120.656 71.3269 121.243 72.6025 121.437C73.2575 121.536 75.005 121.504 75.7288 121.505C77.3331 121.513 78.9381 121.506 80.5425 121.485C80.5594 121.079 80.5475 120.906 80.5088 120.507C78.8856 120.494 77.2625 120.493 75.6394 120.501C73.8725 120.503 72.2112 120.558 70.46 120.077C67.6869 119.314 64.8813 118.6 62.0846 117.921C61.4917 117.777 60.7788 117.628 60.2083 117.438Z" fill="white"/>
<path d="M100.733 104.636C100.805 104.36 100.893 104.131 100.603 103.986C100.273 104.027 98.6181 104.988 98.1456 105.201C95.6475 106.333 93.1238 107.389 90.74 108.753C90.4494 108.919 89.6069 109.318 89.3975 109.526C89.5019 109.822 89.6375 110.076 89.7769 110.356C91.2656 109.668 92.7275 108.671 94.2163 107.942C96.3256 106.91 98.8575 106.441 100.596 104.796C100.663 104.733 100.707 104.689 100.735 104.661L100.733 104.641C100.71 104.659 100.678 104.684 100.642 104.713C100.445 104.874 100.143 105.137 100.642 104.713C100.67 104.69 100.7 104.664 100.733 104.636Z" fill="white"/>
<path d="M101.076 104.608C101.668 104.281 106.883 100.829 107.169 100.509C107.052 100.349 106.814 100.288 106.618 100.213C105.968 100.518 103.939 101.78 103.317 102.211C103.053 102.363 101.039 103.585 100.912 103.732C101.085 103.878 101.036 103.79 101.089 103.988C101.002 104.251 100.907 104.413 100.733 104.636L100.733 104.641C100.779 104.607 100.793 104.602 100.735 104.661L100.749 104.772C100.938 104.771 100.892 104.757 101.076 104.608Z" fill="white"/>
<path d="M53.3814 24.3054C53.8046 25.0503 54.6574 25.599 54.3796 26.6137C54.0426 27.8449 52.7684 27.6045 51.9111 27.4147C52.1006 28.3754 52.7377 28.8727 53.3404 29.5759C55.8359 32.4878 56.518 31.7852 58.7969 29.4375L58.8296 29.4038C58.1739 28.838 57.6944 28.4596 57.4982 27.5787C57.4425 27.3284 57.7214 27.0157 57.9524 26.9534C58.6905 27.0127 58.9376 28.3662 59.7049 28.4312C59.9418 28.4512 60.3587 28.005 60.6051 27.9326C61.3323 27.7044 62.1157 27.6238 62.8388 27.3887C62.3756 26.5837 61.3361 25.3339 61.5991 24.5612C61.9004 23.6759 63.0619 22.6607 63.1175 21.6903L62.9881 21.6289C61.8995 21.8235 62.1786 20.9266 61.6568 20.6065C61.2227 20.3402 59.9978 20.7552 59.5759 20.4124C59.1081 18.9338 63.6138 18.9488 63.1881 21.581C64.0356 20.6979 65.0031 17.5385 64.9519 16.2908C61.9813 17.0725 61.0679 17.5195 57.8016 17.5655C57.4803 18.9192 57.0614 20.3322 55.9647 21.2802C55.0769 22.0476 54.6417 20.846 54.3619 20.2229C53.9721 19.3552 53.563 18.1575 52.5026 17.9635C51.3819 17.7281 50.9238 18.4794 50.7257 19.45C50.5302 20.4082 50.9245 21.209 51.4374 21.9727C51.8314 21.7655 52.1916 21.6489 52.3684 21.2686C49.9451 20.0301 52.4979 17.9469 53.1577 19.5119C53.325 19.9088 52.8364 20.7629 52.5748 21.1457C52.7109 21.2608 52.7084 21.3032 52.9033 21.2605C53.9064 21.041 53.9678 21.2749 54.5952 22.0305C55.7058 23.3677 54.2933 23.7303 53.3814 24.3054Z" fill="white"/>
<path d="M109.735 61.5312L114.524 61.5019C115.506 61.498 116.789 61.4636 117.743 61.5516C117.782 63.4787 117.744 65.5024 117.748 67.4374L117.736 83.6399L117.777 121.615L106.516 121.577L103.687 121.581C103.669 115.916 103.736 110.207 103.658 104.547C105.18 103.191 107.119 102.312 108.57 100.912C109.113 100.388 108.316 99.7993 107.999 99.5087C106.521 98.1531 105.386 98.5006 103.636 98.8756L103.634 61.5665C105.668 61.5375 107.701 61.5258 109.735 61.5312Z" fill="#7D9DFA"/>
<path d="M73.5969 63.4612C74.8125 63.255 76.4894 63.5656 77.6031 64.1006C78.7131 64.6306 79.6563 65.4556 80.3294 66.485C81.4781 68.2456 82.8994 72.06 83.77 74.1381C85.6244 78.5425 87.4069 82.9769 89.1181 87.4387C89.6619 88.8612 90.2519 90.2756 90.76 91.7106C89.8788 92.3481 88.6006 93.0325 87.6363 93.6006L82.9538 96.3906C81.4794 94.5119 80.4838 92.4656 78.83 90.5337C79.7288 88.1606 81.0238 83.9269 81.055 81.425C81.0763 80.3587 80.89 79.2987 80.5062 78.3037C79.3331 75.3225 77.0631 73.8531 74.2738 72.6462C74.6488 72.1044 77.1388 68.7556 75.4094 68.725C74.7756 68.9456 74.4475 70.0162 74.1575 70.5812C73.3481 72.1937 72.3781 72.9075 70.745 73.5581C66.2806 75.3362 61.8125 77.14 57.2354 78.6131C56.4786 78.9219 55.2144 79.2975 54.4199 79.5631C52.7694 80.05 50.9876 80.7775 49.2954 81.1006C44.9291 81.9331 40.4871 82.8187 36.1112 83.5737C32.5888 82.1031 30.4367 78.4462 29.3152 74.9519C34.7152 74.6406 42.2655 72.6506 47.1537 70.24C46.3143 71.1381 40.2576 78.1875 40.1874 78.8956C40.1724 79.0462 40.243 79.2056 40.3468 79.3112C40.4702 79.435 40.6389 79.5031 40.8137 79.4994C41.2841 79.4869 41.6736 78.7931 41.9544 78.4625C43.1088 77.105 44.1782 75.6812 45.3202 74.3119C46.9035 72.4125 48.4747 70.5019 50.0628 68.6069C50.4585 68.135 50.8852 67.605 51.3329 67.1862L51.3972 67.1269C52.8207 66.8575 54.3002 66.5906 55.7377 66.4156C61.6774 65.6931 67.6869 64.2094 73.5969 63.4612Z" fill="#7D9DFA"/>
<path d="M39.6021 28.8552C39.912 29.0375 40.4722 29.5452 40.7717 29.8055C42.5995 31.3948 44.4069 33.3163 45.751 35.3354C46.2245 36.0974 46.5949 36.8758 46.9657 37.694C47.2611 38.2597 47.4435 39.1321 47.9398 39.5503C48.2219 39.788 48.6354 39.5509 48.8176 39.2852C48.9842 39.7073 48.8501 42.0758 48.8744 42.6767C48.9991 45.759 49.1625 48.725 49.7699 51.7524C49.0353 52.1635 48.1814 52.613 47.4137 52.9463C47.0393 51.6045 46.9862 50.1376 46.7512 48.7618C46.1493 45.237 46.5246 41.3919 45.5669 37.9774C45.0057 35.9762 43.6428 33.6894 41.7951 32.6807C39.3469 31.3443 36.9348 34.5689 36.0979 36.4849C33.086 43.6317 35.4396 52.4443 37.9132 59.3592C38.421 60.6866 39.8207 63.655 40.9261 64.5375C42.4538 65.7569 45.032 64.925 46.675 64.3494C47.2044 64.1638 47.9911 63.8113 48.5227 63.7425C48.5822 63.8775 48.5641 64.2257 48.5662 64.3938C41.8592 67.545 34.635 69.4513 27.2461 70.0175C26.6696 66.7157 26.4192 63.365 26.4988 60.0145C26.8015 49.179 29.9293 39.2309 37.3149 31.0647C37.969 30.3415 38.8773 29.541 39.6021 28.8552Z" fill="#B6CAFD"/>
<path d="M73.0706 73.7956C73.5619 73.745 74.3356 74.0662 74.785 74.2581C76.7644 75.1031 78.555 76.7512 79.3281 78.7931C79.6275 79.5812 79.7787 80.4169 79.7737 81.2594C79.7619 85.5625 76.5031 93.225 74.8744 97.3619L73.0031 102.035C72.5512 103.184 72.0694 104.527 71.5681 105.626C68.83 104.671 66.1325 103.882 63.4375 102.957C63.7669 100.738 64.26 98.3537 64.6825 96.1375C65.5056 92.0587 66.7419 88.075 68.3719 84.2469C68.9331 84.0331 70.5387 83.7525 70.6675 83.3656C71.23 81.6719 67.9537 83.0212 67.645 83.1644C65.5094 82.7575 63.3556 82.5162 61.2436 82.1294C58.6126 81.6475 56.6252 81.0994 53.9366 80.98C57.6076 79.9213 61.4091 78.4637 65.0087 77.1387C67.4169 76.2525 70.8931 75.0194 73.0706 73.7956Z" fill="#7D9DFA"/>
<path d="M40.3856 33.5129C40.7431 33.5278 41.1117 33.6054 41.4103 33.8158C43.6957 35.4233 44.7284 38.5269 44.9258 41.2058C45.2092 45.0509 45.2175 48.8913 46.0713 52.6698C44.0097 53.7699 42.7358 55.1414 41.9429 57.3448C41.8437 57.6396 41.5328 58.2865 41.7627 58.5762C42.0537 58.9633 42.6151 59.0275 42.8154 58.5177C43.6565 56.3766 44.3141 54.9854 46.3904 53.7894C45.2071 55.2443 44.4405 56.6524 44.128 58.5465C44.0822 58.8237 43.6177 61.0389 44.7556 60.7239C45.2831 60.5778 45.2794 59.304 45.3861 58.7539C45.6563 57.3609 46.1981 55.7293 47.2374 54.6826C48.0568 53.9442 49.9356 53.1553 50.9682 52.6488C52.2897 52.0143 53.5969 51.3504 54.8887 50.6576L56.3217 49.8513C56.3202 52.054 56.7015 54.3524 58.0343 56.1654C56.9909 56.8369 55.9102 57.7514 54.8707 58.4728C52.4572 60.1476 49.8112 61.8251 47.0645 62.8944C45.8159 63.38 43.2416 64.2656 42.0532 63.74C40.6394 63.1138 38.9627 58.6906 38.4399 57.1559C36.4687 51.3709 34.6614 42.8889 37.1975 37.0514C37.7289 35.8283 39.0901 33.9738 40.3856 33.5129Z" fill="#B6CAFD"/>
<path d="M14.4444 43.0364C15.4215 42.947 16.876 42.9722 17.5401 43.6933C18.7816 45.0415 19.8441 47.6912 20.6198 49.3075L23.3523 54.9208C23.9281 56.1257 24.7961 57.7884 25.2453 59.0263C25.3419 59.2928 25.2739 61.4279 25.2767 61.9113C25.2768 63.2418 25.3416 64.5712 25.471 65.895C25.7063 68.3237 26.3636 72.3531 27.3734 74.6693C27.4193 74.775 27.9411 75.1943 28.0683 75.2993C29.3751 78.8362 30.8378 81.5812 33.9608 83.825C31.9298 84.1462 29.9831 84.6087 27.8899 84.9143L27.6508 84.9506C27.5147 84.8993 27.4142 84.8606 27.3579 84.7062C26.9933 83.7075 26.5496 82.7518 26.1124 81.7831L21.9458 72.4943L13.4209 53.721L10.8366 47.9366C10.1753 46.416 9.71906 44.7483 8.44331 43.6505C10.4411 43.4211 12.4416 43.2164 14.4444 43.0364Z" fill="#7D9DFA"/>
<path d="M55.6916 4.96163C56.8253 4.93558 57.7177 5.30308 58.6774 5.8951C61.3926 7.56992 63.8219 9.62755 66.4775 11.3907C63.8975 11.419 63.1219 11.967 60.8033 12.6735C59.6581 13.0247 58.4817 13.2649 57.2904 13.3908C55.5767 13.5569 53.7988 13.46 52.1171 13.1027C51.7859 13.0322 51.4248 12.953 51.0968 13.0495C50.0874 13.825 51.3602 14.2172 51.9875 14.3649C54.6934 15.0017 57.5134 14.8222 60.1806 14.0919C63.0419 13.3086 65.8244 11.9898 68.8738 12.6937C70.3063 13.0177 70.8156 13.836 70.4 15.2857C69.4244 18.3067 67.1994 20.4655 64.4675 21.9791C65.5794 19.5718 66.1294 18.6185 66.1288 15.9105C66.8431 15.7847 69.6081 15.5572 69.3731 14.831C68.865 13.2575 63.37 15.4815 62.6375 15.7045C59.7331 16.4282 58.2541 16.656 55.3773 15.8988C55.2034 15.9589 55.1158 16.1219 55.0299 16.2772C54.6106 17.0355 56.1885 17.4176 56.6132 17.5509C56.4185 18.427 56.1781 19.2889 55.5601 19.9602C54.8831 18.6255 54.3766 17.0809 52.7329 16.7519C51.0009 16.387 49.6304 17.8285 49.4506 19.4674C49.3086 20.7608 49.764 21.6474 50.5193 22.6303C49.3844 23.8062 49.2339 24.8392 50.338 26.2057C50.5076 26.4157 50.8462 26.6029 50.9036 26.8308L50.7878 26.9128C49.4377 27.15 45.3203 24.796 44.3511 23.8019C43.9115 23.3509 43.2754 21.4512 42.5798 22.0084C41.7277 22.6911 43.602 24.7774 44.0389 25.3619C42.4374 24.7519 40.8508 23.6731 40.5753 21.8555C40.3024 20.0551 41.8463 19.0004 42.9574 17.885C45.2695 15.5639 44.5327 12.0114 46.3205 9.49948C48.0431 7.30842 52.9462 5.24687 55.6916 4.96163Z" fill="#7D9DFA"/>
<path d="M6.44331 44.1947C8.1625 44.097 8.76256 46.4518 9.34737 47.748L12.0106 53.6954L23.7341 79.6594L27.2847 87.6694C27.6877 88.5757 28.0626 89.4919 28.4748 90.3963C28.7172 91.0994 29.216 90.9625 29.8827 90.8344C38.8935 89.105 48.018 87.8263 57.0424 86.215C57.1432 87.1582 57.2032 87.9619 57.2564 88.91C56.8341 88.9707 56.3701 89.0638 55.9462 89.1394L40.3585 91.7294C36.1185 92.4125 31.5819 93.1063 27.3834 93.9457C26.2258 93.4963 26.2215 92.9407 25.7442 91.8494L24.3734 88.6932L19.7165 78.2344L16.5641 71.3744C15.4373 68.8594 14.3608 66.2894 13.2041 63.7919L8.82637 54.1596C7.74906 51.7708 6.67287 49.3965 5.66221 46.9773C5.14306 45.7347 5.19037 44.917 6.44331 44.1947Z" fill="#B6CAFD"/>
<path d="M94.6206 56.4675C96.4838 56.456 99.0569 56.3727 100.893 56.4866C100.894 57.7283 100.876 58.97 100.838 60.2112C96.3206 60.2977 91.4763 60.1895 86.9263 60.1893L61.3605 60.1728C60.0605 60.1622 58.7603 60.1663 57.4604 60.1853C56.702 60.1908 55.5847 60.2276 54.8561 60.1047C56.1562 58.9522 58.0039 57.7797 59.486 56.5608C62.5319 56.5181 65.6769 56.5648 68.735 56.5603L94.6206 56.4675Z" fill="#B6CAFD"/>
<path d="M118.908 61.5635C119.615 61.5494 120.358 61.5608 121.069 61.5621L121.113 121.594L118.932 121.601L118.875 79.6681L118.869 68.1813C118.866 66.0944 118.801 63.6138 118.908 61.5635Z" fill="#7D9DFA"/>
<path d="M61.1539 21.4255C62.4257 21.5529 62.0099 22.9596 61.0545 23.388C59.7323 23.2974 60.2784 21.9503 61.1539 21.4255Z" fill="#536FD4"/>
<path d="M49.4174 82.3963C50.029 82.2982 52.1514 82.4063 52.733 82.5232C54.3719 82.8526 55.5652 83.5863 56.5102 84.95C53.8359 85.4682 51.3795 85.8382 48.7146 86.2826L34.264 88.7476C32.7265 89.0482 30.9683 89.2651 29.5178 89.5763C29.0139 88.3751 28.5806 87.425 27.9877 86.2619C31.6237 85.5613 35.3613 84.9501 39.0146 84.2819C42.4256 83.6582 45.9986 82.9363 49.4174 82.3963Z" fill="#7D9DFA"/>
<path d="M100.213 61.5265C100.656 61.5255 102.115 61.4673 102.371 61.6903C102.487 62.3962 102.444 64.4919 102.444 65.3256L102.465 72.0125C102.506 81.0519 102.498 90.0919 102.441 99.1313L101.874 99.3175C101.293 99.5106 100.708 99.6888 100.119 99.8532C100.041 97.4657 100.11 94.8119 100.106 92.3925L100.076 78.77L100.068 67.9419C100.065 66.0594 100.057 64.1757 100.07 62.2933C100.072 62.0238 100.045 61.7354 100.213 61.5265Z" fill="#B6CAFD"/>
<path d="M103.158 56.4036C105.686 56.3463 108.303 56.374 110.839 56.3749L122.673 56.3729C122.696 57.5337 122.704 59.0685 122.639 60.2119L121.689 60.2428C115.144 60.3085 108.6 60.3103 102.056 60.2483C102.049 59.0388 102.046 57.6336 102.114 56.4374L103.158 56.4036Z" fill="#7D9DFA"/>
<path d="M37.6867 97.145C39.1773 97.1219 40.6681 97.11 42.1588 97.1088C42.0908 102.552 42.1115 108.171 42.1243 113.619C40.7193 113.447 39.0684 113.472 37.6625 113.555L37.6752 105.61C37.6639 102.817 37.6198 99.9313 37.6867 97.145Z" fill="#B6CAFD"/>
<path d="M38.4774 114.839C39.0922 114.762 40.4546 114.807 41.0742 114.835C44.6157 114.991 47.938 115.852 51.1518 117.331C52.0597 117.749 52.9439 118.078 53.7951 118.654C53.2189 119.132 52.3453 119.559 51.6466 120.103C48.552 118.581 44.5668 117.855 41.1406 117.743C37.421 117.606 34.0769 117.996 30.5252 119.126C29.4059 119.482 28.3665 119.926 27.2664 120.293C26.8454 119.559 26.6126 119.093 25.9115 118.597C29.6266 116.177 34.1211 115.176 38.4774 114.839Z" fill="#B6CAFD"/>
<path d="M57.8517 90.0719L57.952 90.0681C58.0842 90.2725 58.0001 97.6312 58.0023 98.3606C58.0553 106.091 58.061 113.821 58.0194 121.551L56.1094 121.52C55.8888 121.512 55.9649 121.555 55.8191 121.451C55.7264 120.694 55.7954 118.904 55.7905 118.032C55.7745 115.455 55.7759 112.877 55.7948 110.299L55.7967 98.6069C55.7615 95.8937 55.7649 93.18 55.8071 90.4669C56.5116 90.3481 57.1571 90.245 57.8517 90.0719Z" fill="#B6CAFD"/>
<path d="M48.7828 65.4325C48.9745 65.735 49.2978 66.97 49.4073 67.37C48.5578 68.5069 46.2954 69.3787 44.9905 69.9112C40.914 71.5744 36.6065 72.7512 32.2478 73.3712C30.9096 73.5619 29.5841 73.7437 28.2299 73.75C27.988 73.0581 27.7482 71.9044 27.5724 71.1525C29.5007 71.045 31.5246 70.7137 33.4294 70.3962C38.5533 69.5412 44.1976 67.9312 48.7828 65.4325Z" fill="#B6CAFD"/>
<path d="M102.372 105.371C102.376 105.374 102.381 105.377 102.384 105.381C102.549 105.591 102.509 119.997 102.516 121.564L100.244 121.581L100.157 121.537C100.01 120.948 100.13 117.629 100.134 116.776C100.154 113.457 100.149 110.137 100.12 106.817C100.809 106.337 101.653 105.833 102.372 105.371Z" fill="#B6CAFD"/>
<path d="M78.2131 54.1563C84.56 54.1044 90.9075 54.1144 97.2538 54.1862C97.2525 54.5411 97.2338 54.9064 97.2206 55.2618L85.2656 55.2786L72.35 55.2846C71.1231 55.2811 69.8969 55.2838 68.67 55.2929C67.9881 55.2977 67.0575 55.3314 66.395 55.2774L66.3456 55.2163C66.335 54.8969 66.2525 54.4247 66.4025 54.2186C66.7063 54.1057 77.1581 54.1596 78.2131 54.1563Z" fill="#B6CAFD"/>
<path d="M69.6069 113.986C69.9825 114.336 70.405 114.957 70.8531 115.364C73.5544 117.816 75.2381 118.309 78.5681 119.283C76.9431 119.161 75.0381 119.345 73.4006 119.276C71.925 119.212 70.2294 118.722 68.7975 118.333C67.0088 117.809 65.2081 117.324 63.3981 116.879C62.5163 116.653 61.5414 116.355 60.6581 116.212C60.9456 115.477 61.2307 114.709 61.5613 113.995C61.6775 114.159 61.7834 114.303 61.914 114.455C62.6769 115.345 63.76 115.897 64.9281 115.992C66.1538 116.081 67.3975 115.726 68.425 115.038C68.6813 114.866 69.3019 114.247 69.6069 113.986Z" fill="#B6CAFD"/>
<path d="M41.749 26.1071C42.1935 26.1966 42.6675 26.7431 43.0151 27.0398C45.8986 29.5041 48.3693 32.4138 50.3335 35.6587C49.7031 36.4674 49.1878 37.1122 48.5914 37.9583L48.5621 37.9657C48.536 37.9543 48.5099 37.9428 48.4838 37.9314C48.0262 36.9056 47.5548 35.8697 46.965 34.9124C46.3616 33.9385 45.6281 33.0432 44.8901 32.1711C43.7928 30.8742 42.6091 29.6703 41.2738 28.6171C40.8742 28.3019 40.4465 27.9658 40.0789 27.6141L40.0176 27.555C40.4558 27.1439 41.258 26.5194 41.749 26.1071Z" fill="#B6CAFD"/>
<path d="M72.8944 37.9918C73.1906 37.5942 73.7144 36.7389 74.1244 36.5859L74.0944 36.6888C74.0369 36.8789 73.94 36.974 73.9125 37.1656C74.2244 37.1148 74.3163 37.1574 74.55 37.3449C75.2056 37.5755 75.2469 37.8086 75.7056 38.0362C76.1394 38.3274 76.7613 39.0885 77.31 39.0293L77.4225 38.8934C77.385 38.6626 76.8606 38.3341 76.6444 38.0132C77.0663 38.2337 77.4063 38.4333 77.7588 38.7639C77.5038 39.1993 77.1725 39.6441 76.8606 40.0424C76.0813 41.0378 75.3481 42.1047 74.5513 43.0827C73.0319 43.0206 70.8381 44.3099 69.3206 44.8611C69.535 44.4792 69.6994 44.5091 69.9381 44.1707L69.9025 44.0954C69.5238 44.0609 69.4356 44.0646 69.1313 44.2954L68.9988 44.2397L68.8819 44.1072C68.5375 44.1666 68.16 44.7856 68.0619 45.1029L67.7938 45.1793C67.9113 44.6908 71.6981 39.6173 72.23 38.8818C72.4256 39.3123 72.8981 39.6516 73.3463 39.3643L73.1 38.7884L73.0256 38.7111C73.0069 38.3618 73.0169 38.3096 72.8944 37.9918Z" fill="#B6CAFD"/>
<path d="M72.8944 37.9918C73.1906 37.5942 73.7144 36.7389 74.1244 36.5859L74.0944 36.6888C74.0369 36.8789 73.94 36.974 73.9125 37.1656C74.2244 37.1148 74.3163 37.1574 74.55 37.3449C75.2056 37.5755 75.2469 37.8086 75.7056 38.0362C75.7044 38.6623 75.6719 38.9584 75.1894 39.4149C74.5788 39.9931 73.8906 39.952 73.3463 39.3643L73.1 38.7884L73.0256 38.7111C73.0069 38.3618 73.0169 38.3096 72.8944 37.9918Z" fill="#536FD4"/>
<path d="M72.8944 37.9918C73.1906 37.5942 73.7144 36.7389 74.1244 36.5859L74.0944 36.6888C74.0369 36.8789 73.94 36.974 73.9125 37.1656C74.2244 37.1148 74.3163 37.1574 74.55 37.3449C73.69 37.505 73.2875 37.9503 73.1 38.7884L73.0256 38.7111C73.0069 38.3618 73.0169 38.3096 72.8944 37.9918Z" fill="#B6CAFD"/>
<path d="M104.121 100.076L104.201 100.08L104.2 100.133C102.639 101.031 101.196 102.088 99.6531 102.976C96.73 104.658 93.3925 105.655 90.535 107.466C90.2244 107.663 89.1737 108.37 88.8862 108.319L88.7481 108.06C88.4494 107.364 88.2594 106.485 88.0787 105.741C89.0031 105.695 89.6812 105.697 90.565 105.396C92.4869 104.743 93.8831 103.889 94.3744 101.844C97.2719 101.826 100.31 101.128 103.089 100.345C103.43 100.249 103.777 100.163 104.121 100.076Z" fill="#B6CAFD"/>
<path d="M91.0662 93.0444L91.1544 93.0701C91.545 93.5582 92.2725 95.6738 92.495 96.3332C91.91 96.7288 85.7537 100.324 85.5931 100.341L85.4506 100.167L83.67 97.5063C85.9319 96.0832 89.0037 94.5001 91.0662 93.0444Z" fill="#7D9DFA"/>
<path d="M63.0887 104.239C64.005 104.458 65.0619 104.818 65.9669 105.109C67.6837 105.644 69.3831 106.232 71.0631 106.871C70.7244 107.753 70.4412 108.728 70.0619 109.584C69.9819 109.734 69.9725 109.731 69.8456 109.848C69.5769 109.837 67.6987 109.201 67.2675 109.063L62.5119 107.56C62.6169 106.669 62.8912 105.131 63.0887 104.239Z" fill="#7D9DFA"/>
<path d="M43.9777 92.3963C44.1995 92.3582 44.1158 92.3319 44.2906 92.3988C44.3663 93.0044 44.3098 95.025 44.3056 95.7619C41.5324 95.83 38.7583 95.8525 35.9844 95.8294C35.7207 95.815 35.8037 95.8719 35.6689 95.7307C35.5623 95.2013 35.6175 94.415 35.6355 93.8513C36.7921 93.5744 38.1892 93.3775 39.3759 93.1825L43.9777 92.3963Z" fill="#B6CAFD"/>
<path d="M60.1237 47.7544C60.2413 47.9077 60.1858 49.5215 60.2156 49.8951C60.3282 51.3066 60.6932 52.4988 61.3894 53.7192C60.5519 54.2341 59.717 54.8804 58.8825 55.3541C57.9088 53.9708 57.2062 50.4977 57.7958 48.8905C58.4851 48.6173 59.3484 48.0923 60.1237 47.7544Z" fill="#B6CAFD"/>
<path d="M108.496 35.5762L109.109 35.8445C108.451 37.2124 107.448 38.9344 106.709 40.3282L100.654 51.8385C100.082 52.9404 99.405 54.0764 98.8725 55.1576C98.595 55.2051 98.5194 55.2622 98.3875 55.0051C98.395 54.6284 98.5656 54.3214 98.7394 53.9934C101.988 47.8802 105.121 41.6146 108.496 35.5762Z" fill="#7D9DFA"/>
<path d="M50.1509 37.856C50.2649 38.0941 50.3164 38.61 50.3474 38.887C50.6244 41.3597 51.2362 43.7451 51.7519 46.177C52.044 47.6119 52.3256 49.049 52.5965 50.4881L52.1401 50.7451C51.7761 50.9412 51.3961 51.1074 51.0199 51.2796C50.2033 48.2467 50.0414 43.7976 50.0607 40.6615C50.0656 39.8843 50.0245 38.5963 50.1509 37.856Z" fill="#B6CAFD"/>
<path d="M23.2337 118.955C25.0828 118.919 25.8669 119.991 26.4281 121.562L23.6094 121.581L20.438 121.566C20.9649 120.183 21.647 119.212 23.2337 118.955Z" fill="#7D9DFA"/>
<path d="M56.2288 61.5312C56.8252 61.4971 57.4894 61.498 58.0914 61.486C58.0856 62.6012 58.0732 63.7162 58.0543 64.8312L57.1326 65.0162C56.7744 65.05 56.0114 65.2181 55.6281 65.2906C55.6274 64.5875 55.5708 62.1985 55.6586 61.627C55.8305 61.5121 56.0136 61.5368 56.2288 61.5312Z" fill="#B6CAFD"/>
<path d="M55.9547 82.4387C57.7842 82.5537 59.3295 83.14 59.4827 85.2425C59.5478 86.1362 59.3057 86.8206 58.905 87.6006C58.7424 87.8918 58.6303 88.0343 58.4306 88.2931C58.3141 85.6806 58.0971 84.2318 55.9547 82.4387Z" fill="#7D9DFA"/>
<path d="M51.3906 62.1763L51.4412 62.1914C51.4777 62.2599 51.4939 65.2381 51.5047 65.5894C51.1963 65.8 50.7739 66.2731 50.4151 66.1869L50.2889 65.9706C49.9361 65.0613 49.7044 64.11 49.5995 63.1406C50.2026 62.8306 50.7997 62.5088 51.3906 62.1763Z" fill="#B6CAFD"/>
<path d="M53.0758 22.9496C51.2554 24.494 53.2514 25.4572 53.1366 26.2783C52.7723 26.541 52.1938 26.082 51.8671 25.9057C50.5456 25.1925 50.5766 24.0415 51.7393 23.1751C51.9684 23.0043 52.3673 22.7404 52.6634 22.7826L53.0758 22.9496Z" fill="#B6CAFD"/>
<path d="M106.618 100.213C106.814 100.288 107.052 100.349 107.169 100.509C106.883 100.829 101.668 104.281 101.076 104.608C101.086 104.514 101.099 104.436 101.181 104.373C102.014 103.726 102.809 103.037 103.6 102.339L103.55 102.26C103.446 102.258 103.415 102.244 103.317 102.211C103.939 101.78 105.968 100.518 106.618 100.213Z" fill="#FEFEFE" fill-opacity="0.988235"/>
<path d="M51.2876 33.0465C51.5547 33.3022 52.4452 34.9982 52.6635 35.4121C52.1881 36.0644 51.7002 36.8631 51.2601 37.5516C51.1663 37.4542 51.1627 36.8823 51.1439 36.6789C51.3858 36.3995 51.6154 36.0785 51.8382 35.7814C51.4992 35.1588 51.0011 34.3764 50.6309 33.7526C50.8264 33.5206 51.0763 33.27 51.2876 33.0465Z" fill="#B6CAFD" fill-opacity="0.988235"/>
<path d="M61.1057 55.3764C61.7326 54.9878 62.5369 54.5376 62.9862 53.9744C63.3481 54.0112 64.8006 54.0948 65.0394 54.1601L65.0519 54.2726C64.3306 54.2889 64.4225 54.5741 63.8912 54.7429C63.7287 54.5524 63.4294 54.4389 63.1944 54.3259L61.996 54.9714C62.3879 54.925 63.5812 54.9146 63.8262 54.8602C64.5494 54.8052 64.3962 55.3379 65.02 54.9909C65.0869 55.2049 65.0825 55.1005 65.0381 55.3157C64.7669 55.4414 61.6239 55.3787 61.1057 55.3764Z" fill="#B6CAFD"/>
<path d="M72.32 47.8622C72.2769 48.1951 72.2288 48.1463 72.3606 48.38C72.6494 48.4756 72.7719 48.3156 72.95 48.1011C73.0119 48.5949 72.7588 48.7944 72.45 49.2048C72.0744 49.7047 71.6456 50.1898 71.1819 50.6087C71.0106 50.4558 71.0544 50.4607 70.9688 50.2089L70.8569 50.1769L70.6269 50.3107C70.7156 49.7564 71.9156 48.3517 72.32 47.8622Z" fill="#C2D1F8" fill-opacity="0.341176"/>
<path d="M74.1244 36.5859C74.555 36.8081 76.38 37.7831 76.6444 38.0132C76.8606 38.3341 77.385 38.6626 77.4225 38.8934L77.31 39.0293C76.7613 39.0885 76.1394 38.3274 75.7056 38.0362C75.2469 37.8086 75.2056 37.5755 74.55 37.3449C74.3163 37.1574 74.2244 37.1148 73.9125 37.1656C73.94 36.974 74.0369 36.8789 74.0944 36.6888L74.1244 36.5859Z" fill="#B6CAFD" fill-opacity="0.717647"/>
<path d="M100.732 104.636C100.907 104.413 101.002 104.251 101.089 103.988C101.036 103.79 101.085 103.878 100.912 103.732C101.039 103.585 103.052 102.363 103.317 102.211C103.415 102.244 103.446 102.258 103.55 102.26L103.6 102.339C102.809 103.037 102.014 103.726 101.181 104.373C101.099 104.436 101.086 104.514 101.076 104.608C100.892 104.757 100.938 104.771 100.749 104.772L100.732 104.636Z" fill="#FEFEFE" fill-opacity="0.905882"/>
<path d="M72.23 38.8818C72.3944 38.6249 72.7 38.2458 72.8944 37.9918C73.0169 38.3096 73.0069 38.3619 73.0256 38.7112L73.1 38.7884L73.3463 39.3644C72.8981 39.6517 72.4256 39.3123 72.23 38.8818Z" fill="#B6CAFD" fill-opacity="0.847059"/>
<path d="M72.32 47.8621C72.6606 47.5257 72.8112 47.5226 73.1769 47.2712L73.245 47.2241L73.425 47.2924L73.4206 47.4007C73.3319 47.8364 73.3231 47.8521 72.95 48.101C72.7719 48.3155 72.6494 48.4755 72.3606 48.3799C72.2288 48.1462 72.2769 48.195 72.32 47.8621Z" fill="#B6CAFD" fill-opacity="0.176471"/>
<path d="M68.9988 44.2398L69.1313 44.2955C69.4356 44.0647 69.5238 44.0609 69.9025 44.0955L69.9381 44.1707C69.6994 44.5092 69.535 44.4792 69.3206 44.8611C68.7888 45.1277 68.3913 45.185 67.7938 45.1794L68.0619 45.1029C68.5831 44.9051 69.0806 44.8513 68.9988 44.2398Z" fill="#B6CAFD" fill-opacity="0.929412"/>
<path d="M70.6269 50.3106L70.8569 50.1768L70.9687 50.2088C71.0544 50.4606 71.0106 50.4557 71.1819 50.6086C70.9181 50.8176 70.3831 51.2866 70.0662 51.3258L70.0369 51.2153C70.1581 50.8778 70.4056 50.6008 70.6269 50.3106Z" fill="#C2D1F8" fill-opacity="0.141176"/>
<path d="M63.1944 54.3259C63.4294 54.4389 63.7288 54.5524 63.8913 54.7429L63.8263 54.8602C63.5813 54.9146 62.3879 54.925 61.996 54.9714L63.1944 54.3259Z" fill="#B6CAFD" fill-opacity="0.933333"/>
<path d="M68.0619 45.103C68.16 44.7857 68.5375 44.1667 68.8819 44.1073L68.9988 44.2399C69.0806 44.8514 68.5831 44.9052 68.0619 45.103Z" fill="#B6CAFD" fill-opacity="0.376471"/>
<path d="M73.425 47.2924C73.3531 47.1941 73.3181 47.1535 73.2162 47.0874C73.3662 46.88 73.9656 46.5008 74.2044 46.2969C74.0419 46.6413 73.7431 47.336 73.4706 47.5769C73.4531 47.5215 73.4281 47.4559 73.4206 47.4007L73.425 47.2924Z" fill="#B6CAFD"/>
</svg>
