<svg width="64" height="64" viewBox="0 0 64 64" fill="none" xmlns="http://www.w3.org/2000/svg">
<path d="M40.5819 16.9084C40.31 16.8573 39.6178 16.8502 39.5709 16.4832C39.5434 16.2657 40.1316 13.0708 40.2278 12.7558C40.5531 11.6903 41.4559 11.0533 42.55 10.9175C43.4038 10.8513 44.1769 11.2272 44.9616 11.5261L50.0131 13.3841C50.8841 13.7003 51.7913 13.8701 52.27 14.7279C53.0456 16.1172 51.9156 17.7953 50.3509 17.6168C49.6853 17.5408 48.8753 17.1232 48.2353 16.8773L45.8375 15.9775C45.1553 15.7224 44.3691 15.4206 43.6734 15.2177C43.4294 16.1394 43.6059 17.5969 42.55 17.3549C42.4709 18.1239 42.235 19.3514 42.0981 20.1367C42.4784 20.7011 43.3387 21.5655 43.8084 22.1125C45.0944 23.6098 46.4203 25.0848 47.7781 26.5176C47.8175 27.1785 47.7791 28.3483 47.7791 29.0379L47.7781 34.2763C50.4616 34.1672 53.03 35.2725 53.6747 38.1591C53.9037 39.1847 53.8122 40.8431 53.8119 41.9516L53.8128 47.5859C55.7109 47.5959 57.4197 48.4156 57.4397 50.6C57.4622 53.0381 57.3037 52.9725 55.1284 52.9719L52.4531 52.9694L39.5991 52.9725C38.3228 52.9747 37.8309 53.1784 37.0972 51.9781C36.5072 51.6719 35.8241 51.7459 35.16 51.7459L32.2178 51.7481C31.5391 51.7481 30.686 51.7812 30.0282 51.6516C27.7537 51.2031 27.3808 49.2634 27.3815 47.3763L27.3817 26.1236C27.3818 25.8484 27.3918 25.5438 27.3863 25.2731C27.2654 19.3292 33.5231 15.1185 38.8781 17.9963C39.3675 18.2593 39.7828 18.5611 40.235 18.8788C40.3441 18.4409 40.4884 17.4187 40.5819 16.9084ZM42.7891 12.598C41.5116 12.9281 41.5456 14.6069 41.3884 15.7855C41.5303 15.7712 41.7072 15.7514 41.8456 15.7855L41.8603 15.7367C42.16 14.7176 41.9388 12.7771 43.3234 13.2582C44.8444 13.7866 46.3531 14.4196 47.8672 14.9528L49.5634 15.589C50.8916 16.0952 51.2806 15.6724 50.3847 15.3298C49.4538 14.9738 43.2656 12.5663 42.7891 12.598ZM35.0034 18.5038C31.6234 18.6194 28.8953 21.6316 28.7894 24.9579C28.7759 25.3828 28.7808 25.8108 28.7816 26.236H33.7719H38.9881C39.1488 24.3437 39.645 22.3898 39.8766 20.5098C38.9297 19.615 36.3175 18.077 35.0034 18.5038ZM41.7306 22.0227C41.535 23.3558 41.1884 24.9522 41.0525 26.236H44.8594C45.0866 26.2332 45.32 26.2273 45.5462 26.236C44.9081 25.4656 42.4944 22.618 41.7306 22.0227ZM28.7816 27.6542L28.7802 46.5228C28.7791 49.75 28.8323 50.4131 32.0225 50.4097L34.6838 50.4066C33.7919 49.1594 33.3638 47.8453 33.5328 46.3134C33.9391 44.6069 34.6659 43.2338 36.3244 42.4316C36.5538 41.3559 36.6966 40.2294 36.8703 39.1416L37.7559 33.5325C38.0462 31.6244 38.4775 29.5482 38.7075 27.6542H28.7816ZM40.7622 27.6542L38.4534 41.8903C39.2534 41.8828 39.7119 41.9047 40.4856 42.1734C40.4956 41.1084 40.5269 39.6703 40.4856 38.6178C41.43 35.2956 43.1484 34.2653 46.4247 34.2763V27.6542H40.7622ZM46.1756 38.8141C45.5497 38.9141 45.3109 39.6203 45.835 39.9691C46.1675 40.1903 48.2653 40.0894 48.7853 40.0888C49.3569 39.9709 49.6272 39.1825 49.0344 38.8875C48.7259 38.7341 46.6681 38.8144 46.1756 38.8141ZM46.1756 41.4181C45.5112 41.53 45.2381 42.2866 45.8441 42.6059C46.2088 42.7981 48.2291 42.7075 48.7853 42.7063C49.4241 42.6372 49.7003 41.9144 49.1063 41.5572C48.6844 41.3038 46.7647 41.4181 46.1756 41.4181ZM38.2559 43.8462C36.4891 44.0625 35.2319 45.6694 35.4472 47.4362C35.6622 49.2028 37.2684 50.4609 39.0353 50.2469C40.8038 50.0328 42.0631 48.425 41.8478 46.6566C41.6325 44.8884 40.0241 43.6297 38.2559 43.8462ZM49.3366 48.8625H43.4406C43.1941 49.47 43.0616 49.7019 42.6578 50.2184H49.6406C51.8222 50.2184 54.0503 50.2437 56.2275 50.2184C55.5975 48.5619 54.0862 48.8575 52.635 48.8613L49.3366 48.8625Z" fill="#536FD4"/>
<path d="M21.7352 15.9797C22.7182 15.5155 22.9323 15.2616 23.4388 14.3678C24.1198 15.192 23.8282 15.3273 25.065 15.9797C24.2152 16.4995 23.9105 16.7899 23.4388 17.662C22.9596 16.7716 22.6624 16.4242 21.7352 15.9797Z" fill="#536FD4"/>
<path d="M12.7646 20.1367C13.0288 19.2066 13.6028 17.517 14.6234 17.2213C15.9543 17.1383 16.456 19.1373 16.7847 20.1367C17.5278 20.3851 19.1258 21.0332 19.4666 21.7485C20.1365 23.155 17.8053 23.7947 16.9036 24.1856C16.3955 25.013 16.1265 26.6042 15.0554 26.9338C13.7318 27.0989 13.1584 25.1583 12.7646 24.1856L12.6403 24.1418C8.57781 22.6781 9.64263 21.297 12.7646 20.1367ZM14.6234 20.706C14.3493 21.3204 13.9403 21.7332 13.3458 22.0227C14.0162 22.3482 14.3277 22.6385 14.6234 23.3263C14.8136 22.7124 15.2144 22.2695 15.8104 22.0227C15.2318 21.7283 14.7983 21.3556 14.6234 20.706Z" fill="#536FD4"/>
<path d="M35.0034 23.0407C34.0775 23.1353 32.5287 23.057 31.5878 23.0279C30.6404 22.9987 30.4855 21.8502 31.3603 21.6243C31.8619 21.6015 34.7981 21.5699 35.1191 21.6856C35.8372 21.9444 35.585 22.8053 35.0034 23.0407Z" fill="#536FD4"/>
<path d="M36.4287 25.3123C35.9597 25.3502 30.6141 25.3315 30.4273 25.2751C29.7113 25.0592 29.8539 24.1293 30.5022 23.8577C30.7856 23.8302 31.7309 23.8562 32.0522 23.8562L34.7778 23.8566C35.2988 23.857 35.9372 23.8337 36.4294 23.9129C37.065 24.0152 37.1669 24.9658 36.4287 25.3123Z" fill="#536FD4"/>
<path d="M20.09 28.0702C20.8803 27.6268 21.1712 27.287 21.5904 26.5176C21.6504 26.5512 22.0234 27.1749 22.1274 27.2928C22.4374 27.6442 22.7669 27.831 23.1584 28.0702C22.2833 28.5775 22.1337 28.7342 21.5904 29.5796L21.5553 29.5825C21.2669 28.7633 20.8029 28.4625 20.09 28.0702Z" fill="#536FD4"/>
<path d="M8.76313 31.0342C10.056 30.2968 10.0843 30.2369 10.791 28.9235C11.5623 29.703 10.999 29.9817 12.7646 31.0342C11.9972 31.4575 11.5236 31.7725 11.0758 32.5606C10.9948 32.7031 10.8733 33.0481 10.791 33.1353C10.0814 31.8781 10.0977 31.7178 8.76313 31.0342Z" fill="#536FD4"/>
<path d="M6.69603 42.965C6.87319 42.6834 7.69603 42.0278 8.01 41.7572L12.0981 38.2303C12.311 38.0434 13.3771 37.1813 13.494 36.9978C14.2518 35.8094 13.8241 33.3806 15.651 33.1353C16.212 33.0916 17.2039 33.5869 17.7537 33.8172L23.8612 36.3794C24.7758 36.7591 26.1557 37.1203 26.4583 38.1609C26.8894 39.6434 25.4007 40.6378 24.942 41.8322C24.8137 42.1666 24.8085 43.6637 24.7919 44.075L24.6024 47.9012C24.5602 48.9075 24.5286 49.8938 24.4429 50.9081C24.3076 52.5081 22.0894 52.7256 21.5904 50.5228C20.5872 50.985 19.663 50.9344 18.9303 50.0184C18.7213 49.7003 18.6275 49.4809 18.5425 49.1162C17.0321 49.8478 15.8917 49.1934 15.4475 47.5859C14.0913 48.5947 12.8281 47.6894 12.3296 46.3134C10.9082 46.8212 9.71434 46.5609 9.26128 44.9209C7.6805 45.5019 6.57641 44.5903 6.69603 42.965ZM15.8104 34.4872C15.4707 35.31 15.2608 36.1394 15.0554 37.0047C18.0232 38.225 20.9289 39.6225 23.9247 40.7722L24.1523 40.4391C24.3724 40.1075 25.1977 38.9569 25.1531 38.6275C24.7454 38.0822 17.0958 35.07 15.8104 34.4872Z" fill="#536FD4"/>
<path d="M39.0153 49.0003C37.9378 49.2053 36.8984 48.4984 36.6931 47.4212C36.4878 46.3441 37.1944 45.3041 38.2716 45.0984C39.3491 44.8928 40.3894 45.5997 40.595 46.6775C40.8003 47.755 40.0931 48.7953 39.0153 49.0003Z" fill="#536FD4"/>
</svg>
