<svg width="173" height="42" viewBox="0 0 173 42" fill="none" xmlns="http://www.w3.org/2000/svg">
<path d="M77.8927 2.50105L77.8804 5.00102L77.8927 2.50105ZM170.262 35.9362C171.608 35.6263 172.447 34.2844 172.137 32.9389L167.087 11.0129C166.777 9.66744 165.436 8.82793 164.09 9.13782C162.745 9.44771 161.905 10.7897 162.215 12.1351L166.704 31.6249L147.214 36.1137C145.869 36.4236 145.029 37.7656 145.339 39.1111C145.649 40.4566 146.991 41.2961 148.336 40.9862L170.262 35.9362ZM1.70111 33.5C3.40247 35.3318 3.40236 35.3319 3.40226 35.332C3.40223 35.332 3.40213 35.3321 3.40207 35.3321C3.40196 35.3322 3.40187 35.3323 3.4018 35.3324C3.40166 35.3325 3.40161 35.3326 3.40164 35.3325C3.4017 35.3325 3.4021 35.3321 3.40284 35.3314C3.40432 35.3301 3.40715 35.3274 3.41133 35.3236C3.41969 35.3159 3.43344 35.3033 3.45253 35.2858C3.49071 35.2509 3.55025 35.1968 3.63073 35.1246C3.79171 34.98 4.03643 34.7628 4.36163 34.4811C5.01209 33.9178 5.98408 33.0972 7.25146 32.0855L5.69181 30.1316L4.13215 28.1778C2.80884 29.2341 1.78548 30.0977 1.08827 30.7015C0.739629 31.0035 0.472431 31.2406 0.289947 31.4045C0.198702 31.4864 0.128624 31.55 0.0801244 31.5944C0.055874 31.6165 0.0370167 31.6338 0.0236038 31.6462C0.0168973 31.6524 0.0115517 31.6573 0.00757349 31.661C0.00558436 31.6628 0.00393701 31.6643 0.00263226 31.6656C0.00197995 31.6662 0.00141323 31.6667 0.000932217 31.6671C0.000691772 31.6674 0.000472784 31.6676 0.000275135 31.6677C0.000176311 31.6678 4.42266e-05 31.668 -5.126e-06 31.668C-0.000131845 31.6681 -0.00025332 31.6682 1.70111 33.5ZM14.1622 23.9171L15.5633 25.9877C18.1338 24.2483 21.0635 22.39 24.308 20.5249L23.0621 18.3575L21.8162 16.1901C18.4558 18.1218 15.4225 20.0458 12.7612 21.8466L14.1622 23.9171ZM32.3581 13.4724L33.4344 15.7288C36.4213 14.304 39.5803 12.9378 42.889 11.6859L42.0043 9.34767L41.1196 7.00945C37.6705 8.3145 34.3836 9.73636 31.2818 11.2159L32.3581 13.4724ZM51.9778 6.08252L52.6433 8.49232C55.8761 7.59955 59.2125 6.8441 62.6362 6.26668L62.2204 3.8015L61.8047 1.33631C58.2013 1.94403 54.6981 2.73772 51.3123 3.67272L51.9778 6.08252ZM72.6415 2.63268L72.7782 5.12894C74.4636 5.03665 76.1649 4.99259 77.8804 5.00102L77.8927 2.50105L77.9049 0.00107646C76.0876 -0.00784659 74.2869 0.0388331 72.5048 0.136421L72.6415 2.63268ZM77.8927 2.50105L77.8804 5.00102C79.4565 5.00875 81.0444 5.05959 82.6411 5.15049L82.7832 2.65453L82.9253 0.158572C81.2465 0.0630043 79.572 0.00926113 77.9049 0.00107646L77.8927 2.50105ZM92.5216 3.65735L92.1599 6.13104C95.3112 6.59187 98.4699 7.18088 101.614 7.8744L102.152 5.4331L102.691 2.99179C99.4412 2.27494 96.1642 1.66343 92.8833 1.18366L92.5216 3.65735ZM111.647 7.83562L110.963 10.2404C114.088 11.1282 117.171 12.0975 120.19 13.1231L120.994 10.7559L121.798 8.38882C118.707 7.33844 115.542 6.34358 112.33 5.43081L111.647 7.83562ZM130.195 14.1144L129.287 16.4438C132.391 17.653 135.387 18.8967 138.247 20.1425L139.246 17.8505L140.244 15.5584C137.329 14.2888 134.272 13.0198 131.102 11.785L130.195 14.1144ZM148.158 21.9275L147.077 24.182C150.256 25.7055 153.164 27.1744 155.742 28.523L156.901 26.3078L158.06 24.0926C155.435 22.7195 152.475 21.2242 149.238 19.6731L148.158 21.9275ZM165.516 31.0215L164.272 33.19C165.602 33.9531 166.634 34.5641 167.33 34.9826C167.678 35.1918 167.942 35.3529 168.118 35.4607C168.206 35.5146 168.272 35.5552 168.315 35.5819C168.336 35.5952 168.352 35.6051 168.362 35.6114C168.367 35.6145 168.371 35.6168 168.373 35.6181C168.374 35.6188 168.375 35.6192 168.375 35.6194C168.375 35.6196 168.375 35.6196 168.375 35.6196C168.375 35.6196 168.375 35.6196 168.375 35.6196C168.375 35.6195 168.375 35.6195 168.375 35.6195C168.375 35.6195 168.375 35.6194 169.701 33.5C171.027 31.3806 171.027 31.3805 171.027 31.3805C171.027 31.3805 171.027 31.3804 171.027 31.3804C171.027 31.3803 171.026 31.3802 171.026 31.3801C171.026 31.3798 171.025 31.3795 171.025 31.3792C171.024 31.3785 171.022 31.3776 171.02 31.3764C171.017 31.3742 171.012 31.371 171.005 31.3669C170.992 31.3587 170.973 31.347 170.949 31.3318C170.899 31.3013 170.827 31.2569 170.733 31.199C170.545 31.0834 170.267 30.9144 169.906 30.697C169.182 30.2623 168.121 29.634 166.76 28.853L165.516 31.0215ZM77.8927 2.50105L77.8804 5.00102L77.8927 2.50105ZM170.262 35.9362C171.608 35.6263 172.447 34.2844 172.137 32.9389L167.087 11.0129C166.777 9.66744 165.436 8.82793 164.09 9.13782C162.745 9.44771 161.905 10.7897 162.215 12.1351L166.704 31.6249L147.214 36.1137C145.869 36.4236 145.029 37.7656 145.339 39.1111C145.649 40.4566 146.991 41.2961 148.336 40.9862L170.262 35.9362ZM1.70111 33.5C3.40247 35.3318 3.40236 35.3319 3.40226 35.332C3.40223 35.332 3.40213 35.3321 3.40207 35.3321C3.40196 35.3322 3.40187 35.3323 3.4018 35.3324C3.40166 35.3325 3.40161 35.3326 3.40164 35.3325C3.4017 35.3325 3.4021 35.3321 3.40284 35.3314C3.40432 35.3301 3.40715 35.3274 3.41133 35.3236C3.41969 35.3159 3.43344 35.3033 3.45253 35.2858C3.49071 35.2509 3.55025 35.1968 3.63073 35.1246C3.79171 34.98 4.03643 34.7628 4.36163 34.4811C5.01209 33.9178 5.98408 33.0972 7.25146 32.0855L5.69181 30.1316L4.13215 28.1778C2.80884 29.2341 1.78548 30.0977 1.08827 30.7015C0.739629 31.0035 0.472431 31.2406 0.289947 31.4045C0.198702 31.4864 0.128624 31.55 0.0801244 31.5944C0.055874 31.6165 0.0370167 31.6338 0.0236038 31.6462C0.0168973 31.6524 0.0115517 31.6573 0.00757349 31.661C0.00558436 31.6628 0.00393701 31.6643 0.00263226 31.6656C0.00197995 31.6662 0.00141323 31.6667 0.000932217 31.6671C0.000691772 31.6674 0.000472784 31.6676 0.000275135 31.6677C0.000176311 31.6678 4.42266e-05 31.668 -5.126e-06 31.668C-0.000131845 31.6681 -0.00025332 31.6682 1.70111 33.5ZM14.1622 23.9171L15.5633 25.9877C18.1338 24.2483 21.0635 22.39 24.308 20.5249L23.0621 18.3575L21.8162 16.1901C18.4558 18.1218 15.4225 20.0458 12.7612 21.8466L14.1622 23.9171ZM32.3581 13.4724L33.4344 15.7288C36.4213 14.304 39.5803 12.9378 42.889 11.6859L42.0043 9.34767L41.1196 7.00945C37.6705 8.3145 34.3836 9.73636 31.2818 11.2159L32.3581 13.4724ZM51.9778 6.08252L52.6433 8.49232C55.8761 7.59955 59.2125 6.8441 62.6362 6.26668L62.2204 3.8015L61.8047 1.33631C58.2013 1.94403 54.6981 2.73772 51.3123 3.67272L51.9778 6.08252ZM72.6415 2.63268L72.7782 5.12894C74.4636 5.03665 76.1649 4.99259 77.8804 5.00102L77.8927 2.50105L77.9049 0.00107646C76.0876 -0.00784659 74.2869 0.0388331 72.5048 0.136421L72.6415 2.63268ZM77.8927 2.50105L77.8804 5.00102C79.4565 5.00875 81.0444 5.05959 82.6411 5.15049L82.7832 2.65453L82.9253 0.158572C81.2465 0.0630043 79.572 0.00926113 77.9049 0.00107646L77.8927 2.50105ZM92.5216 3.65735L92.1599 6.13104C95.3112 6.59187 98.4699 7.18088 101.614 7.8744L102.152 5.4331L102.691 2.99179C99.4412 2.27494 96.1642 1.66343 92.8833 1.18366L92.5216 3.65735ZM111.647 7.83562L110.963 10.2404C114.088 11.1282 117.171 12.0975 120.19 13.1231L120.994 10.7559L121.798 8.38882C118.707 7.33844 115.542 6.34358 112.33 5.43081L111.647 7.83562ZM130.195 14.1144L129.287 16.4438C132.391 17.653 135.387 18.8967 138.247 20.1425L139.246 17.8505L140.244 15.5584C137.329 14.2888 134.272 13.0198 131.102 11.785L130.195 14.1144ZM148.158 21.9275L147.077 24.182C150.256 25.7055 153.164 27.1744 155.742 28.523L156.901 26.3078L158.06 24.0926C155.435 22.7195 152.475 21.2242 149.238 19.6731L148.158 21.9275ZM165.516 31.0215L164.272 33.19C165.602 33.9531 166.634 34.5641 167.33 34.9826C167.678 35.1918 167.942 35.3529 168.118 35.4607C168.206 35.5146 168.272 35.5552 168.315 35.5819C168.336 35.5952 168.352 35.6051 168.362 35.6114C168.367 35.6145 168.371 35.6168 168.373 35.6181C168.374 35.6188 168.375 35.6192 168.375 35.6194C168.375 35.6196 168.375 35.6196 168.375 35.6196C168.375 35.6196 168.375 35.6196 168.375 35.6196C168.375 35.6195 168.375 35.6195 168.375 35.6195C168.375 35.6195 168.375 35.6194 169.701 33.5C171.027 31.3806 171.027 31.3805 171.027 31.3805C171.027 31.3805 171.027 31.3804 171.027 31.3804C171.027 31.3803 171.026 31.3802 171.026 31.3801C171.026 31.3798 171.025 31.3795 171.025 31.3792C171.024 31.3785 171.022 31.3776 171.02 31.3764C171.017 31.3742 171.012 31.371 171.005 31.3669C170.992 31.3587 170.973 31.347 170.949 31.3318C170.899 31.3013 170.827 31.2569 170.733 31.199C170.545 31.0834 170.267 30.9144 169.906 30.697C169.182 30.2623 168.121 29.634 166.76 28.853L165.516 31.0215Z" fill="#536FD4"/>
</svg>
