<?xml version="1.0" encoding="UTF-8" standalone="no"?>
<!DOCTYPE svg PUBLIC "-//W3C//DTD SVG 1.1//EN" "http://www.w3.org/Graphics/SVG/1.1/DTD/svg11.dtd">
<!-- Created with Vectornator (http://vectornator.io/) -->
<svg height="100%" stroke-miterlimit="10" style="fill-rule:nonzero;clip-rule:evenodd;stroke-linecap:round;stroke-linejoin:round;" version="1.1" viewBox="679.779 412.645 175.742 157.998" width="100%" xml:space="preserve" xmlns="http://www.w3.org/2000/svg" xmlns:xlink="http://www.w3.org/1999/xlink">
<defs/>
<g id="Bird">
<g opacity="1">
<path d="M764.345 531.538L790.704 535.468C790.704 535.468 801.4 536.832 805.571 527.919C809.742 519.006 808.6 517.012 808.6 517.012C808.6 517.012 802.542 503.315 805.571 500.416L803.156 502.611C803.156 502.611 799.388 505.284 788.871 508.852C778.353 512.42 772.365 519.621 772.01 520.113C771.655 520.605 765.451 527.609 764.345 531.538Z" fill="#000000" fill-rule="nonzero" opacity="1" stroke="#007aff" stroke-linecap="butt" stroke-linejoin="round" stroke-width="0.0150388"/>
</g>
<g opacity="1">
<path d="M734.899 562.525C735.591 561.685 757.59 536.423 758.746 535.194C759.902 533.965 760.469 533.439 760.707 533.576C760.945 533.713 761.119 533.845 759.877 535.909C758.636 537.974 743.825 565.937 743.056 567.447C742.288 568.956 739.246 572.177 735.725 569.769C732.204 567.361 734.207 563.365 734.899 562.525Z" fill="#000000" fill-rule="nonzero" opacity="1" stroke="#007aff" stroke-linecap="butt" stroke-linejoin="round" stroke-width="0.0150388"/>
<path d="M687.624 520.052C687.624 520.052 753.792 530.308 754.384 530.372C754.975 530.436 755.49 530.495 755.507 530.9C755.525 531.305 755.401 531.292 754.438 531.43C753.475 531.567 687.624 536.686 687.624 536.686C687.624 536.686 680.104 536.12 679.799 528.985C679.495 521.851 684.702 520.167 687.624 520.052Z" fill="#000000" fill-rule="nonzero" opacity="1" stroke="#007aff" stroke-linecap="butt" stroke-linejoin="round" stroke-width="0.0150388"/>
<path d="M700.03 551.637C700.03 551.637 754.055 533.354 754.738 533.094C755.421 532.834 757.001 532.124 757.415 532.669C757.828 533.215 756.037 534.155 756.037 534.155L705.982 565.809C705.982 565.809 699.862 569.044 696.357 562.252C692.851 555.459 700.03 551.637 700.03 551.637Z" fill="#000000" fill-rule="nonzero" opacity="1" stroke="#007aff" stroke-linecap="butt" stroke-linejoin="round" stroke-width="0.0150388"/>
<g opacity="1">
<path d="M760.948 541.379C760.948 541.379 772.231 543.737 781.528 545.415C786.66 546.341 786.572 546.65 793.01 547.06C798.669 547.42 806.281 547.154 808.436 546.254C810.592 545.354 817.807 543.301 823.092 536.898C827.688 531.329 831.207 517.84 828.802 503.404C828.14 499.429 827.565 495.58 826.699 492.203C825.834 488.827 823.562 480.859 823.562 480.859C823.562 480.859 821.964 475.024 819.595 466.034C818.465 461.745 818.79 459.789 819.117 458.701C819.414 457.717 819.461 457.661 819.011 457.658C816.84 457.643 804.589 457.809 804.589 457.809C804.589 457.809 805.548 465.487 806.489 472.788C807.212 478.397 807.284 480.237 807.608 485.703C807.774 488.506 808.436 496.961 805.657 499.976C802.633 503.256 808.798 516.905 808.798 516.905C808.798 516.905 809.849 521.591 809.163 526.904C808.912 528.852 808.114 530.884 807.393 532.8C806.23 535.888 804.296 537.399 802.205 538.767C800.485 539.891 798.307 540.945 795.801 541.214C791.565 541.667 786.298 540.613 780.898 539.811C775.498 539.01 776.896 539.123 774.602 538.767C767.68 537.69 765.401 537.42 764.327 537.242C764.273 537.233 764.327 537.242 762.167 536.898C760.948 538.344 760.394 541.214 760.394 541.214L760.948 541.379Z" fill="#000000" fill-rule="nonzero" opacity="1" stroke="#007aff" stroke-linecap="butt" stroke-linejoin="round" stroke-width="0.0150388"/>
<path d="M778.472 549.63C779.003 549.672 787.675 550.897 788.124 550.956C788.573 551.015 789.08 551.008 789.08 551.43C789.08 551.852 790.516 569.255 790.516 569.255C790.516 569.255 790.537 569.531 790.204 569.57C789.871 569.609 788.108 569.565 788.108 569.565C788.108 569.565 787.74 569.534 787.553 569.136C787.366 568.739 778.32 550.562 777.944 549.971C777.568 549.38 777.941 549.588 778.472 549.63Z" fill="#000000" fill-rule="nonzero" opacity="1" stroke="#007aff" stroke-linecap="butt" stroke-linejoin="round" stroke-width="0.0150388"/>
<path d="M793.633 551.584C793.633 551.584 800.643 551.95 802.063 551.779C803.483 551.609 803.422 551.476 803.486 552.343C803.55 553.209 804.824 568.737 804.824 568.737C804.824 568.737 805.063 569.495 804.416 569.524C803.769 569.552 802.57 569.57 802.57 569.57C802.57 569.57 802.305 569.644 802.083 569.054C801.861 568.463 793.231 552.071 793.231 552.071C793.231 552.071 792.721 551.33 793.633 551.584Z" fill="#000000" fill-rule="nonzero" opacity="1" stroke="#007aff" stroke-linecap="butt" stroke-linejoin="round" stroke-width="0.0150388"/>
</g>
</g>
<g opacity="1">
<g opacity="1">
<path d="M825.875 425.531C823.776 425.424 822.035 425.638 820.656 425.75C817.898 425.974 811.567 428.58 809.281 429.781C806.996 430.983 803.331 434.291 802.094 435.719C800.856 437.147 800.381 438.195 800.812 439.062C801.244 439.93 804.594 457.844 804.594 457.844L819.344 457.813L841.188 448.375C841.188 448.375 855.197 446.008 855.469 445.344C855.741 444.68 854.76 441.418 852.781 439.281C850.802 437.144 844.125 435.313 844.125 435.313C844.125 435.313 838.694 429.499 833.188 427.219C830.435 426.078 827.974 425.639 825.875 425.531ZM823.094 429.375C825.18 429.45 829.54 429.347 833.75 431.781C837.959 434.216 843.982 439.438 844.094 440.188C844.205 440.936 837.467 446.445 834.375 447.344C831.283 448.243 825.083 450.685 819.719 448.813C814.354 446.94 807.191 441.797 805.281 438.375C805.281 438.375 807.926 434.616 812.844 432.406C817.761 430.196 821.008 429.3 823.094 429.375Z" fill="#000000" fill-rule="nonzero" opacity="1" stroke="#007aff" stroke-linecap="butt" stroke-linejoin="round" stroke-width="0.0150388"/>
</g>
<g opacity="1">
<path d="M819.772 439.396C819.842 436.512 822.093 434.227 824.799 434.293C827.505 434.359 829.642 436.751 829.571 439.636C829.501 442.52 827.25 444.805 824.544 444.738C821.838 444.672 819.701 442.28 819.772 439.396Z" fill="#150b14" fill-rule="nonzero" opacity="1" stroke="#007aff" stroke-linecap="butt" stroke-linejoin="round" stroke-width="0.0358725"/>
</g>
<path d="M774.661 451.354L796.962 439.702C796.962 439.702 798.055 439.069 798.204 439.153C798.354 439.237 797.895 439.931 797.895 439.931C797.895 439.931 786.271 459.125 784.528 461.392C782.786 463.659 777.543 465.934 773.564 460.57C769.585 455.206 774.661 451.354 774.661 451.354Z" fill="#150b14" fill-rule="nonzero" opacity="1" stroke="#007aff" stroke-linecap="butt" stroke-linejoin="round" stroke-width="0.0150388"/>
<path d="M772.574 430.041L796.712 437.145C796.712 437.145 797.937 437.448 797.987 437.613C798.036 437.777 797.224 437.958 797.224 437.958C797.224 437.958 779.823 442.519 774.776 443.701C769.729 444.883 764.522 442.534 765.384 435.911C766.246 429.288 772.574 430.041 772.574 430.041Z" fill="#150b14" fill-rule="nonzero" opacity="1" stroke="#007aff" stroke-linecap="butt" stroke-linejoin="round" stroke-width="0.0150388"/>
<path d="M783.172 414.604L797.761 435.104C797.761 435.104 798.537 436.1 798.474 436.26C798.412 436.42 797.662 436.06 797.662 436.06C797.662 436.06 781.161 428.894 776.463 426.705C771.765 424.515 769.122 419.45 773.893 414.776C778.663 410.101 783.172 414.604 783.172 414.604Z" fill="#150b14" fill-rule="nonzero" opacity="1" stroke="#007aff" stroke-linecap="butt" stroke-linejoin="round" stroke-width="0.0150388"/>
</g>
</g>
</svg>
