<svg width="69" height="62" viewBox="0 0 69 62" fill="none" xmlns="http://www.w3.org/2000/svg">
<path d="M32.9297 46.2982L43.1948 47.8286C43.1948 47.8286 47.3602 48.3598 48.9845 44.8888C50.6089 41.4178 50.1641 40.6413 50.1641 40.6413C50.1641 40.6413 47.8049 35.3072 48.9845 34.1782L48.044 35.033C48.044 35.033 46.5766 36.074 42.481 37.4635C38.3849 38.853 36.053 41.6573 35.9147 41.8489C35.7765 42.0405 33.3604 44.7681 32.9297 46.2982Z" fill="#FBE7B3"/>
<path d="M21.4637 58.3654C21.7332 58.0383 30.3003 48.2005 30.7505 47.7218C31.2007 47.2432 31.4215 47.0384 31.5142 47.0917C31.6069 47.1451 31.6747 47.1965 31.191 48.0003C30.7077 48.8045 24.9398 59.6942 24.6403 60.2822C24.3412 60.8699 23.1566 62.1242 21.7854 61.1865C20.4142 60.2487 21.1942 58.6926 21.4637 58.3654Z" fill="#1E4730"/>
<path d="M3.05229 41.8247C3.05229 41.8247 28.8204 45.8187 29.0509 45.8437C29.2811 45.8686 29.4817 45.8916 29.4883 46.0493C29.4953 46.207 29.447 46.2019 29.072 46.2557C28.6969 46.309 3.05229 48.3025 3.05229 48.3025C3.05229 48.3025 0.123741 48.0821 0.00496356 45.3035C-0.113425 42.5253 1.91437 41.8695 3.05229 41.8247Z" fill="#5A1616"/>
<path d="M7.88418 54.125C7.88418 54.125 28.9234 47.005 29.1893 46.9038C29.4553 46.8025 30.0706 46.526 30.2319 46.7383C30.3927 46.9509 29.6952 47.317 29.6952 47.317L10.2021 59.6441C10.2021 59.6441 7.81874 60.9039 6.45378 58.2589C5.08842 55.6134 7.88418 54.125 7.88418 54.125Z" fill="#584203"/>
<path d="M31.6074 50.1304C31.6074 50.1304 36.0014 51.0487 39.6219 51.7022C41.6205 52.0628 41.5862 52.1831 44.0934 52.3428C46.2972 52.483 49.2616 52.3794 50.1008 52.0289C50.9404 51.6784 53.7502 50.8789 55.8084 48.3854C57.5982 46.2166 58.9686 40.9636 58.032 35.3417C57.7742 33.7937 57.5503 32.2948 57.2131 30.9797C56.8762 29.665 55.9914 26.562 55.9914 26.562C55.9914 26.562 55.3691 24.2896 54.4465 20.7886C54.0064 19.1184 54.133 18.3566 54.2604 17.9329C54.376 17.5497 54.3943 17.5279 54.2191 17.5267C53.3736 17.5209 48.6027 17.5855 48.6027 17.5855C48.6027 17.5855 48.9761 20.5756 49.3426 23.4189C49.6242 25.6032 49.6522 26.3197 49.7784 28.4484C49.843 29.54 50.1008 32.8326 49.0186 34.0067C47.8409 35.2841 50.2418 40.5995 50.2418 40.5995C50.2418 40.5995 50.6511 42.4243 50.3839 44.4934C50.2862 45.252 49.9754 46.0433 49.6946 46.7895C49.2417 47.992 48.4886 48.5805 47.6743 49.1132C47.0044 49.5509 46.1562 49.9614 45.1803 50.0662C43.5307 50.2426 41.4795 49.8321 39.3766 49.5198C37.2736 49.2078 37.8181 49.2519 36.9247 49.1132C34.229 48.6938 33.3415 48.5887 32.9233 48.5193C32.9022 48.5158 32.9233 48.5193 32.0821 48.3854C31.6074 48.9485 31.3916 50.0662 31.3916 50.0662L31.6074 50.1304Z" fill="#FBE7B3"/>
<path d="M38.4311 53.3435C38.6379 53.3599 42.0151 53.8369 42.1899 53.8599C42.3648 53.8829 42.5622 53.8802 42.5622 54.0445C42.5622 54.2088 43.1214 60.9861 43.1214 60.9861C43.1214 60.9861 43.1296 61.0936 42.9999 61.1088C42.8703 61.124 42.1837 61.1069 42.1837 61.1069C42.1837 61.1069 42.0404 61.0948 41.9675 60.9398C41.8947 60.7852 38.3719 53.7065 38.2255 53.4763C38.079 53.2462 38.2243 53.3272 38.4311 53.3435Z" fill="#FBE7B3"/>
<path d="M44.3359 54.1041C44.3359 54.1041 47.0659 54.2467 47.6189 54.1801C48.1719 54.1139 48.1481 54.0621 48.173 54.3997C48.198 54.737 48.6941 60.7841 48.6941 60.7841C48.6941 60.7841 48.7872 61.0793 48.5352 61.0906C48.2832 61.1015 47.8163 61.1085 47.8163 61.1085C47.8163 61.1085 47.7131 61.1373 47.6267 60.9075C47.5402 60.6774 44.1794 54.2938 44.1794 54.2938C44.1794 54.2938 43.9808 54.0052 44.3359 54.1041Z" fill="#FBE7B3"/>
<path d="M56.8923 5.01574C56.0749 4.97407 55.3969 5.0574 54.8599 5.10102C53.7858 5.18825 51.3203 6.20312 50.4301 6.67083C49.5402 7.13892 48.1129 8.42716 47.6312 8.98327C47.1491 9.53938 46.9641 9.94751 47.1319 10.2852C47.3002 10.6232 48.6048 17.5995 48.6048 17.5995L54.3489 17.5874L62.8557 13.9119C62.8557 13.9119 68.3113 12.9901 68.4173 12.7316C68.5232 12.473 68.1412 11.2027 67.3705 10.3704C66.5998 9.53822 63.9995 8.82516 63.9995 8.82516C63.9995 8.82516 61.8845 6.561 59.7403 5.6731C58.6682 5.22875 57.7098 5.0578 56.8923 5.01574ZM55.8093 6.51271C56.6217 6.54192 58.3196 6.50181 59.9591 7.44969C61.5983 8.39796 63.9438 10.4316 63.9874 10.7236C64.0307 11.0149 61.4067 13.1603 60.2025 13.5104C58.9984 13.8605 56.5839 14.8115 54.495 14.0825C52.4057 13.3531 49.6161 11.3502 48.8723 10.0176C48.8723 10.0176 49.9024 8.55373 51.8176 7.69309C53.7325 6.83244 54.997 6.48351 55.8093 6.51271Z" fill="#FBE7B3"/>
<path d="M54.5153 10.4146C54.5426 9.29145 55.4192 8.4016 56.473 8.4273C57.5268 8.453 58.359 9.38452 58.3314 10.508C58.3041 11.6312 57.4275 12.521 56.3737 12.4949C55.3199 12.4692 54.4877 11.5377 54.5153 10.4146Z" fill="#FBE7B3"/>
<path d="M36.949 15.0713L45.6337 10.5337C45.6337 10.5337 46.0594 10.2872 46.1174 10.3199C46.1758 10.3526 45.9971 10.6229 45.9971 10.6229C45.9971 10.6229 41.4703 18.0976 40.7915 18.9805C40.1131 19.8633 38.0713 20.7493 36.5218 18.6604C34.9722 16.5714 36.949 15.0713 36.949 15.0713Z" fill="#1E4730"/>
<path d="M36.1355 6.77178L45.5357 9.53831C45.5357 9.53831 46.0128 9.65632 46.0323 9.72057C46.0513 9.78444 45.7351 9.85493 45.7351 9.85493C45.7351 9.85493 38.9586 11.6311 36.9931 12.0914C35.0276 12.5517 32.9998 11.637 33.3355 9.05776C33.6712 6.47855 36.1355 6.77178 36.1355 6.77178Z" fill="#584203"/>
<path d="M40.2619 0.759911L45.9433 8.74327C45.9433 8.74327 46.2455 9.13115 46.221 9.19346C46.1969 9.25577 45.9048 9.11557 45.9048 9.11557C45.9048 9.11557 39.4787 6.32489 37.6492 5.47242C35.8196 4.61957 34.7903 2.6471 36.6483 0.826892C38.5059 -0.993704 40.2619 0.759911 40.2619 0.759911Z" fill="#5A1616"/>
</svg>
