<svg width="64" height="64" viewBox="0 0 64 64" fill="none" xmlns="http://www.w3.org/2000/svg">
<rect x="1.5" y="1.5" width="61" height="61" stroke="#536FD4" stroke-width="3" stroke-linejoin="bevel"/>
<path d="M16.0234 49C15.5187 49 14.8591 48.3479 14.5 48C14.1409 47.6521 15.4845 46.7117 15.4839 46.2222V33.7778C15.4839 33.2889 15.6637 32.8705 16.0234 32.5227C16.3831 32.1748 16.8149 32.0006 17.319 32H30.1649C30.6695 32 31.1017 32.1742 31.4614 32.5227C31.8211 32.8711 32.0006 33.2895 32 33.7778V46.2222C32 46.7111 31.8204 47.1298 31.4614 47.4782C31.1023 47.8267 30.6701 48.0006 30.1649 48L16.0234 49ZM24.6595 40.8889V46.2222H30.1649V40.8889H24.6595ZM24.6595 39.1111H30.1649V33.7778H24.6595V39.1111ZM22.8244 39.1111V33.7778H17.319V39.1111H22.8244ZM22.8244 40.8889H17.319V46.2222H22.8244V40.8889Z" fill="#536FD4"/>
<path d="M1.83513 64C1.33047 64 0.8986 63.8261 0.539527 63.4782C0.180454 63.1304 0.000611708 62.7117 0 62.2222V49.7778C0 49.2889 0.179842 48.8705 0.539527 48.5227C0.899212 48.1748 1.33108 48.0006 1.83513 48H14.681C15.1857 48 15.6178 48.1742 15.9775 48.5227C16.3372 48.8711 16.5167 49.2895 16.5161 49.7778V62.2222C16.5161 62.7111 16.3366 63.1298 15.9775 63.4782C15.6184 63.8267 15.1863 64.0006 14.681 64H1.83513ZM9.17563 56.8889V62.2222H14.681V56.8889H9.17563ZM9.17563 55.1111H14.681V49.7778H9.17563V55.1111ZM7.3405 55.1111V49.7778H1.83513V55.1111H7.3405ZM7.3405 56.8889H1.83513V62.2222H7.3405V56.8889Z" fill="#536FD4"/>
<path d="M1.83513 48C1.33047 48 0.8986 47.8261 0.539527 47.4782C0.180454 47.1304 0.000611708 46.7117 0 46.2222V33.7778C0 33.2889 0.179842 32.8705 0.539527 32.5227C0.899212 32.1748 1.33108 32.0006 1.83513 32H14.681C15.1857 32 15.6178 32.1742 15.9775 32.5227C16.3372 32.8711 16.5167 33.2895 16.5161 33.7778V46.2222C16.5161 46.7111 16.3366 47.1298 15.9775 47.4782C15.6184 47.8267 15.1863 48.0006 14.681 48H1.83513ZM9.17563 40.8889V46.2222H14.681V40.8889H9.17563ZM9.17563 39.1111H14.681V33.7778H9.17563V39.1111ZM7.3405 39.1111V33.7778H1.83513V39.1111H7.3405ZM7.3405 40.8889H1.83513V46.2222H7.3405V40.8889Z" fill="#536FD4"/>
<path d="M17.319 64C16.8144 64 16.3825 63.8261 16.0234 63.4782C15.6643 63.1304 15.4845 62.7117 15.4839 62.2222V49.7778C15.4839 49.2889 15.6637 48.8705 16.0234 48.5227C16.3831 48.1748 16.815 48.0006 17.319 48H30.1649C30.6695 48 31.1017 48.1742 31.4614 48.5227C31.8211 48.8711 32.0006 49.2895 32 49.7778V62.2222C32 62.7111 31.8205 63.1298 31.4614 63.4782C31.1023 63.8267 30.6702 64.0006 30.1649 64H17.319ZM24.6595 56.8889V62.2222H30.1649V56.8889H24.6595ZM24.6595 55.1111H30.1649V49.7778H24.6595V55.1111ZM22.8244 55.1111V49.7778H17.319V55.1111H22.8244ZM22.8244 56.8889H17.319V62.2222H22.8244V56.8889Z" fill="#536FD4"/>
<path d="M16.0234 16.5C15.5187 16.5 15 16 16.0234 15.4782C15.6643 15.1304 15.4845 14.7117 15.4839 14.2222V1.77778C15.4839 1.28889 15.6637 0.870519 16.0234 0.522667C16.3831 0.174815 16.815 0.000592593 17.319 0H30.1649C30.6695 0 31.1017 0.174222 31.4614 0.522667C31.8211 0.871111 32.0006 1.28948 32 1.77778V14.2222C32 14.7111 33.8591 15.6516 33.5 16C33.1409 16.3484 33.0053 17.0006 32.5 17L16.0234 16.5ZM24.6595 8.88889V14.2222H30.1649V8.88889H24.6595ZM24.6595 7.11111H30.1649V1.77778H24.6595V7.11111ZM22.8244 7.11111V1.77778H17.319V7.11111H22.8244ZM22.8244 8.88889H17.319V14.2222H22.8244V8.88889Z" fill="#536FD4"/>
<path d="M1.83513 32C1.33047 32 0.8986 31.8261 0.539527 31.4782C0.180454 31.1304 0.000611708 30.7117 0 30.2222V17.7778C0 17.2889 0.179842 16.8705 0.539527 16.5227C0.899212 16.1748 1.33108 16.0006 1.83513 16H14.681C15.1857 16 15.6178 16.1742 15.9775 16.5227C16.3372 16.8711 16.5167 17.2895 16.5161 17.7778V30.2222C16.5161 30.7111 16.3366 31.1298 15.9775 31.4782C15.6184 31.8267 15.1863 32.0006 14.681 32H1.83513ZM9.17563 24.8889V30.2222H14.681V24.8889H9.17563ZM9.17563 23.1111H14.681V17.7778H9.17563V23.1111ZM7.3405 23.1111V17.7778H1.83513V23.1111H7.3405ZM7.3405 24.8889H1.83513V30.2222H7.3405V24.8889Z" fill="#536FD4"/>
<path d="M1.83513 16C1.33047 16 0.8986 15.8261 0.539527 15.4782C0.180454 15.1304 0.000611708 14.7117 0 14.2222V1.77778C0 1.28889 0.179842 0.870519 0.539527 0.522667C0.899212 0.174815 1.33108 0.000592593 1.83513 0H14.681C15.1857 0 15.6178 0.174222 15.9775 0.522667C16.3372 0.871111 16.5167 1.28948 16.5161 1.77778V14.2222C16.5161 14.7111 17.8591 16.1516 17.5 16.5C17.1409 16.8484 16.5053 17.0006 16 17L1.83513 16ZM9.17563 8.88889V14.2222H14.681V8.88889H9.17563ZM9.17563 7.11111H14.681V1.77778H9.17563V7.11111ZM7.3405 7.11111V1.77778H1.83513V7.11111H7.3405ZM7.3405 8.88889H1.83513V14.2222H7.3405V8.88889Z" fill="#536FD4"/>
<path d="M16.5 33.5C15.9953 33.5 14.3591 32.8479 14 32.5C13.6409 32.1521 15.4845 30.7117 15.4839 30.2222V17.7778C15.4839 17.2889 15.6637 16.8705 16.0234 16.5227C16.3831 16.1748 16.8149 16.0006 17.319 16H30.1649C30.6695 16 31.1017 16.1742 31.4614 16.5227C31.8211 16.8711 32.0006 17.2895 32 17.7778V30.2222C32 30.7111 34.3591 32.1516 34 32.5C33.6409 32.8484 32.4614 34 31.4614 33L16.5 33.5ZM24.6595 24.8889V30.2222H30.1649V24.8889H24.6595ZM24.6595 23.1111H30.1649V17.7778H24.6595V23.1111ZM22.8244 23.1111V17.7778H17.319V23.1111H22.8244ZM22.8244 24.8889H17.319V30.2222H22.8244V24.8889Z" fill="#536FD4"/>
<path d="M49.319 48C48.8144 48 48.3825 47.8261 48.0234 47.4782C47.6643 47.1304 47.4845 46.7117 47.4839 46.2222V33.7778C47.4839 33.2889 47.6637 32.8705 48.0234 32.5227C48.3831 32.1748 48.815 32.0006 49.319 32H62.1649C62.6695 32 63.1017 32.1742 63.4614 32.5227C63.8211 32.8711 64.0006 33.2895 64 33.7778V46.2222C64 46.7111 63.8205 47.1298 63.4614 47.4782C63.1023 47.8267 62.6702 48.0006 62.1649 48H49.319ZM56.6595 40.8889V46.2222H62.1649V40.8889H56.6595ZM56.6595 39.1111H62.1649V33.7778H56.6595V39.1111ZM54.8244 39.1111V33.7778H49.319V39.1111H54.8244ZM54.8244 40.8889H49.319V46.2222H54.8244V40.8889Z" fill="#536FD4"/>
<path d="M33.8351 64C33.3305 64 32.8986 63.8261 32.5395 63.4782C32.1805 63.1304 32.0006 62.7117 32 62.2222L31 49C31 48.5111 32.1798 48.8705 32.5395 48.5227C32.8992 48.1748 33.3311 48.0006 33.8351 48H46.681C47.1857 48 47.6178 48.1742 47.9775 48.5227C48.3372 48.8711 48.5167 49.2895 48.5161 49.7778V62.2222C48.5161 62.7111 48.3366 63.1298 47.9775 63.4782C47.6184 63.8267 47.1863 64.0006 46.681 64H33.8351ZM41.1756 56.8889V62.2222H46.681V56.8889H41.1756ZM41.1756 55.1111H46.681V49.7778H41.1756V55.1111ZM39.3405 55.1111V49.7778H33.8351V55.1111H39.3405ZM39.3405 56.8889H33.8351V62.2222H39.3405V56.8889Z" fill="#536FD4"/>
<path d="M31.5 49.5C30.9953 49.5 29.3591 48.3479 29 48C28.6409 47.6521 32.0006 46.7117 32 46.2222L31 33C31 32.5111 32.1798 32.8705 32.5395 32.5227C32.8992 32.1748 33.3311 32.0006 33.8351 32H46.681C47.1857 32 47.6178 32.1742 47.9775 32.5227C48.3372 32.8711 48.5167 33.2895 48.5161 33.7778V46.2222C48.5161 46.7111 50.8591 48.1516 50.5 48.5C50.1409 48.8484 48.0053 49.0006 47.5 49L31.5 49.5ZM41.1756 40.8889V46.2222H46.681V40.8889H41.1756ZM41.1756 39.1111H46.681V33.7778H41.1756V39.1111ZM39.3405 39.1111V33.7778H33.8351V39.1111H39.3405ZM39.3405 40.8889H33.8351V46.2222H39.3405V40.8889Z" fill="#536FD4"/>
<path d="M49.319 64C48.8144 64 48.3825 63.8261 48.0234 63.4782C47.6643 63.1304 47.4845 62.7117 47.4839 62.2222V49.7778C47.4839 49.2889 47.6637 48.8705 48.0234 48.5227C48.3831 48.1748 48.815 48.0006 49.319 48H62.1649C62.6695 48 63.1017 48.1742 63.4614 48.5227C63.8211 48.8711 64.0006 49.2895 64 49.7778V62.2222C64 62.7111 63.8205 63.1298 63.4614 63.4782C63.1023 63.8267 62.6702 64.0006 62.1649 64H49.319ZM56.6595 56.8889V62.2222H62.1649V56.8889H56.6595ZM56.6595 55.1111H62.1649V49.7778H56.6595V55.1111ZM54.8244 55.1111V49.7778H49.319V55.1111H54.8244ZM54.8244 56.8889H49.319V62.2222H54.8244V56.8889Z" fill="#536FD4"/>
<path d="M48.819 16C48.3143 16 47.3591 16.8479 47 16.5C46.6409 16.1521 46.9845 14.7117 46.9839 14.2222V1.77778C46.9839 1.28889 47.1637 0.870519 47.5234 0.522667C47.8831 0.174815 48.315 0.000592593 48.819 0H61.6649C62.1695 0 62.6017 0.174222 62.9614 0.522667C63.3211 0.871111 63.5006 1.28948 63.5 1.77778V14.2222C63.5 14.7111 63.3205 15.1298 62.9614 15.4782C62.6023 15.8267 63.0053 17.0006 62.5 17L48.819 16ZM56.1595 8.88889V14.2222H61.6649V8.88889H56.1595ZM56.1595 7.11111H61.6649V1.77778H56.1595V7.11111ZM54.3244 7.11111V1.77778H48.819V7.11111H54.3244ZM54.3244 8.88889H48.819V14.2222H54.3244V8.88889Z" fill="#536FD4"/>
<path d="M33.3351 32C32.8305 32 32.3986 31.8261 32.0395 31.4782C31.6805 31.1304 31.5006 30.7117 31.5 30.2222V17.7778C31.5 17.2889 31.6798 16.8705 32.0395 16.5227C32.3992 16.1748 32.8311 16.0006 33.3351 16H46.181C46.6857 16 47.1178 16.1742 47.4775 16.5227C47.8372 16.8711 48.0167 17.2895 48.0161 17.7778V30.2222C48.0161 30.7111 47.8366 31.1298 47.4775 31.4782C47.1184 31.8267 46.6863 32.0006 46.181 32H33.3351ZM40.6756 24.8889V30.2222H46.181V24.8889H40.6756ZM40.6756 23.1111H46.181V17.7778H40.6756V23.1111ZM38.8405 23.1111V17.7778H33.3351V23.1111H38.8405ZM38.8405 24.8889H33.3351V30.2222H38.8405V24.8889Z" fill="#536FD4"/>
<path d="M33.3351 16C32.8305 16 32.3986 15.8261 32.0395 15.4782C31.6805 15.1304 31.5006 14.7117 31.5 14.2222V1.77778C31.5 1.28889 31.6798 0.870519 32.0395 0.522667C32.3992 0.174815 32.8311 0.000592593 33.3351 0H46.181C46.6857 0 47.1178 0.174222 47.4775 0.522667C47.8372 0.871111 48.0167 1.28948 48.0161 1.77778V14.2222C48.0161 14.7111 48.3752 16.1516 48.0161 16.5C47.6571 16.8484 46.6863 16.0006 46.181 16H33.3351ZM40.6756 8.88889V14.2222H46.181V8.88889H40.6756ZM40.6756 7.11111H46.181V1.77778H40.6756V7.11111ZM38.8405 7.11111V1.77778H33.3351V7.11111H38.8405ZM38.8405 8.88889H33.3351V14.2222H38.8405V8.88889Z" fill="#536FD4"/>
<path d="M48.819 33.172C48.3144 33.172 46.8591 32.8479 46.5 32.5C46.1409 32.1521 46.9845 30.7117 46.9839 30.2222V17.7778C46.9839 17.2889 46.6242 16.3478 46.9839 16C47.3436 15.6521 48.315 16.0006 48.819 16H61.6649C62.1696 16 62.6017 16.1742 62.9614 16.5227C63.3211 16.8711 63.5006 17.2895 63.5 17.7778V30.2222C63.5 30.7111 63.3205 31.1298 62.9614 31.4782C62.6023 31.8267 62.1702 32.0006 61.6649 32L48.819 33.172ZM56.1595 24.8889V30.2222H61.6649V24.8889H56.1595ZM56.1595 23.1111H61.6649V17.7778H56.1595V23.1111ZM54.3244 23.1111V17.7778H48.819V23.1111H54.3244ZM54.3244 24.8889H48.819V30.2222H54.3244V24.8889Z" fill="#536FD4"/>
</svg>
