<svg width="64" height="64" viewBox="0 0 64 64" fill="none" xmlns="http://www.w3.org/2000/svg">
<rect x="2" y="2" width="60" height="60" stroke="#536FD4" stroke-width="4"/>
<path d="M34.638 32C33.6287 32 32.7649 31.6521 32.0468 30.9564C31.3287 30.2607 30.969 29.4234 30.9677 28.4444V3.55556C30.9677 2.57778 31.3274 1.74104 32.0468 1.04533C32.7662 0.34963 33.6299 0.00118519 34.638 0H60.3298C61.3391 0 62.2034 0.348445 62.9228 1.04533C63.6422 1.74222 64.0012 2.57896 64 3.55556V28.4444C64 29.4222 63.6409 30.2596 62.9228 30.9564C62.2046 31.6533 61.3403 32.0012 60.3298 32H34.638ZM49.319 17.7778V28.4444H60.3298V17.7778H49.319ZM49.319 14.2222H60.3298V3.55556H49.319V14.2222ZM45.6487 14.2222V3.55556H34.638V14.2222H45.6487ZM45.6487 17.7778H34.638V28.4444H45.6487V17.7778Z" fill="#536FD4"/>
<path d="M3.67025 64C2.66093 64 1.7972 63.6521 1.07905 62.9564C0.360908 62.2607 0.00122342 61.4234 0 60.4444V35.5556C0 34.5778 0.359685 33.741 1.07905 33.0453C1.79842 32.3496 2.66216 32.0012 3.67025 32H29.362C30.3713 32 31.2357 32.3484 31.955 33.0453C32.6744 33.7422 33.0335 34.579 33.0323 35.5556V60.4444C33.0323 61.4222 32.6732 62.2596 31.955 62.9564C31.2369 63.6533 30.3725 64.0012 29.362 64H3.67025ZM18.3513 49.7778V60.4444H29.362V49.7778H18.3513ZM18.3513 46.2222H29.362V35.5556H18.3513V46.2222ZM14.681 46.2222V35.5556H3.67025V46.2222H14.681ZM14.681 49.7778H3.67025V60.4444H14.681V49.7778Z" fill="#536FD4"/>
<path d="M3.67025 32C2.66093 32 1.7972 31.6521 1.07905 30.9564C0.360908 30.2607 0.00122342 29.4234 0 28.4444V3.55556C0 2.57778 0.359685 1.74104 1.07905 1.04533C1.79842 0.34963 2.66216 0.00118519 3.67025 0H29.362C30.3713 0 31.2357 0.348445 31.955 1.04533C32.6744 1.74222 33.0335 2.57896 33.0323 3.55556V28.4444C33.0323 29.4222 39.7181 32.3031 39 33C38.2819 33.6969 29.362 35.5 29.362 32H3.67025ZM18.3513 17.7778V28.4444H29.362V17.7778H18.3513ZM18.3513 14.2222H29.362V3.55556H18.3513V14.2222ZM14.681 14.2222V3.55556H3.67025V14.2222H14.681ZM14.681 17.7778H3.67025V28.4444H14.681V17.7778Z" fill="#536FD4"/>
<path d="M34.638 64C33.6287 64 32.7649 63.6521 32.0468 62.9564C31.3287 62.2607 30.969 61.4234 30.9677 60.4444V35.5556C30.9677 34.5778 31.3274 33.741 32.0468 33.0453C32.7662 32.3496 33.6299 32.0012 34.638 32H60.3298C61.3391 32 62.2034 32.3484 62.9228 33.0453C63.6422 33.7422 64.0012 34.579 64 35.5556V60.4444C64 61.4222 63.6409 62.2596 62.9228 62.9564C62.2046 63.6533 61.3403 64.0012 60.3298 64H34.638ZM49.319 49.7778V60.4444H60.3298V49.7778H49.319ZM49.319 46.2222H60.3298V35.5556H49.319V46.2222ZM45.6487 46.2222V35.5556H34.638V46.2222H45.6487ZM45.6487 49.7778H34.638V60.4444H45.6487V49.7778Z" fill="#536FD4"/>
</svg>
