<svg xmlns="http://www.w3.org/2000/svg" height="512" preserveAspectRatio="none" style="display: block;" version="1.1" viewBox="0 0 2048 2048" width="512">
<path d="M 353.36 429.001 C 380.359 427.902 416.522 428.99 444.302 428.991 L 1640.74 428.96 C 1776.37 428.7 1811.71 466.836 1811.33 602.888 L 1811.34 1456.43 C 1811.33 1497.34 1815.15 1533.79 1784.9 1567.11 C 1757.21 1597.6 1730.57 1612.68 1689.41 1616 C 1655.03 1615.4 1618.66 1615.99 1584.14 1615.99 L 408.479 1616.03 C 338.918 1616.15 271.596 1610.14 242.738 1531.63 C 233.488 1506.47 235.305 1487.94 235.334 1462.02 L 235.367 600.509 C 235.303 581.476 234.294 561.139 235.809 542.334 C 241.145 476.116 291.145 436.454 353.36 429.001 z M 411.345 1483 C 439.029 1442.91 475.089 1404.77 505.08 1366.17 C 568.778 1284.21 635.93 1203.83 692.76 1116.89 C 704.162 1099.44 710.09 1083.99 733.492 1080.83 C 774.767 1074.02 799.402 1126.35 821.222 1156.29 L 898.191 1260.97 C 909.737 1276.54 922.129 1295.14 934.395 1309.78 L 935.328 1308.79 C 951.736 1291.26 978.368 1249 993.756 1227.43 L 1146.13 1010.86 C 1163.75 985.944 1182.19 958.819 1200.92 934.92 C 1229.39 898.579 1272.07 976.876 1287.12 998.313 L 1593.43 1430.61 C 1602.25 1442.93 1623 1473.77 1632.83 1483 C 1679.25 1468.09 1677.33 1431.74 1677.05 1391.5 L 1677.05 763.478 C 1653.12 762.825 1626.82 763.492 1602.69 763.512 L 849.954 763.492 C 820.689 763.489 788.737 764.522 759.504 761.909 C 735.775 757.548 734.223 729.226 734.626 710.405 C 735.29 679.397 726.524 642.518 771.734 641.573 C 807.023 640.834 843.759 641.339 879.719 641.366 L 1677.05 641.369 C 1677.55 591.577 1660.91 564.347 1607.9 564.008 L 480.735 563.992 C 467.664 563.989 449.17 563.339 436.753 564.005 C 401.183 568.959 370.017 593.521 370.091 631.59 L 370.531 1299.1 C 370.528 1361.8 351.203 1449.78 411.345 1483 z M 743.228 1195.06 C 738.212 1196.43 729.501 1198.79 726.276 1202.83 L 506.14 1483 L 734.687 1483 L 967.738 1483 C 956.345 1463.38 925.774 1424.28 911.219 1404.85 L 773.426 1217.43 C 765.953 1207.13 757.793 1194.61 743.228 1195.06 z M 1215.03 1132.06 C 1210.4 1133.47 1205.27 1135.03 1201.74 1138.6 C 1127.37 1213.89 1048.11 1290.91 976.491 1368.26 C 1000.93 1403.59 1032.56 1450.13 1059.7 1483 C 1089.31 1482.17 1122.71 1483 1152.68 1483.01 L 1341.07 1483 L 1499.83 1483.03 C 1523.63 1483.03 1556.21 1484.04 1579.42 1483 C 1543.35 1449.44 1510.75 1418.52 1475.78 1383.18 L 1262.3 1166.86 C 1249.82 1154.39 1234.36 1131.16 1215.03 1132.06 z" fill="rgb(0,0,0)" transform="translate(0,0)"></path>
<path d="M 465.071 641.369 C 495.631 642.377 629.452 636.064 651.204 646.409 C 672.382 656.48 687.212 751.015 641.349 763.478 C 583.632 761.297 523.992 765.761 466.144 762.813 C 447.465 761.408 434.766 743.549 436.641 725.611 C 440.148 692.053 423.048 653.552 465.071 641.369 z" fill="rgb(0,0,0)" transform="translate(0,0)"></path>
<path d="M 923.744 842.849 C 972.238 838.027 1015.53 873.253 1020.67 921.715 C 1025.81 970.177 990.872 1013.7 942.445 1019.16 C 893.566 1024.67 849.547 989.331 844.358 940.417 C 839.17 891.503 874.796 847.716 923.744 842.849 z" fill="rgb(0,0,0)" transform="translate(0,0)"></path>
<metadata><recraft-signature>{"signed_by": "recraft", "signature_b64": "+mvhuYhbt/t7X3zrt+2pm+V0WVvg/ucKFvyfU+4gt+VC8MDuvKyx+Wrtw3gexN5E1ZLlIXSX/lXIJkFQtHnmCA==", "signing_algo": "Ed25519", "generation_timestamp": 1769774780, "identifier": "df4bc902-923f-415b-ac83-2786a943d5dd"}</recraft-signature></metadata></svg>