<svg width="512" height="512" viewBox="0 0 512 512" fill="none" xmlns="http://www.w3.org/2000/svg">
<path d="M88.3404 107.25C95.0902 106.975 104.131 107.247 111.076 107.247L410.185 107.24C444.093 107.175 452.928 116.709 452.833 150.722L452.835 364.107C452.833 374.335 453.788 383.447 446.225 391.777C439.303 399.4 432.643 403.17 422.353 404C413.758 403.85 404.665 403.997 396.035 403.997L102.12 404.007C84.7299 404.037 67.8994 402.535 60.6849 382.907C58.3724 376.617 58.8267 371.985 58.8339 365.505L58.8422 150.127C58.8262 145.369 58.5739 140.284 58.9527 135.583C60.2867 119.029 72.7867 109.113 88.3404 107.25ZM102.837 370.75C109.758 360.727 118.773 351.192 126.27 341.542C142.195 321.052 158.983 300.957 173.19 279.222C176.041 274.86 177.523 270.997 183.373 270.207C193.692 268.505 199.851 281.587 205.306 289.072L224.548 315.242C227.435 319.135 230.533 323.785 233.599 327.445L233.832 327.197C237.934 322.815 244.592 312.25 248.439 306.857L286.533 252.715C290.938 246.486 295.548 239.704 300.23 233.73C307.348 224.644 318.018 244.219 321.78 249.578L398.358 357.652C400.563 360.732 405.75 368.442 408.208 370.75C419.813 367.022 419.333 357.935 419.263 347.875V190.869C413.28 190.706 406.705 190.873 400.673 190.878L212.489 190.873C205.173 190.872 197.185 191.13 189.876 190.477C183.944 189.387 183.556 182.306 183.657 177.601C183.823 169.849 181.631 160.629 192.934 160.393C201.756 160.208 210.94 160.334 219.93 160.341L419.263 160.342C419.388 147.894 415.228 141.086 401.975 141.002L120.184 140.998C116.916 140.997 112.293 140.834 109.189 141.001C100.296 142.239 92.5047 148.38 92.5232 157.897L92.6332 324.775C92.6324 340.45 87.8012 362.445 102.837 370.75ZM185.807 298.765C184.553 299.107 182.376 299.697 181.569 300.707L126.535 370.75H183.672H241.935C239.087 365.845 231.444 356.07 227.805 351.212L193.357 304.357C191.489 301.782 189.449 298.652 185.807 298.765ZM303.758 283.015C302.6 283.367 301.318 283.757 300.435 284.65C281.843 303.472 262.028 322.727 244.123 342.065C250.233 350.897 258.14 362.532 264.925 370.75C272.328 370.542 280.678 370.75 288.17 370.752L335.268 370.75L374.958 370.757C380.908 370.757 389.053 371.01 394.855 370.75C385.838 362.36 377.688 354.63 368.945 345.795L315.575 291.715C312.455 288.597 308.59 282.79 303.758 283.015Z" fill="#D13E3E"/>
<path d="M116.268 160.342C123.908 160.594 157.363 159.016 162.801 161.602C168.096 164.12 171.803 187.753 160.338 190.869C145.908 190.324 130.998 191.44 116.536 190.703C111.867 190.352 108.692 185.887 109.161 181.402C110.037 173.013 105.762 163.388 116.268 160.342Z" fill="white"/>
<path d="M230.936 210.712C243.059 209.506 253.882 218.313 255.167 230.428C256.452 242.544 247.718 253.425 235.611 254.79C223.391 256.167 212.387 247.332 211.089 235.104C209.792 222.875 218.699 211.929 230.936 210.712Z" fill="white"/>
</svg>
