<svg width="512" height="512" viewBox="0 0 512 512" fill="none" xmlns="http://www.w3.org/2000/svg">
<path d="M382.38 170.466C351.045 172.66 323.88 148.997 321.755 117.656C319.633 86.3152 343.355 59.2037 374.7 57.15C405.948 55.1025 432.955 78.7347 435.073 109.977C437.19 141.219 413.618 168.279 382.38 170.466Z" fill="white"/>
<path d="M115.416 268.5C100.573 277.02 86.53 297.287 67.1343 283.662C57.7553 277.075 56.41 262.06 63.4525 253.385C66.7298 249.346 72.524 245.787 76.8745 242.654L240.531 124.004C245.01 120.761 248.806 119.435 254.23 118.851C264.06 118.073 269.545 123.019 276.903 128.399L444.263 249.192C459.163 259.65 454.22 285.522 435.245 287.575C421.6 289.05 407.585 275.795 397.023 267.525C396.848 269.46 396.985 272.235 396.998 274.247L397.035 410.99C397.04 416.36 397.455 424.327 396.505 429.377C391.628 455.277 366.315 452.617 346.98 452.615L301.118 452.602L301.128 344.105C301.118 313.365 292.878 297.847 260.563 297.997C224.534 297.942 210.446 305.127 210.486 343.502L210.505 452.602L168.073 452.61C152.121 452.612 136.059 455.387 124.07 443.175C113.858 432.772 115.408 422.645 115.41 409.437L115.416 268.5Z" fill="#D13E3E"/>
</svg>
