<svg xmlns="http://www.w3.org/2000/svg" height="512" preserveAspectRatio="none" style="display: block;" version="1.1" viewBox="0 0 2048 2048" width="512">
<path d="M 1529.52 681.862 C 1404.18 690.638 1295.52 595.987 1287.02 470.624 C 1278.53 345.26 1373.42 236.814 1498.8 228.599 C 1623.79 220.409 1731.82 314.938 1740.29 439.906 C 1748.76 564.874 1654.47 673.114 1529.52 681.862 z" fill="rgb(17,17,17)" transform="translate(0,0)"></path>
<path d="M 461.663 1074 C 402.292 1108.08 346.119 1189.15 268.536 1134.65 C 231.02 1108.3 225.639 1048.24 253.809 1013.54 C 266.918 997.385 290.095 983.148 307.497 970.617 L 962.123 496.015 C 980.04 483.045 995.224 477.742 1016.92 475.403 C 1056.24 472.291 1078.18 492.077 1107.61 513.598 L 1777.05 996.768 C 1836.65 1038.6 1816.88 1142.09 1740.98 1150.3 C 1686.4 1156.2 1630.34 1103.18 1588.09 1070.1 C 1587.39 1077.84 1587.94 1088.94 1587.99 1096.99 L 1588.14 1643.96 C 1588.16 1665.44 1589.82 1697.31 1586.02 1717.51 C 1566.51 1821.11 1465.26 1810.47 1387.92 1810.46 L 1204.47 1810.41 L 1204.51 1376.42 C 1204.47 1253.46 1171.51 1191.39 1042.25 1191.99 C 898.136 1191.77 841.782 1220.51 841.943 1374.01 L 842.018 1810.41 L 672.291 1810.44 C 608.483 1810.45 544.235 1821.55 496.278 1772.7 C 455.43 1731.09 461.63 1690.58 461.639 1637.75 L 461.663 1074 z" fill="rgb(17,17,17)" transform="translate(0,0)"></path>
<metadata><recraft-signature>{"signed_by": "recraft", "signature_b64": "xYZMKHGG9OxXx4SdiKbLUpAVeEVFYD5etWcBHWkTYa23s/Eo9dB4QvEN49nCn+iT1G7vzpFKjqHUROqSsA/XCQ==", "signing_algo": "Ed25519", "generation_timestamp": 1769777556, "identifier": "12a9f70b-62cd-4c1d-9b5c-db49ba61a460"}</recraft-signature></metadata></svg>