<svg width="64" height="64" viewBox="0 0 64 64" fill="none" xmlns="http://www.w3.org/2000/svg">
<path d="M34.6667 30V13.3333C34.6667 9.33333 37.3333 5.33333 42.6667 5.33333C48 5.33333 50.6667 9.33333 50.6667 13.3333V45.3333" stroke="#536FD4" stroke-width="5.33333"/>
<path d="M43.6667 45.3333H57.6667L58.6667 53.3333H42.6667L43.6667 45.3333Z" fill="#536FD4" stroke="#536FD4" stroke-width="5.33333" stroke-linecap="round" stroke-linejoin="round"/>
<path d="M13.3333 53.3333H34.5147C34.5987 53.3333 34.6667 53.2667 34.6667 53.1813V31.0067C34.6667 21.2467 26.7547 13.3333 16.9933 13.3333C14.9618 13.3333 13.0134 14.1404 11.5769 15.5769C10.1404 17.0134 9.33333 18.9618 9.33333 20.9933V38.6667" stroke="#536FD4" stroke-width="5.33333" stroke-linecap="round" stroke-linejoin="round"/>
<path d="M13.3333 53.3333C17.7516 53.3333 21.3333 49.7516 21.3333 45.3333C21.3333 40.9151 17.7516 37.3333 13.3333 37.3333C8.91505 37.3333 5.33333 40.9151 5.33333 45.3333C5.33333 49.7516 8.91505 53.3333 13.3333 53.3333Z" fill="#536FD4" stroke="#536FD4" stroke-width="5.33333"/>
<path d="M18.6667 13.3333V38.6667" stroke="#536FD4" stroke-width="5.33333" stroke-linecap="round" stroke-linejoin="round"/>
</svg>
