<svg width="512" height="512" viewBox="0 0 512 512" fill="none" xmlns="http://www.w3.org/2000/svg">
<path d="M70.1702 195.262C29.7792 102.614 169.784 32.3055 216.088 135.865V190.639C207.296 212.489 194.815 225.494 174.223 235.75C178.297 235.509 183.741 235.744 187.99 235.748L216.088 235.75H271H323.035C327.737 235.555 333.927 235.739 338.747 235.741L369.497 235.75C368.607 247.895 369.23 264.675 369.497 276.903C371.585 276.065 373.815 275.043 375.817 274.008C398.777 262.165 424.107 248.13 447.75 238.081C447.387 243.508 447.737 251.268 447.742 256.963L447.75 415.788C442.607 413.4 436.632 410.11 431.45 407.49L391.087 386.833C385.247 383.828 375.117 378.105 369.497 375.92V422.323H253.875H127.158C106.344 422.323 84.49 422.663 63.7577 422.323V235.75L93.7155 235.75C98.8092 235.756 104.36 235.971 109.38 235.75C92.178 227.027 77.9805 213.166 70.1702 195.262ZM91.8087 394.078C94.9615 394.268 98.6175 394.105 101.837 394.088L340.062 394.078L340.61 393.928C341.512 391.265 341.01 364.228 341.01 359.258L341.012 264.5H175.123C147.555 264.498 119.339 264.183 91.8087 264.5L91.5097 264.838C92.004 269.673 91.8227 276.228 91.8222 281.188L91.8087 394.078ZM387.38 352.82C397.892 358.408 409.83 363.83 420.005 369.46L419.967 295.763C419.905 290.548 419.575 287.848 420.202 282.64L420.005 282.488C414.227 285.068 408.397 288.25 402.757 291.188L383.682 301.04C379.485 303.245 373.757 306.495 369.497 308.335V343.153C375.402 346.643 381.3 349.663 387.38 352.82ZM140.907 113.159C112.902 113.925 90.8162 137.239 91.5657 165.244C92.315 193.249 115.616 215.349 143.622 214.617C171.651 213.883 193.773 190.558 193.023 162.529C192.273 134.501 168.935 112.392 140.907 113.159Z" fill="#D13E3E"/>
<path d="M363.143 131.747C380.835 171.703 362.953 217.942 323.035 235.75H275C255.5 235.75 230.771 218.012 222.1 202.649C220.78 200.31 216.994 191.602 216.089 190.639V135.865C228.114 104.772 252.678 87.8794 284.788 84.2507C317.375 81.4569 350.068 102.221 363.143 131.747ZM294.615 214.548C322.648 212.121 343.438 187.472 341.098 159.429C338.758 131.387 314.173 110.523 286.125 112.775C257.953 115.037 236.975 139.754 239.324 167.919C241.674 196.085 266.455 216.985 294.615 214.548Z" fill="white"/>
</svg>
