<svg xmlns="http://www.w3.org/2000/svg" height="512" preserveAspectRatio="none" style="display: block;" version="1.1" viewBox="0 0 2048 2048" width="512">
<path d="M 1139.15 337.003 C 1269.5 325.828 1400.27 408.884 1452.57 526.99 C 1523.34 686.812 1451.81 871.768 1292.14 943.001 C 1310.95 942.221 1335.71 942.956 1354.99 942.962 L 1477.99 943.001 C 1474.43 991.581 1476.92 1058.7 1477.99 1107.61 C 1486.34 1104.26 1495.26 1100.17 1503.27 1096.03 C 1595.11 1048.66 1696.43 992.518 1791 952.323 C 1789.55 974.032 1790.95 1005.07 1790.97 1027.85 L 1791 1663.15 C 1770.43 1653.6 1746.53 1640.44 1725.8 1629.96 L 1564.35 1547.33 C 1540.99 1535.31 1500.47 1512.42 1477.99 1503.68 L 1477.99 1689.29 L 1015.5 1689.29 L 508.632 1689.29 C 425.378 1689.29 337.961 1690.65 255.032 1689.29 L 255.032 943.001 L 374.863 943 C 395.238 943.023 417.442 943.883 437.522 943.001 C 368.713 908.106 311.923 852.662 280.682 781.048 C 119.118 410.456 679.136 129.221 864.355 543.461 C 912.456 419.087 1010.71 351.518 1139.15 337.003 z M 367.236 1576.31 C 379.847 1577.07 394.471 1576.42 407.35 1576.35 L 1360.25 1576.31 L 1362.44 1575.71 C 1366.05 1565.06 1364.04 1456.91 1364.04 1437.03 L 1364.05 1058 L 700.495 1058 C 590.221 1057.99 477.358 1056.73 367.236 1058 L 366.04 1059.35 C 368.017 1078.69 367.292 1104.91 367.29 1124.75 L 367.236 1576.31 z M 864.355 762.556 C 829.186 849.956 779.262 901.977 696.894 943.001 C 713.191 942.035 734.966 942.976 751.962 942.993 L 864.355 943.001 L 1030.57 943.001 C 968.624 911.515 923.084 872.05 888.4 810.597 C 883.12 801.242 867.974 766.409 864.355 762.556 z M 1549.52 1411.28 C 1591.57 1433.63 1639.32 1455.32 1680.02 1477.84 L 1679.87 1183.05 C 1679.62 1162.19 1678.3 1151.39 1680.81 1130.56 L 1680.02 1129.95 C 1656.91 1140.27 1633.59 1153 1611.03 1164.75 L 1534.73 1204.16 C 1517.94 1212.98 1495.03 1225.98 1477.99 1233.34 L 1477.99 1372.61 C 1501.61 1386.57 1525.2 1398.65 1549.52 1411.28 z M 1178.46 858.191 C 1290.59 848.485 1373.75 749.887 1364.39 637.718 C 1355.03 525.55 1256.69 442.092 1144.5 451.1 C 1031.81 460.148 947.899 559.015 957.297 671.678 C 966.695 784.341 1065.82 867.939 1178.46 858.191 z M 563.63 452.634 C 451.611 455.698 363.266 548.956 366.264 660.976 C 369.261 772.996 462.467 861.396 574.489 858.465 C 686.605 855.531 775.095 762.23 772.095 650.116 C 769.095 538.002 675.742 449.567 563.63 452.634 z" fill="rgb(0,0,0)" transform="translate(0,0)"></path>
<metadata><recraft-signature>{"signed_by": "recraft", "signature_b64": "Z5+ohxBsvNeJrcHkaybb0lKCSoB4UP/tJ+BC+lL49Vl4yHrIW3kBqof8kMJZvsQUJNv2+gbOi5Aur7D+iwbEBw==", "signing_algo": "Ed25519", "generation_timestamp": 1769775186, "identifier": "ba3d02c0-df16-4286-9351-4794e53495b3"}</recraft-signature></metadata></svg>