<svg xmlns="http://www.w3.org/2000/svg" height="512" preserveAspectRatio="none" style="display: block;" version="1.1" viewBox="0 0 2048 2048" width="512">
<path d="M 260.404 919.026 C 290.995 918.476 323.492 919.045 354.28 919.044 L 1340.31 919.015 C 1371.75 919.023 1416.8 920.594 1447 919.026 C 1446.27 929.124 1446.83 942.017 1446.89 952.355 L 1447 1195.62 C 1456 1190.93 1469.99 1181.6 1478.92 1175.92 L 1752.57 999.627 C 1763.65 992.33 1779.12 981.403 1791 976.277 L 1791 1638.3 C 1772.51 1627.63 1750.68 1612.35 1732.44 1600.28 C 1641.53 1539 1540.6 1471 1447 1416.51 L 1446.91 1607.56 C 1446.74 1645.77 1460.89 1705.82 1414.2 1722.46 C 1399.41 1727.74 1314.86 1724.99 1293.59 1724.99 L 363.169 1725 C 251.256 1724.95 254.707 1720.72 254.73 1619.82 L 254.751 1103.39 C 254.751 1086.95 253.819 923.835 255.997 919.742 L 260.404 919.026 z" fill="rgb(0,0,0)" transform="translate(0,0)"></path>
<path d="M 851.738 565.494 C 878.932 338.248 1148.18 215.949 1332.37 362.427 C 1533.23 522.165 1457.52 837.228 1208.58 890.344 C 1192.53 893.77 1176.5 895.136 1160.25 896.939 C 1001.12 890.959 873.667 795.012 851.738 630.016 C 849.475 681.834 822.259 743.34 790.496 783.475 C 625.594 990.564 286.682 899.494 258.527 627.458 C 239.756 446.087 372.396 316.983 544.877 298.998 C 712.727 297.897 823.299 407.787 851.738 565.494 z M 571.507 781.546 C 673.099 771.748 747.513 681.449 737.716 579.857 C 727.92 478.265 637.622 403.849 536.03 413.644 C 434.435 423.439 360.017 513.739 369.814 615.334 C 379.611 716.928 469.912 791.344 571.507 781.546 z" fill="rgb(0,0,0)" transform="translate(0,0)"></path>
<metadata><recraft-signature>{"signed_by": "recraft", "signature_b64": "/U7YVf1mDLRR+9qJpFMoCQolaQu+njttI8j37TEYL6PaLD9UdVikR08VfL/YIll0D+U6Jz637jz1MahpYOLyCw==", "signing_algo": "Ed25519", "generation_timestamp": 1769775172, "identifier": "654dec0b-653c-47bd-bfb4-17ec6ba70822"}</recraft-signature></metadata></svg>