<svg width="512" height="512" viewBox="0 0 512 512" fill="none" xmlns="http://www.w3.org/2000/svg">
<path d="M82.9468 111.254C84.6303 111.064 93.6515 111.248 95.679 111.252L404.467 111.256C423.642 111.254 449.285 107.833 454.025 133.715C454.975 138.897 454.755 143.905 454.747 149.14L454.707 356.373C454.695 375.843 454.387 394.72 429.14 399.25C403.81 399.51 377.947 399.253 352.579 399.253L96.5798 399.263C92.3053 399.27 87.3965 399.378 83.2038 399.155C63.0523 397.335 57.0675 381.558 57.1155 364.273L57.1305 153.438C57.1163 133.599 56.8713 115.201 82.9468 111.254ZM85.2503 372.388L423.742 372.435C424.427 372.433 425.345 371.888 425.932 371.53C428.59 368.658 427.774 365.208 427.767 361.393L427.742 156.792C427.74 150.812 427.57 144.169 427.742 138.245C415.985 137.876 402.264 138.248 390.297 138.248L85.2503 138.245V372.388Z" fill="#D13E3E"/>
<path d="M358.965 248.754C374.575 247.334 390.922 256.145 400.025 268.402C428.13 306.25 392.08 356.467 347.277 344.372C343.317 343.302 337.915 340.38 334.33 339.797L333.95 339.74C323.465 342.875 321.442 346.767 307.812 346.757C276.935 346.835 254.467 320.745 258.492 290.272C263.157 254.937 303.17 237.658 333.95 257.727C341.865 251.99 349.547 250.065 358.965 248.754Z" fill="white"/>
<path d="M170.679 196.714C193.519 195.105 213.362 212.263 215.067 235.096C216.772 257.93 199.698 277.845 176.873 279.647C153.91 281.46 133.849 264.26 132.133 241.29C130.418 218.32 147.702 198.332 170.679 196.714Z" fill="white"/>
<path d="M108.545 169.75L193.104 169.751C206.964 169.751 221.688 169.493 235.494 169.75V183.997C231.791 184.155 227.396 184.005 223.616 184.004L116.998 183.997V292.872C121.767 293.2 130.532 292.852 135.685 292.872H234.749C234.636 297.47 234.744 302.5 234.749 307.132C226.972 307.282 218.883 307.132 211.069 307.135L128.727 307.11C121.224 307.085 102.777 310.665 102.758 299.86L102.753 191.742C102.754 183.34 99.8814 172.935 108.545 169.75Z" fill="#D13E3E"/>
<path d="M268.742 201.602L361.78 201.602C377.322 201.602 393.227 201.428 408.75 201.602V215.979H398.187H257.755V201.602C261.3 201.7 265.172 201.614 268.742 201.602Z" fill="#D13E3E"/>
<path d="M355.587 169.75H408.75C408.635 174.29 408.69 179.45 408.75 183.997H310.875C293.332 183.999 275.242 183.761 257.755 183.997C257.662 179.285 257.732 174.471 257.755 169.75H355.587Z" fill="#D13E3E"/>
<path d="M102.754 325.502C107.243 325.305 113.12 325.492 117.694 325.497L234.749 325.502C234.906 329.585 234.978 335.635 234.749 339.74L116.762 339.735C112.711 339.73 106.537 339.482 102.754 339.74C102.771 335.077 102.607 330.125 102.754 325.502Z" fill="#D13E3E"/>
</svg>
