<svg xmlns="http://www.w3.org/2000/svg" height="512" preserveAspectRatio="none" style="display: block;" version="1.1" viewBox="0 0 2048 2048" width="512">
<path d="M 331.789 445.014 C 338.523 444.256 374.608 444.991 382.718 445.006 L 1617.87 445.023 C 1694.57 445.017 1797.14 431.331 1816.1 534.859 C 1819.9 555.589 1819.02 575.619 1818.99 596.561 L 1818.83 1425.49 C 1818.78 1503.37 1817.55 1578.88 1716.56 1597 C 1615.24 1598.04 1511.79 1597.01 1410.32 1597.01 L 386.321 1597.05 C 369.223 1597.08 349.588 1597.51 332.817 1596.62 C 252.211 1589.34 228.272 1526.23 228.464 1457.09 L 228.524 613.751 C 228.467 534.395 227.487 460.805 331.789 445.014 z M 341.003 1489.55 L 1694.97 1489.74 C 1697.71 1489.73 1701.38 1487.55 1703.73 1486.12 C 1714.36 1474.63 1711.1 1460.83 1711.07 1445.57 L 1710.97 627.169 C 1710.96 603.248 1710.28 576.675 1710.97 552.981 C 1663.94 551.503 1609.06 552.991 1561.19 552.991 L 341.003 552.981 L 341.003 1489.55 z" fill="rgb(1,1,1)" transform="translate(0,0)"></path>
<path d="M 1435.86 995.015 C 1498.3 989.335 1563.69 1024.58 1600.1 1073.61 C 1712.52 1225 1568.32 1425.87 1389.11 1377.49 C 1373.27 1373.21 1351.66 1361.52 1337.32 1359.19 L 1335.8 1358.96 C 1293.86 1371.5 1285.77 1387.07 1231.25 1387.03 C 1107.74 1387.34 1017.87 1282.98 1033.97 1161.09 C 1052.63 1019.75 1212.68 950.631 1335.8 1030.91 C 1367.46 1007.96 1398.19 1000.26 1435.86 995.015 z" fill="rgb(1,1,1)" transform="translate(0,0)"></path>
<path d="M 682.714 786.857 C 774.074 780.423 853.445 849.055 860.266 940.387 C 867.088 1031.72 798.792 1111.38 707.49 1118.59 C 615.639 1125.84 535.394 1057.04 528.531 965.163 C 521.669 873.283 590.805 793.329 682.714 786.857 z" fill="rgb(1,1,1)" transform="translate(0,0)"></path>
<path d="M 434.181 678.999 L 772.418 679.005 C 827.857 679.004 886.751 677.972 941.976 678.999 L 941.976 735.989 C 927.164 736.619 909.585 736.022 894.465 736.017 L 467.993 735.989 L 467.993 1171.49 C 487.068 1172.8 522.13 1171.41 542.74 1171.49 L 938.996 1171.49 C 938.546 1189.88 938.977 1210 938.996 1228.53 C 907.888 1229.13 875.534 1228.53 844.275 1228.54 L 514.907 1228.44 C 484.896 1228.34 411.11 1242.66 411.034 1199.44 L 411.012 766.969 C 411.015 733.362 399.526 691.742 434.181 678.999 z" fill="rgb(1,1,1)" transform="translate(0,0)"></path>
<path d="M 1074.97 806.409 L 1447.12 806.41 C 1509.29 806.408 1572.91 805.711 1635 806.409 L 1635 863.915 L 1592.75 863.915 L 1031.02 863.915 L 1031.02 806.409 C 1045.2 806.802 1060.69 806.457 1074.97 806.409 z" fill="rgb(1,1,1)" transform="translate(0,0)"></path>
<path d="M 1422.35 678.999 L 1635 678.999 C 1634.54 697.159 1634.76 717.798 1635 735.989 L 1243.5 735.989 C 1173.33 735.994 1100.97 735.044 1031.02 735.989 C 1030.65 717.138 1030.93 697.883 1031.02 678.999 L 1422.35 678.999 z" fill="rgb(1,1,1)" transform="translate(0,0)"></path>
<path d="M 411.016 1302.01 C 428.972 1301.22 452.48 1301.97 470.778 1301.99 L 938.996 1302.01 C 939.623 1318.34 939.913 1342.54 938.996 1358.96 L 467.049 1358.94 C 450.846 1358.92 426.15 1357.93 411.016 1358.96 C 411.083 1340.31 410.43 1320.5 411.016 1302.01 z" fill="rgb(1,1,1)" transform="translate(0,0)"></path>
<metadata><recraft-signature>{"signed_by": "recraft", "signature_b64": "2jdmnK7p7+wLEh3Uh8nA24R5D7h5J4fxV6xRoaBGB0shraOz8qwqrvFiBe2iPEEEwXF8S3UgFywhQ7ZeEe7sDg==", "signing_algo": "Ed25519", "generation_timestamp": 1769775069, "identifier": "6821dd50-365e-4cd8-b304-ad2866ca1b2e"}</recraft-signature></metadata></svg>