<svg width="512" height="512" viewBox="0 0 512 512" fill="none" xmlns="http://www.w3.org/2000/svg">
<path d="M295.2 137.272L146.668 137.269C140.889 137.269 133.873 137.071 128.227 137.272C105.326 139.599 103.188 155.049 103.213 173.993L103.223 373.212C103.22 377.64 103.003 383.21 103.595 387.535C106.734 410.462 128.425 409.63 145.318 409.617L369.678 409.615C408.655 409.62 409.27 395.482 409.25 361.407L409.243 185.536L433.985 136.893C439.09 145.404 440.413 153.991 440.448 163.745L440.453 363.59C440.46 373.732 441.06 385.18 439.248 395.017C435.16 417.215 416.548 436.175 394.1 439.732C384.968 441.18 374.238 440.65 364.913 440.642L154.438 440.645C129.651 440.637 108.954 443.697 89.8923 424.165C74.964 408.87 72.4753 395.44 72.4705 375.277L72.4708 179.037C72.4715 170.545 71.9073 159.687 73.4048 151.55C77.276 130.516 95.117 112.038 116.162 107.913C125.124 106.156 134.945 106.627 144.043 106.63L301.793 106.637L295.2 137.272Z" fill="#D13E3E"/>
<path d="M433.985 136.893L409.243 185.536C398.46 194.244 391.995 198.673 378.363 202.595V345.892L378.383 361.402C378.39 365.685 378.83 371.867 377.65 375.907C374.97 385.102 364.04 390.762 355.378 385.54C349.993 382.292 345.415 377.947 340.27 374.347C321.665 360.477 302.915 343.742 284.098 330.852C239.012 345.977 200.623 304.762 221.642 264.237C247.501 214.38 333.793 240.775 308.738 309.132C320.62 319.75 333.623 329.497 346.253 339.187V202.595C316.275 195.082 294.27 168.692 295.2 137.272L301.793 106.637C313.903 85.94 333.425 70.9105 358.205 70.232C394.208 66.3523 423.223 95.1723 428.985 129.334C429.245 130.879 433.185 135.134 433.985 136.893ZM359.818 100.912C339.718 102.128 324.423 119.43 325.683 139.528C326.94 159.625 344.275 174.884 364.37 173.584C384.405 172.287 399.608 155.015 398.353 134.977C397.1 114.939 379.86 99.699 359.818 100.912ZM261.775 269.17C252.115 270.547 245.387 279.475 246.723 289.14C248.059 298.805 256.958 305.572 266.628 304.28C276.36 302.977 283.178 294.012 281.833 284.287C280.488 274.562 271.495 267.782 261.775 269.17Z" fill="white"/>
<path d="M151.059 267.148C100.977 247.672 112.4 174.662 165.672 172.628C217.808 171.676 238.125 242.867 182.656 267.148L182.67 361.858C182.68 373.1 183.945 384.863 169.809 388.218C151.295 390.725 151.052 374.973 151.051 362.325L151.059 267.148ZM164.442 204.714C155.115 206.259 148.818 215.085 150.39 224.406C151.963 233.728 160.808 239.999 170.125 238.399C179.403 236.806 185.642 228.006 184.076 218.723C182.51 209.441 173.729 203.175 164.442 204.714Z" fill="white"/>
</svg>
