<svg xmlns="http://www.w3.org/2000/svg" height="512" preserveAspectRatio="none" style="display: block;" version="1.1" viewBox="0 0 2048 2048" width="512">
<path d="M 1207.17 426.549 C 1255.61 343.761 1333.7 283.643 1432.82 280.929 C 1576.83 265.41 1692.89 380.69 1715.94 517.335 C 1716.98 523.515 1732.74 540.537 1735.94 547.573 C 1756.36 581.617 1761.65 615.965 1761.79 654.981 L 1761.81 1454.36 C 1761.84 1494.93 1764.24 1540.72 1756.99 1580.07 C 1740.64 1668.86 1666.19 1744.7 1576.4 1758.93 C 1539.87 1764.72 1496.95 1762.6 1459.65 1762.57 L 617.75 1762.58 C 518.603 1762.55 435.815 1774.79 359.568 1696.66 C 299.855 1635.48 289.9 1581.76 289.881 1501.11 L 289.882 716.148 C 289.885 682.18 287.628 638.749 293.618 606.199 C 309.103 522.066 380.467 448.151 464.648 431.651 C 500.496 424.625 539.778 426.508 576.172 426.519 L 1207.17 426.549 z M 1439.27 403.648 C 1358.87 408.512 1297.69 477.721 1302.73 558.111 C 1307.76 638.502 1377.1 699.538 1457.48 694.336 C 1537.62 689.149 1598.43 620.062 1593.41 539.91 C 1588.4 459.758 1519.44 398.797 1439.27 403.648 z M 512.908 549.087 C 421.304 558.396 412.752 620.198 412.85 695.971 L 412.891 1492.85 C 412.878 1510.56 412.009 1532.84 414.378 1550.14 C 426.934 1641.85 513.697 1638.52 581.27 1638.47 L 1478.71 1638.46 C 1634.62 1638.48 1637.08 1581.93 1637 1445.63 L 1636.97 742.143 C 1593.84 776.978 1567.98 794.691 1513.45 810.38 L 1513.45 1383.57 L 1513.53 1445.61 C 1513.56 1462.74 1515.32 1487.47 1510.6 1503.63 C 1499.88 1540.41 1456.16 1563.05 1421.51 1542.16 C 1399.97 1529.17 1381.66 1511.79 1361.08 1497.39 C 1286.66 1441.91 1211.66 1374.97 1136.39 1323.41 C 956.047 1383.91 802.49 1219.05 886.566 1056.95 C 990.005 857.521 1335.17 963.102 1234.95 1236.53 C 1282.48 1279 1334.49 1317.99 1385.01 1356.75 L 1385.01 810.38 C 1265.1 780.329 1177.08 674.767 1180.8 549.087 L 586.672 549.076 C 563.556 549.075 535.489 548.284 512.908 549.087 z M 1047.1 1076.68 C 1008.46 1082.19 981.547 1117.9 986.891 1156.56 C 992.235 1195.22 1027.83 1222.29 1066.51 1217.12 C 1105.44 1211.91 1132.71 1176.05 1127.33 1137.15 C 1121.95 1098.25 1085.98 1071.13 1047.1 1076.68 z" fill="rgb(17,17,17)" transform="translate(0,0)"></path>
<path d="M 604.239 1068.59 C 403.91 990.688 449.603 698.647 662.691 690.51 C 871.232 686.704 952.501 971.468 730.626 1068.59 L 730.682 1447.43 C 730.72 1492.4 735.78 1539.45 679.237 1552.87 C 605.181 1562.9 604.209 1499.89 604.205 1449.3 L 604.239 1068.59 z M 657.768 818.854 C 620.463 825.034 595.273 860.339 601.563 897.625 C 607.854 934.911 643.233 959.997 680.5 953.596 C 717.612 947.222 742.571 912.023 736.306 874.892 C 730.042 837.762 694.917 812.699 657.768 818.854 z" fill="rgb(17,17,17)" transform="translate(0,0)"></path>
<metadata><recraft-signature>{"signed_by": "recraft", "signature_b64": "6goWCzwZRuva3p7wVpYA4YAGAVbHgNrbPDbHDOZDSSykjP4DqTX47BbyYQN24pTEdR6Ztz97qStamlY9Pq2kCA==", "signing_algo": "Ed25519", "generation_timestamp": 1769855934, "identifier": "7bce878c-4488-499a-9066-1e94450df3b9"}</recraft-signature></metadata></svg>