<svg width="64" height="64" viewBox="0 0 64 64" fill="none" xmlns="http://www.w3.org/2000/svg">
<path d="M41.4827 38.7947L40.2693 40.0747C40.2693 40.0747 37.3813 43.112 29.5013 34.816C21.6213 26.52 24.5093 23.4827 24.5093 23.4827L25.2747 22.6747C27.1573 20.6907 27.336 17.5067 25.6907 15.1813L22.3307 10.4267C20.2933 7.54667 16.36 7.168 14.0267 9.624L9.84266 14.0267C8.688 15.2453 7.91466 16.8213 8.008 18.5733C8.248 23.0533 10.1627 32.688 20.84 43.9333C32.1653 55.8533 42.792 56.328 47.136 55.8987C48.512 55.7653 49.7067 55.0213 50.6693 54.008L54.456 50.0187C57.016 47.3253 56.296 42.712 53.0213 40.8293L47.928 37.896C45.7787 36.6613 43.1627 37.024 41.4827 38.792M35.36 5.01333C35.4021 4.75398 35.4949 4.50547 35.6331 4.282C35.7713 4.05852 35.9522 3.86447 36.1654 3.71093C36.3786 3.55739 36.62 3.44737 36.8758 3.38716C37.1316 3.32694 37.3967 3.31771 37.656 3.36C37.7227 3.37333 37.9413 3.41333 38.056 3.44C38.2853 3.488 38.5982 3.568 38.9947 3.68C39.7867 3.912 40.8933 4.29333 42.2213 4.90133C44.8773 6.12 48.4107 8.25067 52.08 11.9173C55.7493 15.5867 57.88 19.1227 59.0987 21.7787C59.7067 23.1067 60.0853 24.2107 60.3173 25.0053C60.4335 25.4048 60.534 25.8087 60.6187 26.216L60.632 26.2987C60.7198 26.8268 60.5965 27.3682 60.2887 27.8062C59.9809 28.2442 59.5133 28.5437 58.9867 28.64C58.4645 28.7248 57.9301 28.5993 57.5002 28.2909C57.0704 27.9825 56.7803 27.5165 56.6933 26.9947C56.6377 26.7002 56.5656 26.4091 56.4773 26.1227C56.2048 25.2069 55.8661 24.3121 55.464 23.4453C54.424 21.1787 52.552 18.048 49.2507 14.7467C45.9493 11.4453 42.8213 9.576 40.552 8.536C39.6861 8.13397 38.7922 7.7953 37.8773 7.52267C37.5967 7.44384 37.3139 7.37271 37.0293 7.30933C36.5058 7.22148 36.0377 6.93175 35.7255 6.50242C35.4134 6.07308 35.2821 5.53841 35.36 5.01333Z" fill="#536FD4"/>
<path fill-rule="evenodd" clip-rule="evenodd" d="M35.9627 14.2133C36.0346 13.9606 36.1556 13.7246 36.3187 13.5186C36.4819 13.3127 36.684 13.141 36.9136 13.0132C37.1431 12.8854 37.3956 12.8041 37.6566 12.7739C37.9176 12.7438 38.182 12.7653 38.4347 12.8373L38.4427 12.84L38.4507 12.8427L38.472 12.848L38.5253 12.864L38.6747 12.9173C38.7938 12.9582 38.9511 13.0204 39.1467 13.104C39.536 13.2693 40.0667 13.5253 40.72 13.912C42.024 14.6853 43.8053 15.9653 45.8987 18.0613C47.992 20.1547 49.2747 21.936 50.048 23.24C50.4347 23.8933 50.6907 24.424 50.856 24.8133C50.9446 25.017 51.0247 25.2243 51.096 25.4347L51.1093 25.488L51.1173 25.5093V25.5173L51.12 25.52C51.12 25.52 51.12 25.5253 49.2 26.0747L51.12 25.5253C51.2554 26.0299 51.188 26.5675 50.9322 27.023C50.6764 27.4786 50.2525 27.8159 49.7512 27.9629C49.2498 28.11 48.7109 28.055 48.2496 27.8097C47.7882 27.5645 47.4412 27.1485 47.2827 26.6507L47.2747 26.624L47.1813 26.3893C47.0113 26.0077 46.8189 25.6364 46.6053 25.2773C46.0107 24.2747 44.936 22.7547 43.0693 20.888C41.2027 19.0213 39.6853 17.9493 38.68 17.3547C38.2482 17.1012 37.7991 16.8784 37.336 16.688L37.3093 16.6773C36.8056 16.5259 36.3818 16.1821 36.1297 15.7204C35.8777 15.2587 35.8177 14.719 35.9627 14.2133Z" fill="#536FD4"/>
</svg>
