<svg xmlns="http://www.w3.org/2000/svg" height="512" preserveAspectRatio="none" style="display: block;" version="1.1" viewBox="0 0 2048 2048" width="512">
<path d="M 1710.72 1609.79 L 386.311 1609.83 C 255.681 1609.99 222.331 1576.43 222.646 1444.33 L 222.639 597.308 C 222.58 511.271 243.156 436.965 343.862 429.45 C 362.06 428.044 399.467 429.428 419.257 429.454 L 1639.56 429.429 C 1662.62 429.406 1687.52 428.371 1710.55 429.968 C 1768.43 433.983 1820.9 488.67 1824.71 546.153 C 1826.11 567.388 1825.25 590.835 1825.24 612.138 L 1825.24 1455.49 C 1825.24 1472.31 1825.8 1490.38 1824.06 1507.02 C 1817.93 1565.87 1767.39 1606.28 1710.72 1609.79 z M 995.932 571.665 L 360.619 571.665 L 360.619 651.387 L 1053.99 651.387 L 1631.43 651.376 C 1641.73 651.393 1679.61 652.374 1686.96 651.387 C 1686.91 625.577 1686.27 597.33 1686.96 571.665 L 995.932 571.665 z M 563.55 697.306 C 562.636 697.438 559.539 697.479 559.419 698.489 C 546.334 808.212 465.949 882.016 360.619 901.419 L 360.61 1116.81 C 360.602 1161.23 359.843 1208.04 360.619 1252.24 C 472.208 1271.38 542.773 1346.53 555.969 1458.05 L 1482.08 1458.05 L 1494.79 1458.05 C 1505.93 1350.53 1572.61 1263.72 1686.96 1255.73 L 1686.96 901.419 C 1672.47 897.603 1656.21 894.958 1642.37 890.491 C 1568.06 866.504 1486.34 779.445 1494.79 697.306 L 563.55 697.306 z" fill="rgb(17,17,17)" transform="translate(0,0)"></path>
<path d="M 1032.46 1320.22 C 896.845 1325.19 782.91 1219.2 778.07 1083.58 C 773.23 947.956 879.32 834.121 1014.95 829.409 C 1150.4 824.702 1264.05 930.621 1268.88 1066.06 C 1273.72 1201.51 1167.9 1315.26 1032.46 1320.22 z" fill="rgb(17,17,17)" transform="translate(0,0)"></path>
<path d="M 620.511 1203.19 C 549.693 1207.35 488.975 1153.18 485.053 1082.35 C 481.131 1011.52 535.498 950.975 606.341 947.284 C 676.859 943.61 737.061 997.672 740.965 1068.18 C 744.869 1138.68 691.003 1199.06 620.511 1203.19 z" fill="rgb(17,17,17)" transform="translate(0,0)"></path>
<path d="M 1454.55 1201.42 C 1385.2 1211.37 1320.9 1163.24 1310.91 1093.9 C 1300.91 1024.56 1348.99 960.227 1418.33 950.18 C 1487.73 940.123 1552.14 988.263 1562.15 1057.68 C 1572.16 1127.09 1523.97 1191.47 1454.55 1201.42 z" fill="rgb(17,17,17)" transform="translate(0,0)"></path>
<metadata><recraft-signature>{"signed_by": "recraft", "signature_b64": "UbN4NUeBSbVt+pFVYO+UmCNTlsHbbfsNsUZ+6ccYvq1UOP6JTiqmdmzNHQAwXUp9GWleaSRITCZVKUpeQ3EjAQ==", "signing_algo": "Ed25519", "generation_timestamp": 1769777444, "identifier": "ca021122-6690-42e5-a4a3-832a1fc7a57a"}</recraft-signature></metadata></svg>