<svg width="512" height="512" viewBox="0 0 512 512" fill="none" xmlns="http://www.w3.org/2000/svg">
<path d="M427.68 402.448L96.5782 402.457C63.9207 402.497 55.5832 394.107 55.6619 361.082L55.6602 149.327C55.6454 127.818 60.7894 109.241 85.9659 107.362C90.5154 107.011 99.8672 107.357 104.815 107.363L409.89 107.357C415.655 107.351 421.88 107.093 427.638 107.492C442.108 108.496 455.225 122.167 456.178 136.538C456.528 141.847 456.313 147.709 456.31 153.034V363.872C456.31 368.077 456.45 372.595 456.015 376.755C454.483 391.468 441.848 401.57 427.68 402.448ZM248.983 142.916H90.1552V162.847H263.498L407.858 162.844C410.433 162.848 419.903 163.093 421.74 162.847C421.728 156.394 421.568 149.332 421.74 142.916H248.983ZM140.888 174.326C140.659 174.359 139.885 174.37 139.855 174.622C136.584 202.053 116.488 220.504 90.1552 225.355L90.1529 279.202C90.1509 290.307 89.9612 302.01 90.1552 313.06C118.052 317.845 135.694 336.633 138.993 364.513H370.52H373.698C376.483 337.633 393.153 315.93 421.74 313.932V225.355C418.118 224.401 414.053 223.739 410.593 222.623C392.015 216.626 371.585 194.861 373.698 174.326H140.888Z" fill="#D13E3E"/>
<path d="M258.115 330.055C224.211 331.297 195.727 304.8 194.517 270.895C193.307 236.989 219.83 208.53 253.737 207.352C287.6 206.175 316.012 232.655 317.22 266.515C318.43 300.377 291.975 328.815 258.115 330.055Z" fill="white"/>
<path d="M155.127 300.797C137.423 301.837 122.243 288.295 121.263 270.587C120.282 252.88 133.874 237.743 151.585 236.821C169.214 235.902 184.265 249.418 185.241 267.045C186.217 284.67 172.75 299.765 155.127 300.797Z" fill="white"/>
<path d="M363.637 300.355C346.3 302.842 330.225 290.81 327.727 273.475C325.227 256.14 337.247 240.057 354.582 237.545C371.932 235.031 388.035 247.066 390.537 264.42C393.04 281.772 380.992 297.867 363.637 300.355Z" fill="white"/>
</svg>
