<svg width="512" height="512" viewBox="0 0 512 512" fill="none" xmlns="http://www.w3.org/2000/svg">
<path d="M262.632 250.605C215.232 254.24 173.856 218.767 170.21 171.367C166.564 123.966 202.027 82.5822 249.427 78.9244C296.842 75.2657 338.242 110.744 341.892 158.16C345.54 205.576 310.05 246.969 262.632 250.605Z" fill="white"/>
<path d="M120.616 284.802C90.6808 287.617 64.1433 265.605 61.3768 235.665C58.6106 205.725 80.6651 179.223 110.609 176.505C140.485 173.792 166.915 195.786 169.675 225.658C172.435 255.53 150.483 281.995 120.616 284.802Z" fill="#D13E3E"/>
<path d="M402.615 284.63C372.78 288.07 345.795 266.7 342.307 236.872C338.82 207.043 360.147 180.024 389.97 176.488C419.86 172.945 446.955 194.331 450.45 224.227C453.945 254.125 432.517 281.182 402.615 284.63Z" fill="#D13E3E"/>
<path d="M315.867 430.162H150.183C128.604 430.182 118.454 435.605 118.438 409.857L118.427 328.027C118.393 315.962 120.145 307.932 128.778 298.987C140.367 286.98 155.026 288.832 170.084 288.83L196.582 288.84L344.307 288.827C350.32 288.82 359.09 288.332 364.757 289.497C382.362 293.112 394.24 308.63 394.237 326.492L394.272 409.135C394.287 426.225 393.172 430.18 375.305 430.175L315.867 430.162ZM252.175 339.76C224.769 343.12 205.796 361.345 203.428 389.142H259.937H308.187C308.837 361.26 279.465 336.235 252.175 339.76Z" fill="#D13E3E"/>
</svg>
