<svg xmlns="http://www.w3.org/2000/svg" height="512" preserveAspectRatio="none" style="display: block;" version="1.1" viewBox="0 0 2048 2048" width="512">
<path d="M 1003.33 569.992 C 1202.16 554.256 1328.6 790.373 1181.8 940.419 C 1171.62 950.832 1158.46 960.525 1147.3 970.605 C 1202.58 987.156 1242.05 1013.74 1286.97 1048.19 C 1323.97 1017.79 1354.87 1006.93 1398.16 989.969 C 1197.57 862.49 1324.39 561.861 1547.21 607.613 C 1735.91 646.359 1777.85 891.141 1617.48 994.155 C 1763.17 1047.18 1866.27 1175.93 1871.67 1334.19 C 1872.28 1352.21 1874.06 1422.99 1870.5 1437.11 C 1859.09 1482.27 1798.58 1469.31 1764.52 1469.25 L 1042.88 1469.26 L 300.178 1469.25 C 273.984 1469.24 247.937 1469.3 221.584 1469.65 C 169.722 1470.35 178.394 1420.07 176.904 1388.4 C 168.343 1206.47 255.214 1054.81 433.071 994.155 C 415.283 980.953 402.693 971.313 387.351 955.137 C 280.735 842.724 328.102 660.85 475.365 612.744 C 687.676 543.39 838.253 807.901 691.274 959.467 C 678.823 972.307 664.378 982.434 650.958 994.155 C 694.731 1007.27 724.521 1021.79 761.998 1048.19 C 796.004 1015.53 854.675 982.431 900.523 970.605 C 735.599 834.736 794.669 596.334 1003.33 569.992 z M 705.989 1389 L 1038.5 1389 L 1340.53 1389 C 1340 1363.32 1341.4 1338.12 1339.09 1312.68 C 1324.39 1150.64 1171.07 1015.65 1007.97 1030.88 C 861.747 1034.65 728.528 1154.61 708.568 1298.77 C 705.103 1323.79 705.107 1358.09 705.81 1383.81 L 705.989 1389 z M 1340.53 1108.9 C 1408.66 1212.3 1421.33 1259.8 1420.94 1389 L 1633.27 1389 L 1793.01 1389 C 1793.63 1319.61 1790.77 1262.39 1754.7 1200.37 C 1702.81 1111.16 1603.74 1051.93 1499.87 1053.51 C 1435.86 1056.54 1391.97 1070.69 1340.53 1108.9 z M 1493.41 684.174 C 1422.97 691.857 1372.06 755.115 1379.61 825.564 C 1387.15 896.012 1450.31 947.049 1520.78 939.637 C 1591.43 932.205 1642.64 868.835 1635.07 798.195 C 1627.5 727.555 1564.03 676.47 1493.41 684.174 z M 524.486 683.493 C 453.565 691.896 402.849 756.15 411.148 827.083 C 419.447 898.016 483.625 948.827 554.571 940.632 C 625.664 932.42 676.603 868.079 668.287 796.998 C 659.971 725.917 595.554 675.072 524.486 683.493 z M 1012.42 649.768 C 936.088 656.699 879.924 724.354 887.159 800.662 C 894.393 876.969 962.27 932.864 1038.55 925.326 C 1114.4 917.831 1169.91 850.417 1162.72 774.536 C 1155.53 698.656 1088.33 642.875 1012.42 649.768 z M 627.801 1389 C 621.328 1291.87 638.669 1183.23 705.989 1108.9 C 656.585 1073.05 587.573 1050.19 525.752 1056 C 352.192 1073.53 240.412 1213.46 254.902 1389 L 436.5 1389 L 627.801 1389 z" fill="rgb(0,0,0)" transform="translate(0,0)"></path>
<metadata><recraft-signature>{"signed_by": "recraft", "signature_b64": "GqWGV70+C9A9X4UwFEaBzqjCpppbsZoP7hM9JNz9jb1aTBx1DLHQ6fU8CvOTd1g3oK30/J4Hf5LRwZMc5BfnCw==", "signing_algo": "Ed25519", "generation_timestamp": 1769775011, "identifier": "c35386e6-65f5-44f0-88e1-76e5275a649b"}</recraft-signature></metadata></svg>