<svg width="512" height="512" viewBox="0 0 512 512" fill="none" xmlns="http://www.w3.org/2000/svg">
<path d="M156.95 347.25C155.332 322.967 159.667 295.807 176.497 277.225L190.499 262.047C199.001 253.882 213.668 245.607 225.13 242.651C183.899 208.684 198.667 149.083 250.832 142.498C300.54 138.564 332.15 197.593 295.45 235.104C292.905 237.708 289.615 240.131 286.825 242.651C300.645 246.789 310.512 253.435 321.742 262.047L335.132 277.225C352.165 303.075 355.332 314.95 355.235 347.25H335.132C335 340.83 335.35 334.53 334.772 328.17C331.097 287.66 292.767 253.912 251.992 257.72C215.436 258.662 182.132 288.652 177.142 324.692C176.275 330.947 176.276 339.522 176.452 345.952L176.497 347.25H156.95ZM253.105 162.442C234.022 164.174 219.981 181.088 221.789 200.165C223.598 219.242 240.567 233.216 259.637 231.331C278.6 229.457 292.477 212.604 290.68 193.634C288.882 174.664 272.082 160.718 253.105 162.442Z" fill="white"/>
<path d="M438.675 300.093C425.703 277.79 400.935 262.983 374.968 263.378C358.965 264.135 347.993 267.673 335.133 277.225L321.743 262.048C330.993 254.448 338.718 251.733 349.54 247.493C299.393 215.623 331.098 140.466 386.803 151.904C433.978 161.59 444.463 222.786 404.37 248.539C440.793 261.795 466.568 293.983 467.918 333.548C468.07 338.053 468.515 355.748 467.625 359.278C464.773 370.568 449.645 367.328 441.13 367.313L260.72 367.315L75.0446 367.313C68.4961 367.31 61.9844 367.325 55.3961 367.413C42.4306 367.588 44.5986 355.018 44.2261 347.1C42.0859 301.618 63.8036 263.703 108.268 248.539C103.821 245.239 100.673 242.829 96.8379 238.785C70.1839 210.681 82.0256 165.213 118.841 153.186C171.919 135.848 209.563 201.976 172.819 239.867C169.706 243.077 166.095 245.609 162.74 248.539C173.683 251.818 181.13 255.448 190.5 262.048L176.497 277.225C164.146 268.263 146.893 262.548 131.438 264C88.0481 268.383 60.1031 303.365 63.7256 347.25H109.125H156.95H176.497H259.625H335.133H355.235H408.318H448.253C448.408 329.903 447.693 315.598 438.675 300.093ZM373.353 171.044C355.743 172.965 343.015 188.779 344.903 206.391C346.788 224.003 362.578 236.763 380.195 234.91C397.858 233.052 410.66 217.209 408.768 199.549C406.875 181.889 391.008 169.118 373.353 171.044ZM131.122 170.874C113.391 172.974 100.712 189.038 102.787 206.771C104.862 224.504 120.906 237.207 138.643 235.158C156.416 233.105 169.151 217.02 167.072 199.25C164.993 181.48 148.889 168.768 131.122 170.874Z" fill="#D13E3E"/>
</svg>
