<svg xmlns="http://www.w3.org/2000/svg" height="512" preserveAspectRatio="none" style="display: block;" version="1.1" viewBox="0 0 2048 2048" width="512">
<path d="M 287.765 639 C 320.536 637.488 357.04 638.988 390.208 638.992 L 1690.98 638.986 C 1801.31 638.975 1791.22 642.011 1791 739.81 L 1791.37 1356.3 C 1791.79 1410.42 1748.87 1404.27 1710.93 1404.08 L 1628.5 1404 L 343.935 1404.07 C 250.397 1404.11 255.943 1397.43 255.941 1306.31 L 255.998 1175.64 C 374.726 1165.79 434.326 1004.59 348.62 910.635 C 327.608 887.602 287.426 863.449 255.998 861.751 L 255.986 732.264 C 255.948 696.066 244.396 649.46 287.765 639 z M 870.993 1298.95 L 1616.67 1298.97 C 1642.16 1298.96 1669.22 1296.27 1694.52 1298.95 C 1694.57 1275.89 1693.74 1248.62 1694.52 1226.01 C 1655.25 1224.15 1623.89 1215.35 1589.35 1195.88 C 1406.08 1080.96 1486.82 814.395 1694.52 816.953 L 1694.52 742.992 L 870.993 742.992 C 869.848 759.481 870.967 785.173 870.985 802.738 L 870.993 1298.95 z M 641.75 1279.51 C 698.807 1278.89 683.269 1210.02 653.847 1206.01 C 637.331 1203.76 614.746 1204.97 597.432 1204.96 L 478.648 1205 C 442.673 1210.85 431.951 1250.63 459.976 1274.97 C 469.352 1283.11 624.079 1280.47 641.75 1279.51 z M 646.755 985.051 C 694.469 983.756 684.084 913.676 654.834 911.355 C 637.351 909.968 618.006 910.791 600.394 910.837 L 478.648 910.908 C 428.276 920.963 439.643 982.107 475.254 984.751 C 486.797 985.452 499.659 985.093 511.46 985.096 L 623.566 985.106 C 628.524 985.107 642.334 985.491 646.755 985.051 z M 762.037 1205 C 721.678 1219.92 719.368 1285.98 792.117 1279.51 C 814.084 1268.27 825.549 1246.6 813.764 1222.52 C 803.696 1201.95 780.667 1206.65 762.037 1205 z M 792.117 840.916 C 829.998 827.015 834.383 764.179 766.025 767.213 C 727.982 774.547 710.754 845.033 792.117 840.916 z M 762.037 910.908 C 731.313 921.825 724.6 966.906 754.983 982.842 C 762.053 986.55 783.47 985.224 792.117 985.051 C 825.807 974.859 827.289 925.512 798.978 914.574 C 789.166 910.784 772.751 911.444 762.037 910.908 z M 766.025 1058.98 C 729.819 1066.06 708.211 1134.28 792.117 1133 C 824.531 1125.02 842.115 1057.07 766.025 1058.98 z M 474.398 767.213 C 431.634 777.337 436.755 838.814 480.29 840.637 C 499.518 841.443 519.24 840.992 538.533 840.984 L 652.25 840.916 C 687.467 833.559 687.02 784.511 664.469 771.594 C 649.916 763.258 571.297 767.208 551.597 767.19 L 500.118 767.134 C 493.49 767.127 480.559 766.725 474.398 767.213 z M 474.398 1058.98 C 432.281 1069.63 434.748 1131.44 478.952 1132.61 C 499.575 1133.15 519.006 1133.05 539.128 1133.05 L 652.25 1133 C 690.694 1124.67 689.846 1061.77 647.107 1059.19 C 628.336 1058.55 608.924 1058.88 589.856 1058.88 L 474.398 1058.98 z" fill="rgb(0,0,0)" transform="translate(0,0)"></path>
<path d="M 1159.02 822.761 C 1268.96 814.078 1365.14 896.121 1373.89 1006.05 C 1382.64 1115.98 1300.66 1212.21 1190.74 1221.04 C 1080.71 1229.87 984.376 1147.8 975.614 1037.77 C 966.852 927.736 1048.99 831.452 1159.02 822.761 z" fill="rgb(0,0,0)" transform="translate(0,0)"></path>
<metadata><recraft-signature>{"signed_by": "recraft", "signature_b64": "X3Un9u9DAQSAcQMA9IL/AkQIEFwZk133CqkFG2FlTX0IbJapqKt0mDil41o561+Ky6O6ODU7LDbHE3vi6vvfDQ==", "signing_algo": "Ed25519", "generation_timestamp": 1769775363, "identifier": "5d594731-aa76-4275-af97-2a540be7a809"}</recraft-signature></metadata></svg>