<svg width="512" height="512" viewBox="0 0 512 512" fill="none" xmlns="http://www.w3.org/2000/svg">
<path d="M71.9411 159.75C80.1339 159.372 89.2599 159.747 97.5519 159.748L422.745 159.746C450.327 159.744 447.805 160.503 447.75 184.952L447.842 339.075C447.947 352.605 437.217 351.067 427.732 351.02L407.125 351L85.9836 351.017C62.5991 351.027 63.9856 349.357 63.9851 326.577L63.9994 293.91C93.6814 291.447 108.581 251.147 87.1549 227.659C81.9019 221.9 71.8564 215.862 63.9994 215.438L63.9964 183.066C63.9869 174.016 61.0989 162.365 71.9411 159.75ZM217.748 324.737L404.167 324.742C410.54 324.74 417.305 324.067 423.63 324.737C423.642 318.972 423.435 312.155 423.63 306.502C413.812 306.037 405.972 303.837 397.337 298.97C351.52 270.24 371.705 203.599 423.63 204.238V185.748H217.748C217.462 189.87 217.742 196.293 217.746 200.684L217.748 324.737ZM160.437 319.877C174.702 319.722 170.817 302.505 163.462 301.502C159.333 300.94 153.686 301.242 149.358 301.24L119.662 301.25C110.668 302.712 107.988 312.657 114.994 318.742C117.338 320.777 156.02 320.117 160.437 319.877ZM161.689 246.263C173.617 245.939 171.021 228.419 163.708 227.839C159.338 227.492 154.501 227.698 150.098 227.709L119.662 227.727C107.069 230.241 109.911 245.527 118.813 246.188C121.699 246.363 124.915 246.273 127.865 246.274L155.891 246.276C157.131 246.277 160.583 246.373 161.689 246.263ZM190.509 301.25C180.419 304.98 179.842 321.495 198.029 319.877C203.521 317.067 206.387 311.65 203.441 305.63C200.924 300.487 195.167 301.662 190.509 301.25ZM198.029 210.229C207.499 206.754 208.596 191.045 191.506 191.803C181.995 193.637 177.688 211.258 198.029 210.229ZM190.509 227.727C182.828 230.456 181.15 241.726 188.746 245.71C190.513 246.637 195.867 246.306 198.029 246.263C206.452 243.715 206.822 231.378 199.744 228.643C197.291 227.696 193.188 227.861 190.509 227.727ZM191.506 264.745C182.455 266.515 177.053 283.57 198.029 283.25C206.133 281.255 210.529 264.267 191.506 264.745ZM118.599 191.803C107.908 194.334 109.189 209.703 120.072 210.159C124.879 210.361 129.81 210.248 134.633 210.246L163.062 210.229C171.867 208.39 171.755 196.128 166.117 192.898C162.479 190.814 142.824 191.802 137.899 191.797L125.029 191.783C123.372 191.782 120.14 191.681 118.599 191.803ZM118.599 264.745C108.07 267.407 108.687 282.86 119.738 283.152C124.894 283.287 129.751 283.262 134.782 283.262L163.062 283.25C172.673 281.167 172.461 265.442 161.777 264.797C157.084 264.637 152.231 264.72 147.464 264.72L118.599 264.745Z" fill="#D13E3E"/>
<path d="M289.755 205.69C317.24 203.519 341.285 224.03 343.472 251.512C345.66 278.995 325.165 303.052 297.685 305.26C270.177 307.467 246.094 286.95 243.903 259.442C241.713 231.934 262.247 207.863 289.755 205.69Z" fill="white"/>
</svg>
