<svg width="64" height="64" viewBox="0 0 64 64" fill="none" xmlns="http://www.w3.org/2000/svg">
<path d="M46 32.8C44.8 32.4 43.6 32 42.8 32H32V28H44C44 25.6 42.4 24 40 24H24C24 26.4 25.6 28 28 28V32C26 32 24 31.2 23.2 29.6L18.8 22.4C17.6 20.8 16 20 14.4 20H12V17.2C12 16 11.6 15.2 11.2 14L10 11.2C8.8 9.2 6.4 8 4 8H0L20 36C21.6 38.4 24.4 40 27.2 40H32V44H28V52H25.6C22 52 18.4 53.6 16 56H12V60H56V56H52C49.6 53.6 46 52 42.4 52H40V44H36V40H42.4C43.2 40 44.4 40.4 45.2 40.8L52 44.4C55.6 46.4 60 46.4 63.6 44.4H64L46 32.8Z" fill="#536FD4"/>
</svg>
